<?xml version="1.0" encoding="utf-8"?>
<!-- Generator: Adobe Illustrator 19.0.1, SVG Export Plug-In . SVG Version: 6.00 Build 0)  -->
<!DOCTYPE svg PUBLIC "-//W3C//DTD SVG 1.1//EN" "http://www.w3.org/Graphics/SVG/1.1/DTD/svg11.dtd">
<svg version="1.1" id="Layer_1" xmlns="http://www.w3.org/2000/svg" xmlns:xlink="http://www.w3.org/1999/xlink" x="0px" y="0px" viewBox="0 0 24 16" style="enable-background:new 0 0 24 16;" xml:space="preserve">
<style type="text/css">
	.silver{fill:#ADAFAA;}
	.bg{fill:#002654;}
	.fg{fill:#FCB514;}
	.st3{fill:#FFFFFF;}
	.st4{fill:#CF0A2C;}
</style>
<g>
	<path class="silver" d="M20,8c0-4.411-3.589-8-8-8S4,3.589,4,8s3.589,8,8,8S20,12.411,20,8z"/>
	<path class="bg" d="M12,0.1C7.644,0.1,4.1,3.644,4.1,8s3.544,7.9,7.9,7.9s7.9-3.544,7.9-7.9S16.356,0.1,12,0.1z"/>
	<path class="silver" d="M12,0.862C8.064,0.862,4.862,4.064,4.862,8S8.064,15.138,12,15.138S19.138,11.936,19.138,8
		S15.936,0.862,12,0.862z"/>
	<g id="reg" class="bg">
		<path d="M17.994,13.928c-0.207,0-0.375,0.167-0.375,0.374s0.168,0.374,0.375,0.374s0.374-0.168,0.374-0.374
			C18.368,14.096,18.2,13.928,17.994,13.928z M17.994,14.597c-0.162,0-0.294-0.132-0.294-0.294c0-0.163,0.132-0.294,0.294-0.294
			c0.163,0,0.294,0.132,0.294,0.294S18.156,14.597,17.994,14.597z"/>
		<path d="M18.147,14.216c0-0.071-0.057-0.127-0.127-0.127h-0.18v0.428h0.081v-0.174h0.057l0.081,0.174h0.089
			l-0.085-0.181C18.112,14.318,18.147,14.271,18.147,14.216z M18.02,14.262h-0.1v-0.093h0.1c0.026,0,0.047,0.021,0.047,0.047
			C18.067,14.241,18.046,14.262,18.02,14.262z"/>
	</g>
	<g>
		<path class="bg" d="M12,10.112c2.208-1.674,3.923-3.262,4.951-4.273c-0.012,0-0.023,0.001-0.035,0.001
			c-0.604,0-0.743-0.691-0.93-0.691c-0.076,0.007-0.36,0.097-0.532,0.172c0.113,0.039,0.22-0.001,0.353,0.085
			C15.98,5.39,16.11,5.474,16.11,5.688c0,0.213-0.047,0.496-0.453,0.496c-0.555,0-0.569-0.544-0.947-0.544
			c-0.115,0-0.514,0.174-0.849,0.174c-0.427,0-0.699-0.309-1.061-0.309c-0.139,0-0.175,0.121-0.175,0.184
			c0,0.163,0.199,0.219,0.199,0.395c0,0.056-0.023,0.119-0.095,0.161c0.05,0.036,0.095,0.083,0.095,0.159
			c0,0.03-0.01,0.056-0.021,0.081c0.078-0.061,0.147-0.107,0.226-0.107c0.254,0,0.367,0.431,0.367,0.595
			c0,0.267-0.252,0.292-0.474,0.292c-0.207,0-0.662,0.192-0.849,0.192c-0.188,0-0.467-0.159-0.498-0.361
			C11.501,7.194,11.358,7.26,11.18,7.26c-0.196,0-0.572-0.217-0.791-0.217C10.22,7.059,9.914,7.036,9.914,6.635
			c0-0.024,0.004-0.045,0.009-0.065C9.675,6.7,9.332,6.591,9.332,6.591C8.91,6.8,8.85,6.567,8.851,6.478
			C8.762,6.545,8.652,6.675,8.503,6.675c-0.245,0-0.306-0.243-0.449-0.377C7.997,6.239,7.846,6.181,7.767,6.093
			c-0.135-0.135-0.263-0.36-0.72-0.726C6.92,5.266,6.812,4.904,6.812,4.577c0-0.607,0.092-1.223,1.193-1.503
			C9.13,2.79,8.917,1.352,11.016,1.352c0.591,0,1.078,0.112,1.569,0.29c-0.134-0.068-0.194-0.142-0.167-0.239
			c0.025-0.091,0.099-0.264,1.822,0.21c1.041,0.286,1.858,0.559,1.783,0.834c-0.09,0.326-0.708-0.034-1.973-0.381
			c-0.506-0.139-0.915-0.232-1.198-0.321c0.878,0.355,1.831,0.891,3.46,1.357c0.571,0.147,0.937,0.16,0.937,0.458
			c0,0.066-0.028,0.109-0.063,0.143c0.326-0.022,0.443,0.404-0.259,0.404c-0.398,0-0.686-0.155-0.686-0.367
			c0-0.107,0.056-0.173,0.128-0.216c-0.162-0.046-0.363-0.089-0.536-0.103c0.025,0.087,0.055,0.199,0.055,0.34
			c0,0.271-0.062,0.397-0.085,0.552c0.119-0.022,0.241-0.08,0.334-0.08c0.403,0,0.174,0.591,0.672,0.652
			c0.192,0.036,0.186,0.174,0.186,0.174c0.187-0.035,0.316-0.021,0.316,0.355c0,0.024-0.001,0.047-0.003,0.069
			c0.461-0.466,0.712-0.742,0.72-0.752c0.05-0.053,0.109-0.074,0.164-0.071c-1.19-2.2-3.519-3.698-6.192-3.698
			S6.998,2.46,5.807,4.659C5.861,4.657,5.92,4.678,5.97,4.731C5.996,4.759,8.311,7.314,12,10.112z M12.564,7.712
			c2.101-0.777,2.905-1.194,3.013-0.902c0.106,0.288-1.014,0.887-2.743,1.526c-1.035,0.383-1.219,0.174-1.273,0.028
			C11.493,8.18,11.552,8.086,12.564,7.712z"/>
		<path class="bg" d="M18.373,5.017c-0.006,0.182-0.06,0.466-0.301,0.716c-0.027,0.03-2.291,2.529-5.383,4.892
			c0.161,0.118,0.358,0.26,0.548,0.395c0.004-0.023,0.011-0.047,0.027-0.071c0.069-0.11,0.262-0.152,0.439-0.041
			c0.272,0.172,0.281,0.43,0.229,0.726c0.008,0.001,0.017,0.001,0.025,0.003c0.07,0.012,0.125,0.058,0.163,0.123
			c0,0,0.092-0.01,0.174,0.121c0,0,0.097-0.009,0.175,0.121c0,0,0.092-0.013,0.175,0.121c0,0,0.096-0.008,0.175,0.121
			c0,0,0.096-0.01,0.175,0.121c0,0,0.094-0.01,0.175,0.121c0,0,0.095-0.009,0.175,0.121c0,0,0.091-0.011,0.175,0.121
			c0.004,0.001,0.008-0.002,0.012-0.001c0.119,0.021,0.198,0.127,0.216,0.273c0.158-0.144,0.315-0.227,0.518-0.099
			c0.142,0.09,0.266,0.305,0.167,0.563c1.589-1.292,2.606-3.261,2.606-5.463C19.037,6.934,18.799,5.923,18.373,5.017z"/>
		<path class="bg" d="M15.059,13.266c0,0-0.097,0.009-0.175-0.121c0,0-0.092,0.012-0.175-0.121c0,0-0.095,0.008-0.175-0.121
			c0,0-0.096,0.009-0.175-0.121c0,0-0.094,0.01-0.175-0.12c0,0-0.095,0.009-0.175-0.121c0,0-0.091,0.011-0.175-0.12
			c-0.004-0.001-0.008,0.001-0.012,0.001c-0.008-0.002-0.016-0.004-0.025-0.006c-0.013,0.341,0.092,0.681,0.545,0.967
			c0.414,0.261,0.7,0.207,0.928,0.056c-0.014-0.015-0.027-0.032-0.038-0.051C15.233,13.387,15.141,13.397,15.059,13.266z"/>
		<path class="bg" d="M11.265,6.078c-0.232,0-0.325,0.183-0.328,0.221c0,0.041,0.035,0.092,0.04,0.15c0,0,0.092-0.094,0.197-0.094
			c0.203,0,0.38,0.331,0.436,0.511c0.02-0.085,0.041-0.197,0.041-0.344C11.651,6.247,11.451,6.078,11.265,6.078z"/>
		<path class="bg" d="M7.735,12.9c0.203-0.128,0.36-0.045,0.518,0.099c0.017-0.146,0.096-0.253,0.216-0.273
			c0.004-0.001,0.008,0.002,0.012,0.001c0.083-0.132,0.175-0.121,0.175-0.121c0.08-0.13,0.175-0.121,0.175-0.121
			c0.081-0.131,0.175-0.121,0.175-0.121c0.079-0.131,0.175-0.121,0.175-0.121c0.079-0.129,0.175-0.121,0.175-0.121
			c0.083-0.133,0.175-0.121,0.175-0.121c0.078-0.13,0.175-0.121,0.175-0.121c0.083-0.131,0.174-0.121,0.174-0.121
			c0.039-0.065,0.094-0.111,0.163-0.123c0.008-0.002,0.017-0.002,0.025-0.003c-0.052-0.296-0.043-0.554,0.229-0.726
			c0.177-0.111,0.369-0.069,0.439,0.041c0.015,0.024,0.023,0.048,0.027,0.071c0.189-0.135,0.387-0.277,0.548-0.395
			c-3.093-2.362-5.357-4.86-5.384-4.89C5.686,5.484,5.632,5.2,5.626,5.018C5.201,5.923,4.962,6.934,4.962,8
			c0,2.203,1.017,4.172,2.606,5.463C7.47,13.205,7.593,12.99,7.735,12.9z"/>
		<path class="bg" d="M9.991,12.54c-0.08,0.13-0.175,0.121-0.175,0.121c-0.081,0.13-0.175,0.12-0.175,0.12
			c-0.079,0.131-0.175,0.121-0.175,0.121c-0.079,0.129-0.175,0.121-0.175,0.121c-0.082,0.133-0.175,0.121-0.175,0.121
			c-0.078,0.13-0.175,0.121-0.175,0.121c-0.082,0.131-0.174,0.121-0.174,0.121c-0.011,0.019-0.024,0.036-0.038,0.051
			c0.229,0.151,0.514,0.205,0.929-0.056c0.453-0.286,0.557-0.626,0.545-0.967c-0.008,0.002-0.016,0.004-0.025,0.006
			c-0.004,0-0.008-0.002-0.012-0.001C10.082,12.552,9.991,12.54,9.991,12.54z"/>
		<path class="bg" d="M13.985,13.827c-0.829-0.523-0.829-1.254-0.734-1.819C12.86,11.747,12.347,11.393,12,11.14
			c-0.347,0.252-0.86,0.607-1.251,0.868c0.095,0.565,0.094,1.296-0.734,1.819C9,14.467,8.381,13.847,8.177,13.68
			c-0.051,0.037-0.124,0.075-0.205,0.087c1.142,0.8,2.531,1.27,4.028,1.27s2.886-0.47,4.028-1.27
			c-0.081-0.012-0.154-0.051-0.205-0.087C15.619,13.847,15.001,14.467,13.985,13.827z"/>
		<path class="bg" d="M9.937,5.7c-0.131,0-0.171,0.125-0.171,0.166c0,0.296,0.226,0.177,0.36,0.358
			c0.048-0.124-0.075-0.176-0.075-0.312c0-0.039,0.016-0.071,0.016-0.098C10.068,5.742,10.004,5.7,9.937,5.7z"/>
		<path class="bg" d="M12.8,5.43c0.386,0,0.655,0.309,1.061,0.309c0.341,0,0.711-0.174,0.849-0.174
			c0.431,0,0.425,0.544,0.947,0.544c0.268,0,0.378-0.122,0.378-0.42c0-0.199-0.12-0.205-0.228-0.205
			c-0.041,0-0.095-0.064-0.219-0.064c-0.142,0-0.261-0.061-0.293-0.098c0.105-0.081,0.598-0.247,0.687-0.247
			c0.279,0,0.342,0.69,0.935,0.69c0.158,0,0.321-0.042,0.321-0.351c0-0.238-0.046-0.311-0.164-0.293
			c-0.089,0.019-0.17,0.029-0.17,0.029c0.045-0.088,0.028-0.164-0.105-0.191c-0.555-0.086-0.336-0.651-0.66-0.651
			c-0.112,0-0.415,0.154-0.415,0.045c0-0.115,0.091-0.296,0.091-0.593c0-0.197-0.078-0.421-0.078-0.421
			c0.283,0.001,0.686,0.107,0.868,0.184c-0.116,0.021-0.285,0.062-0.285,0.216c0,0.163,0.268,0.291,0.61,0.291
			c0.556,0,0.496-0.251,0.292-0.251c-0.211,0-0.288-0.018-0.318-0.034c0.097-0.036,0.271-0.04,0.271-0.185
			c0-0.244-0.324-0.232-0.881-0.385c-2.491-0.684-3.569-1.746-5.276-1.746c-2.074,0-1.807,1.419-2.993,1.72
			c-1.05,0.265-1.137,0.827-1.137,1.428c0,0.324,0.108,0.653,0.206,0.731C7.339,5.517,7.508,5.655,7.821,6.04
			C7.877,6.104,8.04,6.175,8.108,6.243c0.142,0.142,0.2,0.355,0.395,0.355c0.173,0,0.296-0.244,0.53-0.308
			C8.977,6.344,8.926,6.407,8.926,6.482c0,0.172,0.196,0.128,0.4,0.032c0.456,0.119,0.618-0.009,0.741-0.159
			c0.024-0.029,0.019-0.072-0.007-0.099c-0.148-0.137-0.368-0.059-0.368-0.39c0-0.065,0.058-0.242,0.246-0.242
			c0.107,0,0.247,0.087,0.197,0.252c-0.032,0.104,0.077,0.178,0.077,0.258c0,0.296-0.223,0.315-0.223,0.502
			c0,0.338,0.249,0.346,0.394,0.333c0.232,0,0.627,0.217,0.796,0.217c0.213,0,0.374-0.099,0.374-0.23
			c0-0.103-0.207-0.525-0.379-0.525c-0.095,0-0.167,0.117-0.222,0.117c-0.04,0-0.06-0.014-0.063-0.019
			c0.052-0.083-0.027-0.134-0.027-0.23c0-0.069,0.126-0.297,0.403-0.297c0.222,0,0.461,0.199,0.461,0.519
			c0,0.284-0.083,0.474-0.083,0.541c0,0.171,0.267,0.32,0.428,0.32c0.175,0,0.615-0.191,0.849-0.191
			c0.249,0,0.398-0.039,0.398-0.216c0-0.158-0.11-0.52-0.291-0.52c-0.158,0-0.392,0.358-0.69,0.358
			c0.014-0.039,0.066-0.113,0.089-0.127c0.191-0.094,0.321-0.173,0.321-0.281c0-0.094-0.128-0.127-0.198-0.186
			c0.13-0.012,0.198-0.042,0.198-0.135c0-0.134-0.199-0.192-0.199-0.395C12.549,5.561,12.635,5.43,12.8,5.43z"/>
		<path class="bg" d="M16.224,12.964c-0.212-0.134-0.375,0.021-0.563,0.216c0.002-0.009,0.004-0.018,0.006-0.028
			c0.031-0.181-0.033-0.332-0.149-0.352c-0.014-0.003-0.028,0.002-0.042,0.004c-0.061-0.16-0.174-0.12-0.174-0.12
			c-0.058-0.159-0.175-0.121-0.175-0.121c-0.062-0.159-0.175-0.121-0.175-0.121c-0.057-0.159-0.175-0.121-0.175-0.121
			c-0.064-0.162-0.175-0.121-0.175-0.121c-0.059-0.159-0.175-0.121-0.175-0.121c-0.057-0.158-0.175-0.121-0.175-0.121
			c-0.062-0.164-0.176-0.121-0.176-0.121c-0.026-0.069-0.072-0.116-0.132-0.126c-0.039-0.007-0.078,0.003-0.112,0.025
			c0.064-0.324,0.09-0.601-0.169-0.765c-0.136-0.086-0.285-0.06-0.334,0.017c-0.06,0.095,0.057,0.177,0.102,0.235
			c0.175,0.222-0.747,1.691,0.594,2.537c1.023,0.645,1.579-0.015,1.794-0.178c0.104,0.082,0.32,0.221,0.489-0.046
			C16.441,13.329,16.406,13.079,16.224,12.964z M15.401,13.433c-0.255,0.211-0.584,0.338-1.099,0.013
			c-0.543-0.343-0.614-0.764-0.57-1.168c0.026,0.037,0.061,0.061,0.103,0.068c0.014,0.003,0.028-0.002,0.042-0.004
			c0.061,0.16,0.174,0.12,0.174,0.12c0.058,0.159,0.175,0.121,0.175,0.121c0.062,0.159,0.175,0.121,0.175,0.121
			c0.057,0.159,0.175,0.121,0.175,0.121c0.064,0.162,0.175,0.121,0.175,0.121c0.059,0.159,0.175,0.121,0.175,0.121
			c0.057,0.158,0.175,0.121,0.175,0.121c0.062,0.163,0.176,0.121,0.176,0.121C15.302,13.374,15.345,13.42,15.401,13.433z"/>
		<path class="bg" d="M9.974,13.763c1.341-0.846,0.419-2.315,0.594-2.537c0.046-0.058,0.162-0.14,0.102-0.235
			c-0.048-0.077-0.198-0.103-0.334-0.017c-0.259,0.164-0.234,0.44-0.169,0.765c-0.035-0.022-0.074-0.032-0.113-0.025
			c-0.06,0.01-0.105,0.057-0.132,0.126c0,0-0.114-0.043-0.176,0.121c0,0-0.118-0.038-0.175,0.121c0,0-0.116-0.038-0.175,0.121
			c0,0-0.111-0.041-0.175,0.121c0,0-0.118-0.038-0.175,0.121c0,0-0.113-0.038-0.175,0.121c0,0-0.117-0.038-0.175,0.121
			c0,0-0.113-0.04-0.174,0.12c-0.014-0.002-0.028-0.006-0.042-0.004c-0.115,0.02-0.179,0.171-0.148,0.352
			c0.001,0.01,0.004,0.019,0.005,0.028c-0.188-0.195-0.351-0.35-0.563-0.216c-0.182,0.114-0.217,0.365-0.085,0.574
			c0.168,0.267,0.385,0.128,0.489,0.046C8.396,13.748,8.951,14.408,9.974,13.763z M10.267,12.278
			c0.044,0.404-0.026,0.826-0.569,1.168c-0.514,0.325-0.844,0.198-1.099-0.013c0.056-0.013,0.099-0.059,0.124-0.125
			c0,0,0.114,0.043,0.176-0.121c0,0,0.118,0.037,0.175-0.121c0,0,0.116,0.038,0.175-0.121c0,0,0.111,0.041,0.175-0.121
			c0,0,0.118,0.038,0.175-0.121c0,0,0.113,0.038,0.175-0.121c0,0,0.118,0.038,0.175-0.121c0,0,0.113,0.04,0.174-0.12
			c0.014,0.002,0.028,0.006,0.042,0.004C10.206,12.339,10.241,12.315,10.267,12.278z"/>
		<path class="bg" d="M11.437,10.627c-0.273,0.2-0.592,0.429-0.878,0.63l0.129,0.698c0.415-0.273,0.917-0.621,1.312-0.909
			c0.395,0.288,0.897,0.636,1.312,0.909l0.13-0.698c-0.286-0.201-0.605-0.43-0.878-0.63c3.127-2.377,5.426-4.914,5.453-4.944
			c0.36-0.375,0.274-0.828,0.27-0.843c-0.011-0.098-0.116-0.148-0.2-0.059C18.06,4.81,15.722,7.391,12,10.207
			C8.277,7.391,5.94,4.81,5.914,4.781C5.829,4.692,5.725,4.742,5.713,4.84C5.71,4.856,5.624,5.308,5.984,5.683
			C6.011,5.713,8.31,8.25,11.437,10.627z"/>
		<path class="bg" d="M12.808,8.265c1.322-0.489,2.782-1.201,2.698-1.429c-0.069-0.188-1.107,0.278-2.915,0.946
			c-0.844,0.312-1.011,0.411-0.958,0.555C11.67,8.44,11.831,8.627,12.808,8.265z"/>
		<path class="bg" d="M15.951,2.426c0.052-0.189-0.8-0.485-1.73-0.741c-1.271-0.349-1.733-0.318-1.731-0.26
			c0.004,0.18,0.489,0.266,1.582,0.567C15.261,2.319,15.892,2.641,15.951,2.426z"/>
	</g>
	<g>
		<path class="fg" d="M12,0.201C7.692,0.201,4.2,3.692,4.2,8s3.492,7.8,7.8,7.8s7.8-3.492,7.8-7.8S16.308,0.201,12,0.201z
			 M12,15.238c-3.998,0-7.238-3.24-7.238-7.238c0-3.997,3.241-7.238,7.238-7.238c3.998,0,7.238,3.24,7.238,7.238
			C19.238,11.998,15.998,15.238,12,15.238z"/>
		<path class="fg" d="M13.848,12.272c0.028,0.005,0.057-0.008,0.083-0.034c0.022,0.197,0.135,0.169,0.175,0.121
			c0.023,0.197,0.135,0.168,0.175,0.121c0.023,0.197,0.135,0.169,0.175,0.121c0.022,0.196,0.135,0.168,0.175,0.121
			c0.022,0.196,0.135,0.168,0.175,0.121c0.023,0.197,0.135,0.169,0.175,0.121c0.022,0.197,0.135,0.169,0.175,0.121
			c0.022,0.196,0.135,0.168,0.175,0.121c0.007,0.084,0.041,0.146,0.091,0.155c0.071,0.012,0.147-0.086,0.17-0.22
			s-0.015-0.252-0.086-0.264c-0.028-0.005-0.057,0.008-0.083,0.033c-0.023-0.197-0.135-0.169-0.175-0.121
			c-0.022-0.196-0.135-0.168-0.175-0.121c-0.022-0.196-0.135-0.168-0.175-0.121c-0.022-0.197-0.135-0.168-0.175-0.121
			c-0.022-0.196-0.135-0.168-0.175-0.121c-0.023-0.197-0.135-0.169-0.175-0.121c-0.022-0.197-0.135-0.169-0.175-0.121
			c-0.022-0.197-0.135-0.169-0.175-0.121c-0.007-0.084-0.041-0.146-0.091-0.155c-0.071-0.012-0.147,0.087-0.17,0.22
			C13.739,12.141,13.778,12.259,13.848,12.272z"/>
		<path class="fg" d="M8.578,13.36c0.05-0.009,0.084-0.071,0.092-0.155c0.04,0.048,0.153,0.076,0.175-0.121
			c0.04,0.048,0.152,0.076,0.175-0.121c0.04,0.048,0.153,0.075,0.175-0.121c0.04,0.048,0.153,0.076,0.175-0.121
			c0.04,0.048,0.153,0.076,0.175-0.121c0.04,0.047,0.153,0.076,0.175-0.121c0.04,0.048,0.152,0.076,0.175-0.121
			c0.04,0.048,0.153,0.076,0.175-0.121c0.026,0.025,0.056,0.038,0.083,0.034c0.071-0.012,0.11-0.131,0.086-0.264
			c-0.023-0.134-0.099-0.232-0.17-0.22c-0.05,0.009-0.084,0.071-0.091,0.155c-0.04-0.048-0.153-0.076-0.175,0.121
			c-0.04-0.048-0.153-0.076-0.175,0.121c-0.04-0.048-0.153-0.076-0.175,0.121c-0.04-0.048-0.153-0.076-0.175,0.121
			c-0.04-0.047-0.153-0.076-0.175,0.121c-0.04-0.048-0.153-0.076-0.175,0.121c-0.04-0.047-0.153-0.075-0.175,0.121
			c-0.04-0.048-0.153-0.076-0.175,0.121c-0.026-0.026-0.055-0.039-0.083-0.033c-0.071,0.012-0.109,0.13-0.086,0.264
			C8.431,13.274,8.507,13.372,8.578,13.36z"/>
		<path class="fg" d="M16.184,13.028c-0.44-0.278-0.737,1.23-1.922,0.482c-1.307-0.824-0.025-2.086-0.64-2.474
			c-0.105-0.066-0.207-0.04-0.229-0.006c-0.022,0.036,0.045,0.081,0.098,0.148c0.228,0.288-0.741,1.69,0.575,2.52
			c1.126,0.71,1.674-0.256,1.767-0.198c0.075,0.048,0.259,0.24,0.412-0.003C16.381,13.281,16.29,13.095,16.184,13.028z"/>
		<path class="fg" d="M10.509,11.178c0.053-0.067,0.12-0.112,0.098-0.148c-0.022-0.034-0.124-0.06-0.229,0.006
			c-0.614,0.388,0.668,1.649-0.639,2.474c-1.185,0.748-1.482-0.76-1.922-0.482c-0.106,0.067-0.198,0.253-0.061,0.469
			c0.153,0.243,0.336,0.05,0.412,0.003c0.093-0.058,0.641,0.908,1.767,0.198C11.25,12.868,10.281,11.466,10.509,11.178z"/>
	</g>
	<g>
		<path class="st3" d="M18.212,4.851c-0.012-0.078-0.069-0.019-0.069-0.019S15.797,7.438,12,10.302
			c-3.797-2.864-6.142-5.47-6.142-5.47S5.8,4.773,5.788,4.851c0,0-0.085,0.431,0.252,0.781c0,0,2.327,2.584,5.523,4.996
			c-0.299,0.22-0.606,0.442-0.921,0.663l0.1,0.537c0.43-0.284,0.85-0.577,1.258-0.875c0.408,0.298,0.828,0.592,1.258,0.875
			l0.1-0.537c-0.315-0.221-0.622-0.443-0.921-0.663c3.195-2.412,5.523-4.996,5.523-4.996C18.297,5.282,18.212,4.851,18.212,4.851z"
			/>
		<path class="st3" d="M7.141,5.249c0.478,0.382,0.622,0.627,0.733,0.737C7.968,6.079,8.06,6.088,8.162,6.19
			C8.313,6.341,8.36,6.523,8.503,6.523c0.148,0,0.311-0.323,0.63-0.323c0.214,0-0.131,0.143-0.131,0.283
			c0,0.119,0.262-0.044,0.319-0.044c0.096,0,0.467,0.166,0.685-0.129c-0.099-0.098-0.39-0.058-0.39-0.444
			c0-0.106,0.09-0.318,0.322-0.318c0.187,0,0.328,0.164,0.269,0.351c-0.018,0.059,0.081,0.128,0.081,0.235
			c0,0.324-0.223,0.36-0.223,0.502c0,0.286,0.202,0.264,0.313,0.257c0.261,0,0.664,0.217,0.8,0.217c0.167,0,0.299-0.072,0.299-0.155
			s-0.195-0.449-0.303-0.449c-0.062,0-0.128,0.117-0.222,0.117c-0.104,0-0.164-0.065-0.127-0.13
			c0.021-0.037-0.039-0.097-0.039-0.194c0-0.118,0.163-0.373,0.479-0.373c0.263,0,0.537,0.228,0.537,0.595
			c0,0.305-0.083,0.481-0.083,0.541c0,0.113,0.215,0.245,0.352,0.245s0.65-0.192,0.815-0.192s0.356,0.012,0.356-0.14
			s-0.105-0.444-0.216-0.444s-0.365,0.358-0.69,0.358c-0.039,0-0.082-0.008-0.082-0.062c0-0.055,0.087-0.179,0.132-0.206
			s0.284-0.129,0.284-0.216c0-0.049-0.219-0.11-0.219-0.206c0-0.099,0.219-0.02,0.219-0.115c0-0.086-0.199-0.165-0.199-0.395
			c0-0.165,0.113-0.336,0.326-0.336c0.413,0,0.672,0.309,1.061,0.309c0.329,0,0.69-0.174,0.849-0.174
			c0.482,0,0.469,0.544,0.947,0.544c0.223,0,0.301-0.084,0.301-0.345c0-0.142-0.069-0.129-0.152-0.129s-0.095-0.063-0.219-0.063
			c-0.181,0-0.381-0.094-0.381-0.186c0-0.095,0.677-0.311,0.775-0.311c0.347,0,0.379,0.69,0.935,0.69
			c0.141,0,0.245-0.03,0.245-0.275s-0.039-0.223-0.084-0.217s-0.269,0.069-0.269-0.002c0-0.07,0.106-0.141-0.022-0.162
			c-0.59-0.098-0.418-0.65-0.648-0.65c-0.11,0-0.491,0.207-0.491-0.031c0-0.131,0.091-0.31,0.091-0.593
			c0-0.312-0.178-0.497-0.006-0.497c0.376,0,1.033,0.191,1.033,0.283c0,0.066-0.37,0.028-0.37,0.193
			c0,0.098,0.212,0.216,0.535,0.216s0.453-0.1,0.292-0.1s-0.408-0.005-0.408-0.116c0-0.112,0.286-0.062,0.286-0.179
			c0-0.173-0.292-0.16-0.826-0.312c-2.66-0.757-3.585-1.743-5.255-1.743c-2.055,0-1.726,1.401-2.974,1.717
			C7.055,3.472,6.964,3.976,6.964,4.577C6.964,4.914,7.078,5.199,7.141,5.249z M8.085,5.77c-0.11,0-0.082-0.077-0.082-0.077
			C8.146,5.5,8.073,5.04,8.25,5.04c0.1,0-0.043,0.102-0.043,0.221c0,0.134,0.197,0.095,0.197,0.251
			C8.404,5.612,8.243,5.77,8.085,5.77z M8.51,6.423c0,0-0.082-0.059-0.082-0.102c0-0.098,0.166-0.126,0.166-0.096
			C8.594,6.308,8.51,6.423,8.51,6.423z M8.644,4.645c0,0.068-0.139,0.231-0.227,0.231c-0.067,0-0.174-0.261-0.174-0.283
			s0.031-0.066,0.129-0.066C8.47,4.528,8.644,4.577,8.644,4.645z M7.844,3.612c0.394,0,0.599,0.233,0.599,0.487
			c0,0.255-0.214,0.44-0.451,0.44c-0.151,0-0.196-0.127-0.196-0.191c0-0.088,0.13-0.165,0.13-0.269c0-0.129-0.157-0.218-0.315-0.218
			c-0.267,0-0.447,0.229-0.447,0.116C7.163,3.842,7.433,3.612,7.844,3.612z"/>
		<path class="st3" d="M12.617,7.854c-0.676,0.25-0.951,0.354-0.913,0.458c0.021,0.057,0.161,0.222,1.078-0.117
			c0.914-0.339,2.715-1.164,2.652-1.332C15.403,6.78,14.131,7.294,12.617,7.854z"/>
		<path class="st3" d="M14.092,1.919c1.115,0.307,1.758,0.59,1.786,0.487s-0.858-0.423-1.677-0.648
			c-0.818-0.225-1.668-0.336-1.641-0.311C12.646,1.53,12.976,1.613,14.092,1.919z"/>
	</g>
	<path class="st4" d="M8.212,5.467c-0.027,0-0.052,0.045-0.052,0.061c0,0.017,0.042,0.075,0.074,0.075
		c0.018,0,0.041-0.008,0.041-0.024C8.274,5.514,8.272,5.467,8.212,5.467z"/>
</g>
</svg>
