<?xml version="1.0" encoding="utf-8"?>
<!-- Generator: Adobe Illustrator 16.0.4, SVG Export Plug-In . SVG Version: 6.00 Build 0)  -->
<!DOCTYPE svg PUBLIC "-//W3C//DTD SVG 1.1//EN" "http://www.w3.org/Graphics/SVG/1.1/DTD/svg11.dtd">
<svg version="1.1" id="Layer_1" xmlns="http://www.w3.org/2000/svg" xmlns:xlink="http://www.w3.org/1999/xlink" x="0px" y="0px" viewBox="0 0 24 16" enable-background="new 0 0 24 16" xml:space="preserve">
 <style type="text/css">
 	 .gold{fill:#f3bc52;}
 	 .bg{fill:#ce1126;}
 	 .fg{fill:#111111;}
 </style>
<g>
	<g id="reg" class="fg">
		<path d="M10.642,14.334c-0.231,0-0.42,0.188-0.42,0.421c0,0.231,0.188,0.42,0.42,0.42c0.232,0,0.421-0.188,0.421-0.42
			C11.062,14.522,10.874,14.334,10.642,14.334z M10.642,15.085c-0.183,0-0.33-0.148-0.33-0.33c0-0.183,0.147-0.331,0.33-0.331
			s0.331,0.148,0.331,0.331C10.973,14.937,10.824,15.085,10.642,15.085z"/>
		<path d="M10.814,14.657c0-0.079-0.063-0.143-0.143-0.143H10.47v0.479h0.09V14.8h0.064l0.091,0.194h0.1l-0.095-0.203
			C10.775,14.771,10.814,14.719,10.814,14.657z M10.672,14.709H10.56v-0.104h0.112c0.029,0,0.053,0.023,0.053,0.053
			S10.701,14.709,10.672,14.709z"/>
	</g>
	<g>
		<path class="fg" d="M20.176,6.788c0,0,0.191-0.55,0.191-1.412c0-2.599-2.066-4.551-4.932-4.551c-2.194,0-3.767,1.481-4.683,1.481
			c-0.377,0-0.824-0.759-0.824-0.759S9.306,1.857,9.423,2.594c0,0-0.495-0.292-1.297-0.292c-0.979,0-1.759,0.624-1.987,1.17
			C4.99,3.914,5.191,4.437,4.209,4.529c0,0,0.04,1.035,1.136,1.265c-0.562,0.562-1.712,0.67-1.712,0.67
			c0,0.354,0.799,1.264,2.382,1.002C5.608,8.049,5.943,8.613,4.854,9.134c0,0,0.136,0.222,0.7,0.366c0,0,0.022,0.494,0.161,0.993
			c0,0-0.598-0.148-1.045,0.074c0,0,0.578,0.44,0.636,1.26c0.064,0.925,0.565,2.346,2.114,2.193
			c-0.234,0.178-0.701,0.352-0.701,0.352s0.425,0.71,1.489,0.71c1.09,0,1.384-1.165,2.452-1.165c1.007,0,1.487,0.753,3.127,0.753
			c3.438,0,5.875-3.41,6.148-5.676h-4.236c0,0-0.447,1.55-1.508,1.55c-0.688,0-1.392-0.476-1.392-1.773
			c0-1.394,1.181-3.873,2.886-3.873c0.508,0,0.676,0.397,0.676,0.858c0,0.499-0.195,1.032-0.195,1.032H20.176z M7.473,9.879
			c-0.783,0-1.081-0.606-1.081-0.606c0.26-0.058,0.414-0.481,0.664-0.481c0.271,0,0.292,0.385,1.388,0.747
			C8.343,9.585,7.991,9.879,7.473,9.879z"/>
	</g>
	<g>
		<path fill="none" d="M7.081,8.987c-0.189,0-0.262,0.295-0.445,0.335c0,0,0.246,0.383,0.824,0.383c0.301,0,0.591-0.164,0.591-0.164
			C7.291,9.36,7.24,8.987,7.081,8.987z"/>
		<path class="gold" d="M20.037,6.612c0,0,0.143-0.537,0.143-1.236c0-2.487-1.939-4.387-4.744-4.387
			c-2.023,0-3.741,1.501-4.665,1.501c-0.394,0-0.881-0.675-0.881-0.675S9.353,2.176,9.74,2.996c0,0-0.635-0.516-1.6-0.516
			c-1.414,0-1.863,1.132-1.863,1.132C5.202,3.987,5.281,4.589,4.412,4.658c0,0,0.096,0.95,1.27,0.987
			C5.234,6.475,3.866,6.598,3.866,6.598s0.388,0.726,1.587,0.726c0.774,0,1.313-0.299,1.313-0.299
			C5.565,7.671,6.339,8.568,5.154,9.152c0,0,0.261,0.147,0.577,0.2c0,0,0.022,0.746,0.264,1.458c0,0-0.333-0.273-0.988-0.158
			c0,0,0.442,0.499,0.476,1.133c0.054,1.017,0.603,2.068,1.65,2.068c0.582,0,0.901-0.28,0.901-0.28
			c-0.142,0.53-1.047,0.878-1.047,0.878S7.467,14.9,8.18,14.9c1.113,0,1.272-1.178,2.462-1.178c0.911,0,1.698,0.786,3.146,0.786
			c3.66,0,5.764-3.852,5.934-5.328h-3.893c0,0-0.504,1.543-1.637,1.543c-1.021,0-1.574-0.767-1.574-1.953
			c0-1.505,1.211-4.068,3.078-4.068c0.682,0,0.873,0.557,0.873,1.01c0,0.492-0.154,0.9-0.154,0.9H20.037z M6.636,9.322
			c0.184-0.04,0.256-0.335,0.445-0.335c0.159,0,0.21,0.373,0.97,0.554c0,0-0.29,0.164-0.591,0.164
			C6.882,9.705,6.636,9.322,6.636,9.322z"/>
	</g>
	<g>
		<path class="bg" d="M19.703,6.219c0,0,0.092-0.319,0.092-0.843c0-2.207-1.867-4.01-4.359-4.01
			c-1.93,0-3.453,1.506-4.686,1.506c-0.463,0-0.762-0.426-0.762-0.426s0.035,0.958,1.283,1.47c-1.513-0.071-1.91-1.081-3.08-1.081
			c-1.158,0-1.597,0.915-1.597,0.915S6.898,3.456,7.35,3.456c1.125,0,1.055,1.127,2.439,2.108c-0.795,0-1.102-0.428-2.074-0.428
			c-1.938,0-1.514,1.279-3.031,1.635c0,0,0.29,0.216,0.741,0.216c1.065,0,1.072-0.522,1.834-0.522c0.781,0,0.665,0.562,1.592,1.217
			C8.636,7.748,7.997,7.266,7.357,7.266c-0.635,0-0.978,0.443-1.08,1.032C6.175,8.89,5.863,9.04,5.863,9.04
			C6.5,9.078,6.548,8.396,7.007,8.396c0.436,0,0.711,0.596,1.271,0.709c0.451,0.091,0.985,0.215,1.187,0.543
			c-0.952,0.093-1.14,0.573-1.99,0.573c-0.962,0-1.369-0.753-1.369-0.753c-0.053,1.125,0.687,2.631,1.989,2.631
			c0.683,0,1.173-0.241,1.667,0.025c-1.594,0.454-0.954,1.814-2.042,2.324c0,0,0.183,0.089,0.46,0.089
			c0.921,0,1.09-1.233,2.462-1.233c1.016,0,1.783,0.794,3.141,0.794c2.985,0,5.157-3.057,5.411-4.523h-3.084
			c0,0-0.572,1.562-1.918,1.562c-1.311,0-1.992-0.995-1.992-2.368c0-1.959,1.532-4.484,3.492-4.484c0.857,0,1.312,0.737,1.312,1.388
			c0,0.336-0.088,0.547-0.088,0.547H19.703z"/>
		<path class="bg" d="M8.292,4.633c0,0-0.539-0.729-1.394-0.729c-1.076,0-1.403,0.887-2.049,0.956c0,0,0.216,0.398,0.89,0.398
			C7.147,5.259,6.979,4.234,8.292,4.633z"/>
		<path class="bg" d="M9.008,12.257c-0.636-0.232-1.035,0.231-1.606,0.231c-1.015,0-1.047-1.215-1.745-1.44
			c0,0,0.163,0.351,0.163,0.566c0,0.39,0.233,1.883,1.323,1.883C8.056,13.497,8.03,12.771,9.008,12.257z"/>
	</g>
	<path class="fg" d="M6.392,9.272c0,0,0.298,0.606,1.081,0.606c0.519,0,0.87-0.294,0.971-0.341C7.348,9.176,7.326,8.791,7.056,8.791
		C6.806,8.791,6.651,9.215,6.392,9.272z M8.051,9.541c0,0-0.29,0.164-0.591,0.164c-0.578,0-0.824-0.383-0.824-0.383
		c0.184-0.04,0.256-0.335,0.445-0.335C7.24,8.987,7.291,9.36,8.051,9.541z"/>
</g>
</svg>
