<?xml version="1.0" encoding="utf-8"?>
<!-- Generator: Adobe Illustrator 16.0.4, SVG Export Plug-In . SVG Version: 6.00 Build 0)  -->
<!DOCTYPE svg PUBLIC "-//W3C//DTD SVG 1.1//EN" "http://www.w3.org/Graphics/SVG/1.1/DTD/svg11.dtd">
<svg version="1.1" id="Layer_1" xmlns="http://www.w3.org/2000/svg" xmlns:xlink="http://www.w3.org/1999/xlink" x="0px" y="0px" viewBox="0 0 24 16" enable-background="new 0 0 24 16" xml:space="preserve">
<g>
	<g id="reg">
		<path d="M18.674,10.715c-0.184,0-0.332,0.15-0.332,0.334c0,0.186,0.148,0.332,0.332,0.332s0.334-0.146,0.334-0.332
			C19.008,10.865,18.857,10.715,18.674,10.715z M18.674,11.312c-0.145,0-0.262-0.117-0.262-0.264c0-0.145,0.117-0.262,0.262-0.262
			s0.262,0.117,0.262,0.262C18.936,11.195,18.818,11.312,18.674,11.312z"/>
		<path d="M18.811,10.973c0-0.062-0.051-0.111-0.111-0.111h-0.16v0.381h0.07v-0.156h0.051l0.072,0.156h0.078
			l-0.076-0.162C18.777,11.064,18.811,11.023,18.811,10.973z M18.699,11.016h-0.092v-0.084h0.092c0.02,0,0.039,0.02,0.039,0.041
			C18.738,10.996,18.721,11.016,18.699,11.016z"/>
	</g>
	<g>
		<path d="M20.539,10.295c0-0.629,0.617-2.965-3.869-6.498l0.754-0.168l-0.389-1.28l-0.748,0.499V2.073h-1.469
			C13.859,1.382,13.398,0.5,11.89,0.5c-0.63,0-1.292,0.125-1.436,0.125c-0.111,0-0.447-0.071-1.018-0.071
			c-1.649,0-1.801,1.23-1.595,1.662C5.672,3.702,4.598,4.772,4.598,5.16c0,0.149,0.088,0.343,0.088,0.623
			c0,0.61-1.318,1.954-1.318,2.666c0,0.663,0.846,0.709,0.846,0.709c0.048,0.195-0.28,0.846,0.014,1.178
			C3.82,10.779,4.296,11,4.296,11.352c0,0.238-0.166,0.312-0.166,0.752c0,0.502,0.235,1.105,1.473,1.105
			c0.489,0,0.922-0.076,1.266-0.076c0.097,1.039,0.54,1.447,0.613,1.707c0.06,0.209,0.196,0.66,0.471,0.66
			c0.359,0,2.34-0.648,3.844-1.561c0.753,0.279,1.712,0.188,2.06,0.188c0.381,0,0.537,0.232,0.762,0.232
			c0.135,0,1.156-1.143,1.094-3.643c0.641,1.084,1.02,1.789,1.057,2.193c0.832-0.297,1.531-2.262,1.229-3.514
			c0,0,1.047,1.699,2.635,1.449C20.629,10.848,20.539,10.535,20.539,10.295z"/>
	</g>
	<g>
		<path fill="#D18A00" d="M10.561,11.848c0.384-0.59,0.165-1.605-0.566-1.324c-0.422-0.689-0.9-1.623-0.9-2.776
			c0-1.229,0.251-1.551,0.251-2.637c0-1.85-0.856-2.216-1.405-2.588C6.633,3.408,4.898,4.621,4.898,5.266
			c0,0.19,0.084,0.369,0.084,0.556c0,0.668-1.3,1.965-1.3,2.593c0,0.236,0.188,0.433,0.49,0.433c0.302,0,1.071-0.109,1.36-0.143
			c0.289-0.029,0.321-0.17,0.321-0.246c0-0.188-0.297-0.449-0.522-0.449c-0.188,0-0.205,0.11-0.205,0.138
			c0,0.123,0.177,0.158,0.177,0.158c0.225-0.03,0.226,0.167,0.012,0.167c-0.176,0-0.373-0.13-0.373-0.354
			c0-0.225,0.18-0.281,0.314-0.281c0.562,0,0.885,0.508,0.792,0.832C6.745,9.016,6.725,9.523,6.61,9.523
			c-0.241,0-0.074-0.641-0.981-0.641c-0.254,0-0.786,0.076-0.912,0.09C4.594,8.986,4.556,9.004,4.541,9.109
			C4.525,9.211,4.394,9.586,4.394,9.816c0,0.34,0.227,0.363,0.373,0.363c0.382,0,1.029-0.092,1.029-0.244
			c0-0.1-0.164-0.07-0.224-0.07c-0.115,0-0.167-0.07-0.167-0.111c0-0.102,0.165-0.15,0.361-0.15c0.325,0,0.359,0.213,0.343,0.311
			c-0.036,0.219,0.316,0.166,0.316,0.631c0,0.053-0.004,0.186-0.115,0.186c-0.112,0-0.113-0.139-0.113-0.217
			c0-0.076-0.127-0.199-0.236-0.199c-0.115,0-0.533,0.215-1.433,0.133c-0.355,0.447,0.064,0.479,0.064,0.93
			c0,0.502-0.154,0.471-0.154,0.777c0,0.611,0.67,0.77,1.339,0.77c1.384,0,2.946-0.32,3.496-1.311
			c-0.188,0.875-0.893,1.188-2.092,1.461c0.136,0.971,0.337,1.195,0.483,1.457c0.146,0.264,0.178,0.631,0.436,0.631
			c0.309,0,2.13-0.656,3.355-1.395L10.561,11.848z"/>
	</g>
	<g>
		<path d="M12.165,11.719c-0.031,0-0.062,0.045-0.062,0.162c0,0.133,0.149,0.408,0.335,0.59c0.006-0.094,0.005-0.172,0.005-0.213
			C12.443,12.104,12.356,11.719,12.165,11.719z"/>
		<path d="M8.831,9.928C8.565,9.639,8.166,8.799,8.959,8.08C8.353,7.917,7.519,9.539,8.831,9.928z"/>
		<path d="M7.882,4.328c0.037,0.043,0.099,0.049,0.144,0.014c0.032-0.028,0.054-0.095,0.012-0.144
			c-0.012-0.015-0.278-0.33-0.65-0.635c0.044-0.033,0.102-0.076,0.164-0.123c0.158,0.132,0.77,0.657,1.155,1.136
			C8.744,4.62,8.807,4.626,8.851,4.591C8.895,4.556,8.9,4.493,8.867,4.449C8.49,3.981,7.923,3.489,7.72,3.314
			C7.787,3.266,7.845,3.221,7.875,3.2c0.413,0.3,0.647,0.588,0.65,0.591c0.035,0.044,0.099,0.051,0.142,0.016
			C8.711,3.771,8.72,3.708,8.685,3.664C8.672,3.648,8.408,3.325,7.932,2.991C7.896,2.965,7.849,2.966,7.812,2.993L7.164,3.478
			C7.104,3.522,7.116,3.601,7.162,3.64C7.567,3.955,7.879,4.324,7.882,4.328z"/>
		<path d="M7.688,5.178c-0.617,0-0.82-0.662-1.595-0.662c-0.416,0-0.63,0.163-0.63,0.301c0,0.138,0.161,0.259,0.161,0.259
			c0.078,0.17-0.462,0.356-0.178,0.47l0.349,0.136c-0.113,0.198-0.04,0.565-0.018,0.657C5.063,6.345,5.132,6.567,5.751,6.576
			c0.002,0.102-0.071,0.375,0.04,0.375c0.117,0,0.267-0.137,0.324-0.397c0.52-0.064,1.106-0.243,1.106-0.243
			C7.325,6.282,7.43,6.187,7.229,6.068L6.273,5.505c0,0-0.082-0.048-0.028-0.173l0.073-0.169c0.021-0.051,0.073-0.058,0.098-0.058
			c0.272,0,0.681,0.407,1.221,0.407c0.234,0,0.495-0.137,0.495-0.269C8.132,5.111,7.811,5.178,7.688,5.178z"/>
	</g>
	<g>
		<path fill="#FFFFFF" d="M6.209,5.843C6.156,6.041,6.193,6.268,6.206,6.328c0.613-0.037,0.864-0.149,0.864-0.149L6.209,5.843z"/>
		<path fill="#FFFFFF" d="M5.265,10.938c-0.067,0.033,0.206,0.6,0.157,0.854c0.041,0.115,0.211,0.537,0.498,0.391
			c0.286-0.146,0.044-0.529-0.025-0.631C5.659,11.441,5.332,10.902,5.265,10.938z"/>
		<path fill="#FFFFFF" d="M7.792,6.915C7.555,6.978,7.338,7.213,6.909,7.328C6.75,7.369,6.472,7.329,6.389,7.329
			c0.065,0.088,0.236,0.241,0.236,0.241S6.562,7.726,6.549,7.833c0.071-0.042,0.279-0.168,0.438-0.209
			c0.43-0.113,0.734-0.014,0.971-0.076c0.111-0.031,0.315-0.087,0.233-0.402C8.109,6.833,7.902,6.884,7.792,6.915z"/>
	</g>
	<g>
		<path fill="#CF0A2C" d="M10.31,10.615c-0.262-0.076-0.573,0.199-0.694,0.613c-0.12,0.414-0.005,0.811,0.256,0.889
			c0.262,0.076,0.572-0.197,0.693-0.613C10.686,11.09,10.57,10.691,10.31,10.615z"/>
		<path fill="#CF0A2C" d="M5.57,10.797c-0.128-0.178-0.197-0.018-0.333,0.055c-0.136,0.068-0.309,0.031-0.236,0.238
			c0.077,0.225-0.086,0.682-0.015,0.82c0.058,0.111,0.182,0.154,0.283,0.104c0.091-0.049,0.135-0.129,0.153-0.223
			c0.049-0.254-0.098-0.605-0.031-0.641c0.066-0.035,0.267,0.291,0.502,0.4c0.086,0.039,0.177,0.051,0.269,0.006
			c0.101-0.053,0.138-0.182,0.082-0.293C6.172,11.125,5.707,10.99,5.57,10.797z"/>
		<path fill="#CF0A2C" d="M7.423,7.763C7.353,7.782,7.246,7.842,7.07,7.889c-0.175,0.047-0.395,0.048-0.43-0.087
			C6.636,7.791,6.636,7.778,6.639,7.766c0.013-0.109,0.172-0.254,0.172-0.254s-0.21-0.047-0.275-0.136
			c-0.007-0.01-0.014-0.021-0.017-0.032C6.483,7.21,6.677,7.102,6.852,7.056C7.026,7.009,7.15,7.009,7.221,6.992
			C7.363,6.954,7.482,6.86,7.453,6.748C7.396,6.539,7.125,6.59,6.975,6.629c-0.75,0.198-0.916,0.506-0.861,0.72
			C6.17,7.562,6.413,7.617,6.413,7.617S6.229,7.785,6.285,7.998C6.34,8.21,6.637,8.396,7.387,8.199
			c0.151-0.04,0.413-0.129,0.359-0.337C7.715,7.747,7.564,7.726,7.423,7.763z"/>
		<path fill="#CF0A2C" d="M15.104,3.618c-2.188,1.638-3.365,4.08-3.723,4.916c0,0-0.047,0.098,0.008,0.205l0.693,1.35
			c0.029,0.057,0.091,0.066,0.138,0.023l1.14-1.029c0.078-0.072,0.104-0.186,0.104-0.186c0.52-2.975,1.221-4.429,1.658-5.088
			C15.107,3.762,15.1,3.711,15.1,3.661C15.104,3.646,15.104,3.632,15.104,3.618z"/>
	</g>
	<g>
		<polygon fill="#00833E" points="16.92,2.746 16.332,3.135 16.469,3.583 17.129,3.437 		"/>
		<path fill="#00833E" d="M15.307,4.112c-0.043-0.038-0.08-0.082-0.109-0.131c-0.701,1.124-1.596,3.936-1.596,6.343
			c0,2.463,0.754,3.771,1.025,3.771c0.209,0,0.947-1.318,0.947-3.018c0-0.465-0.389-2.326-0.389-5.821
			C15.186,4.508,15.242,4.308,15.307,4.112z"/>
		<path fill="#00833E" d="M11.554,8.607l0.621,1.342l1.13-1.047c0,0,0.545-3.178,1.516-4.93C12.258,6.458,11.554,8.607,11.554,8.607
			z"/>
		<path fill="#00833E" d="M15.705,3.206c-0.254,0-0.457,0.206-0.457,0.457c0,0.253,0.205,0.457,0.457,0.457s0.457-0.204,0.457-0.457
			S15.957,3.206,15.705,3.206z"/>
	</g>
	<g>
		<path fill="#FFD100" d="M13.92,4.041c0.152,0,0.133-0.205-0.01-0.205c-2.19,0-3.445,0.278-3.638,0.324
			c-0.122-1.073-0.739-1.416-0.739-2.11c0-0.27,0.178-0.324,0.324-0.324c0.512,0,0.896,0.6,1.606,0.6
			c0.66,0,0.802-0.468,1.179-0.468c0.564,0,0.316,1.502,1.316,1.502c0.316,0,0.523-0.126,0.523-0.126
			c0.137-0.075,0.008-0.236-0.107-0.176c0,0-0.201,0.103-0.398,0.103c-0.846,0-0.477-1.507-1.355-1.507
			c-0.421,0-0.562,0.464-1.169,0.464c-0.679,0-0.948-0.607-1.621-0.607c-0.382,0-0.519,0.255-0.519,0.512
			c0,0.769,0.759,1.354,0.759,2.408c0,1.073-0.366,2.016-0.366,3.506c0,1.737,1.65,2.249,1.65,3.868c0,0.916,0.352,1.48,0.744,1.48
			c0.216,0,0.417-0.127,0.513-0.463c0.057,0.023,0.107,0.035,0.152,0.035c0.111,0,0.521-0.119,0.521-0.602
			c0-1.381-2.372-2.094-2.372-4.257c0-1.04,0.167-2.704,0.422-2.704c0.134,0,0.301,0.582,0.62,0.582
			c0.396,0,0.258-1.149,0.434-1.149c0.142,0,0.353,0.537,0.604,0.537c0.203,0,0.27-0.417,0.357-0.744
			c0.033-0.153-0.182-0.195-0.213-0.041c-0.055,0.243-0.17,0.565-0.17,0.565c-0.131-0.129-0.338-0.523-0.59-0.523
			c-0.402,0-0.343,1.147-0.434,1.147c-0.168,0-0.274-0.596-0.641-0.596c-0.472,0-0.611,1.642-0.611,2.934
			c0,2.273,2.374,3.035,2.374,4.226c0,0.299-0.219,0.402-0.307,0.402c-0.035,0-0.07-0.01-0.107-0.021
			c0.012-0.082,0.018-0.174,0.018-0.275c0-0.701-0.386-0.834-0.543-0.834c-0.156,0-0.245,0.137-0.245,0.363
			c0,0.303,0.268,0.639,0.529,0.832c-0.04,0.189-0.122,0.363-0.298,0.363c-0.341,0-0.535-0.791-0.535-1.264
			c0-1.709-1.649-2.203-1.649-3.91c0-1.454,0.367-2.386,0.367-3.352c0-0.059-0.001-0.117-0.004-0.175
			C10.517,4.311,11.93,3.995,13.92,4.041z"/>
		<path fill="#FFD100" d="M15.023,4.582c0,0-1.248,2.627-1.248,5.688c0,2.027,0.629,3.576,0.803,3.576
			c0.137,0,0.777-0.965,0.777-2.979C15.355,10.055,14.916,6.965,15.023,4.582z"/>
	</g>
	<g>
		<path fill="#00833E" d="M14.428,8.438l-0.451,0.348c-0.053,0.436-0.088,0.887-0.094,1.35l0.496-0.338
			C14.383,9.402,14.396,8.949,14.428,8.438z"/>
		<path fill="#00833E" d="M14.762,6.382c-0.088,0.743-0.145,1.411-0.182,2.002l0.504,0.372c-0.068-0.741-0.139-1.571-0.17-2.364
			C14.91,6.279,14.785,6.173,14.762,6.382z"/>
		<path fill="#00833E" d="M14.525,9.875l0.699,0.482c-0.025-0.387-0.076-0.891-0.129-1.451l-0.523-0.389
			C14.541,9.031,14.529,9.484,14.525,9.875z"/>
		<path fill="#00833E" d="M14.609,6.387c0.018-0.137-0.096-0.115-0.119-0.035c-0.189,0.64-0.377,1.421-0.494,2.277l0.439-0.338
			C14.473,7.725,14.527,7.088,14.609,6.387z"/>
		<path fill="#00833E" d="M13.992,11.742c0.035,0.234,0.076,0.451,0.123,0.648c0.072,0.078,0.273,0.221,0.443-0.289
			c0.289,0.479,0.471,0.416,0.527,0.375c0.039-0.176,0.074-0.369,0.102-0.584l-0.693-0.461L13.992,11.742z"/>
		<path fill="#00833E" d="M14.568,11.342l0.635,0.424c0.029-0.271,0.047-0.57,0.047-0.896c0-0.1-0.006-0.223-0.014-0.365
			l-0.711-0.488C14.523,10.621,14.549,11.064,14.568,11.342z"/>
		<path fill="#00833E" d="M14.377,9.938l-0.494,0.338c0,0.484,0.035,0.936,0.092,1.342l0.445-0.277
			C14.396,11.043,14.375,10.574,14.377,9.938z"/>
	</g>
	<g>
		<path fill="#CF0A2C" d="M12.396,7.164c-0.303,0.499-0.549,1.029-0.657,1.274c-0.043,0.105-0.061,0.164-0.061,0.164l0.533,1.15
			l0.982-0.914c0.012-0.051,0.1-0.54,0.252-1.201c0.221-0.936,0.59-2.307,0.996-3.139C13.545,5.466,12.822,6.485,12.396,7.164z"/>
		<circle fill="#CF0A2C" cx="15.705" cy="3.662" r="0.292"/>
	</g>
	<path fill="#FFFFFF" d="M13.725,5.563c-0.025-0.013-0.059-0.003-0.07,0.023c-0.203,0.402-0.379,0.784-0.533,1.14l-0.624,0.276
		c-0.035,0.055-0.067,0.107-0.099,0.16l0.66-0.292c-0.172,0.404-0.311,0.771-0.428,1.09l-0.832,0.337
		c-0.023,0.054-0.042,0.099-0.058,0.139l0.842-0.342c-0.258,0.735-0.364,1.187-0.367,1.194c-0.006,0.027,0.011,0.059,0.04,0.062
		c0.029,0.006,0.057-0.012,0.063-0.041c0.002-0.006,0.104-0.439,0.352-1.15l0.447,0.751l0.076-0.072c0,0,0,0,0.002-0.002
		l-0.479-0.806c0.104-0.292,0.23-0.625,0.383-0.99l0.346,0.595c0.012-0.05,0.021-0.1,0.035-0.151l-0.328-0.567
		c0.168-0.396,0.363-0.828,0.596-1.284C13.762,5.609,13.75,5.579,13.725,5.563z"/>
	<g>
		<polygon fill="#FF671B" points="16.037,2.316 15.074,2.316 15.689,2.982 16.037,2.982 		"/>
		<path fill="#FF671B" d="M19.607,7.112c-1.049-1.686-2.881-3.103-3.301-3.417c-0.006,0.097-0.1,0.257-0.146,0.336l0,0
			c-0.057,0.061-0.123,0.133-0.156,0.152c0.072,0.291,0.184,0.707,0.332,1.19c0.221,0.536,0.467,1.197,0.676,1.886
			C17.25,7.829,17.527,8.397,17.84,8.9c1.299,2.088,2.596,1.801,2.596,1.801C20.213,10.346,20.867,9.141,19.607,7.112z"/>
	</g>
	<path fill="#FFFFFF" d="M19.219,7.232c-0.828-1.333-2.592-2.918-2.992-3.271c-0.023,0.044-0.055,0.085-0.09,0.122
		c0.252,0.716,1.234,3.404,2.139,4.858c0.883,1.422,1.746,1.352,1.746,1.352S20.312,8.994,19.219,7.232z"/>
	<g>
		<path fill="#FF671B" d="M16.27,4.145c0.141,0.392,0.418,1.147,0.762,1.982l0.092-0.506l-0.449-0.722
			c-0.016-0.025-0.008-0.059,0.018-0.074c0.027-0.015,0.059-0.008,0.072,0.018l0.432,0.69l0.666,0.165
			C17.227,5.017,16.584,4.424,16.27,4.145z"/>
		<path fill="#FF671B" d="M17.273,5.663l0.795,1.278L19.1,7.246c-0.291-0.459-0.691-0.948-1.107-1.405L17.273,5.663z"/>
		<path fill="#FF671B" d="M17.105,6.309c0.193,0.464,0.406,0.947,0.625,1.4l0.258-0.696l-0.781-1.257L17.105,6.309z"/>
		<path fill="#FF671B" d="M19.932,10.184c0.023-0.201,0.059-0.738-0.16-1.479L19.088,8.58l0.402,0.648
			c0.018,0.023,0.008,0.057-0.018,0.072c-0.023,0.016-0.059,0.008-0.074-0.018l-0.406-0.656l-0.258,0.771
			C19.27,10.035,19.746,10.158,19.932,10.184z"/>
		<path fill="#FF671B" d="M18.152,7.077l0.859,1.381l0.725,0.132c-0.115-0.362-0.289-0.771-0.553-1.208L18.152,7.077z"/>
		<path fill="#FF671B" d="M18.654,9.301L18.92,8.51l-0.859-1.383l-0.264,0.715c0.188,0.382,0.379,0.739,0.568,1.043
			C18.463,9.041,18.559,9.18,18.654,9.301z"/>
	</g>
	<g>
		<path fill="#D18A00" d="M6.121,5.038L5.732,5.142C5.65,5.163,5.646,5.21,5.724,5.248L6.019,5.39
			c0.03,0.015,0.066,0.001,0.08-0.029L6.2,5.129C6.229,5.06,6.193,5.019,6.121,5.038z"/>
		
			<ellipse transform="matrix(0.2794 -0.9602 0.9602 0.2794 -3.6423 17.8811)" fill="#D18A00" cx="10.092" cy="11.367" rx="0.496" ry="0.275"/>
	</g>
	<path fill="#FFD100" d="M17.012,7.26c-0.209-0.688-0.455-1.349-0.676-1.886c-0.148-0.484-0.26-0.9-0.332-1.19
		c-0.051,0.028-0.104,0.05-0.162,0.063c-0.043,0.01-0.09,0.016-0.137,0.016c-0.043,0-0.084-0.005-0.125-0.013
		c-0.057-0.012-0.107-0.032-0.158-0.058c-0.186,4.312,0.242,5.058,0.32,6.29c1.088,1.715,1.127,2.215,1.127,2.215
		s1.271-0.891,0.979-3.535c-0.041-0.061-0.082-0.125-0.121-0.188c-0.178-0.289-0.346-0.596-0.5-0.912"/>
	<path fill="#001970" d="M17.371,8.787c-0.037-0.238-0.086-0.48-0.145-0.725c-0.062-0.268-0.137-0.537-0.215-0.801
		c-0.209-0.688-0.457-1.349-0.676-1.886c-0.217-0.526-0.404-0.931-0.494-1.126c-0.045,0.01-0.09,0.016-0.137,0.016
		c-0.043,0-0.086-0.005-0.125-0.013c-0.041,0.464-0.189,2.448,0.094,4.234c0.404,2.562,1.377,3.49,1.377,3.49
		S17.723,11.008,17.371,8.787z"/>
	<g>
		<path fill="#FFD100" d="M16.123,7.156l-0.336-2.124c-0.016-0.096-0.143-0.084-0.148,0.055c-0.027,0.645-0.039,1.554,0.039,2.482
			L16.123,7.156z"/>
		<path fill="#FFD100" d="M16.477,9.396l-0.166-1.05l-0.467,0.464c0.074,0.391,0.162,0.738,0.256,1.049L16.477,9.396z"/>
		<path fill="#FFD100" d="M15.689,7.71c0.023,0.254,0.057,0.508,0.096,0.758c0.012,0.071,0.021,0.141,0.033,0.208l0.473-0.465
			L16.145,7.29L15.689,7.71z"/>
		<path fill="#FFD100" d="M15.898,5.015c0,0,0.174,1.1,0.34,2.153l0.75,0.422c-0.279-1.003-0.672-1.984-0.953-2.636
			C16.004,4.871,15.879,4.889,15.898,5.015z"/>
		<path fill="#FFD100" d="M16.768,10.611c-0.008-0.035-0.201-0.824-0.262-1.074l-0.367,0.449c0.133,0.412,0.275,0.752,0.41,1.021
			C16.619,10.879,16.754,10.637,16.768,10.611z"/>
		<path fill="#FFD100" d="M16.26,7.309c0.049,0.305,0.098,0.608,0.141,0.887l0.84,0.479c-0.053-0.305-0.125-0.618-0.209-0.932
			L16.26,7.309z"/>
		<path fill="#FFD100" d="M16.422,8.336c0.08,0.496,0.143,0.892,0.166,1.041l0.77,0.416c-0.01-0.293-0.039-0.617-0.094-0.977
			L16.422,8.336z"/>
		<path fill="#FFD100" d="M17.26,11.062l-0.416-0.357l-0.234,0.424c0.174,0.322,0.326,0.535,0.422,0.652
			C17.094,11.648,17.188,11.412,17.26,11.062z"/>
		<path fill="#FFD100" d="M17.359,9.922l-0.742-0.4c0.057,0.229,0.219,0.898,0.26,1.066l0.406,0.35
			C17.332,10.66,17.365,10.322,17.359,9.922z"/>
	</g>
</g>
</svg>
