<?xml version="1.0" encoding="utf-8"?>
<!-- Generator: Adobe Illustrator 16.0.4, SVG Export Plug-In . SVG Version: 6.00 Build 0)  -->
<!DOCTYPE svg PUBLIC "-//W3C//DTD SVG 1.1//EN" "http://www.w3.org/Graphics/SVG/1.1/DTD/svg11.dtd">
<svg version="1.1" id="Layer_1" xmlns="http://www.w3.org/2000/svg" xmlns:xlink="http://www.w3.org/1999/xlink" x="0px" y="0px" viewBox="0 0 24 16" enable-background="new 0 0 24 16" xml:space="preserve">
<g>
	<g id="reg" fill="#CE1126">
		<path d="M12.444,12.767c-0.221,0-0.4,0.18-0.4,0.4c0,0.222,0.18,0.4,0.4,0.4c0.222,0,0.4-0.179,0.4-0.4
			C12.845,12.946,12.666,12.767,12.444,12.767z M12.444,13.481c-0.174,0-0.314-0.141-0.314-0.314s0.141-0.314,0.314-0.314
			s0.314,0.141,0.314,0.314S12.618,13.481,12.444,13.481z"/>
		<path d="M12.609,13.074c0-0.075-0.062-0.136-0.136-0.136H12.28v0.457h0.086V13.21h0.062l0.087,0.186h0.095
			l-0.091-0.193C12.571,13.184,12.609,13.134,12.609,13.074z M12.474,13.124h-0.107v-0.1h0.107c0.027,0,0.05,0.022,0.05,0.05
			S12.501,13.124,12.474,13.124z"/>
	</g>
	<g>
	<path fill="#CE1126" d="M20.896,4.923c0.896-0.766,1.765-2.001,1.765-3.416c0-0.205-0.25-0.263-0.352-0.124
		c-0.923,1.261-1.794,1.74-2.32,1.922c0.875-0.662,1.733-1.744,1.953-2.971c0.023-0.224-0.22-0.289-0.332-0.172
		c-1.071,1.071-2.547,2.214-6.511,2.214c-0.958,0-2.053-0.028-2.761-0.028c-3.218,0-4.401,1.991-4.668,2.543
		C7.405,4.854,7.138,4.83,6.871,4.83c-3.051,0-5.532,2.482-5.532,5.533c0,3.05,2.481,5.531,5.532,5.531
		c2.245,0,4.229-1.325,5.097-3.385c0.061,0.006,0.125,0.017,0.18,0.017c0.701,0,0.848-0.205,0.848-0.378
		c0-0.093-0.092-0.204-0.137-0.27c1.028-0.005,1.33-0.054,1.775-0.207c0.072-0.022,0.115-0.09,0.115-0.161
		c0-0.152-0.312-0.403-0.537-0.599c1.438-0.024,2.497-0.281,2.497-0.617c0-0.065-0.006-0.148-0.388-0.449
		c0.812-0.221,2.237-0.768,2.237-1.125c0-0.137-0.119-0.222-0.259-0.32c1.264-0.476,2.325-1.314,2.325-1.615
		c0-0.243-0.356-0.263-0.534-0.277c0.63-0.403,1.506-1.09,1.506-1.387C21.597,4.815,21.115,4.936,20.896,4.923z"/>
	<path fill="#FFFFFF" d="M20.526,5.001c1.007-0.754,1.964-2.057,1.964-3.495c0-0.03-0.029-0.035-0.042-0.022
		c-1.557,2.125-2.972,2.104-2.972,2.104c-0.062,0-0.076-0.087-0.026-0.121c1.004-0.591,2.081-1.81,2.323-3.163
		c0.004-0.018-0.023-0.04-0.042-0.021c-1.144,1.143-2.714,2.265-6.632,2.265c-1.255,0-1.909-0.028-2.761-0.028
		c-3.396,0-4.441,2.258-4.565,2.557C7.48,5.027,7.179,5.001,6.871,5.001c-2.961,0-5.361,2.4-5.361,5.362
		c0,2.961,2.4,5.361,5.361,5.361c2.267,0,4.205-1.408,4.989-3.396c0.101,0.018,0.197,0.027,0.287,0.027
		c0.546,0,0.678-0.122,0.678-0.207c0-0.058-0.35-0.439-0.176-0.439c1.211,0,1.483-0.045,1.928-0.198
		c-0.213-0.334-0.985-0.767-0.588-0.767c1.92,0,2.55-0.371,2.55-0.449c0-0.092-0.612-0.532-0.612-0.532
		c0.884-0.146,2.461-0.853,2.461-1.042c0-0.109-0.45-0.293-0.377-0.398c1.401-0.466,2.443-1.372,2.443-1.537
		c0-0.132-0.822-0.117-0.822-0.117V6.582c0.712-0.37,1.794-1.263,1.794-1.459C21.426,4.997,20.41,5.207,20.526,5.001z"/>
		<path fill="#CE1126" d="M8.188,9.35c-0.174-0.225-0.404-0.404-0.67-0.518L7.475,8.875l0.09,0.612
			c0.027,0.022,0.054,0.045,0.08,0.07l0.448,0.003C8.123,9.495,8.155,9.424,8.188,9.35z"/>
		<path fill="#CE1126" d="M6.246,8.883l0.495,0.371C6.776,9.25,6.812,9.247,6.848,9.247l0.441-0.435L7.28,8.752
			C7.149,8.719,7.012,8.701,6.871,8.701c-0.222,0-0.432,0.043-0.625,0.121V8.883z"/>
		<path fill="#CE1126" d="M7.32,9.027L7.078,9.266c0.103,0.019,0.2,0.053,0.291,0.098L7.32,9.027z"/>
		<path fill="#CE1126" d="M7.501,11.285c-0.085,0.058-0.177,0.104-0.275,0.137l0.272,0.203L7.501,11.285z"/>
		<path fill="#CE1126" d="M5.285,12.816l0.79-0.777c-0.309-0.146-0.571-0.376-0.757-0.66l-0.663,0.889
			C4.838,12.479,5.05,12.664,5.285,12.816z"/>
		<path fill="#CE1126" d="M7.793,9.733c0.043,0.062,0.08,0.131,0.11,0.202c0.025-0.047,0.062-0.115,0.104-0.2L7.793,9.733z"/>
		<path fill="#CE1126" d="M6.308,12.132c-0.019-0.007-0.038-0.013-0.058-0.02L5.439,12.91c0.312,0.176,0.662,0.297,1.032,0.347
			L6.308,12.132z"/>
		<path fill="#CE1126" d="M7.787,11.05l-0.041,0.006c-0.021,0.028-0.045,0.055-0.069,0.08l-0.006,0.619l0.049,0.036
			c0.149-0.089,0.284-0.201,0.398-0.332C7.954,11.31,7.835,11.168,7.787,11.05z"/>
		<path fill="#CE1126" d="M6.241,9.44c0.084-0.058,0.177-0.104,0.275-0.137L6.244,9.101L6.241,9.44z"/>
		<path fill="#CE1126" d="M5.223,11.216c-0.01-0.019-0.019-0.036-0.027-0.055l-1.138-0.01c0.1,0.358,0.266,0.688,0.485,0.976
			L5.223,11.216z"/>
		<path fill="#CE1126" d="M7.496,11.842L7,11.472c-0.035,0.005-0.07,0.007-0.106,0.008l-0.44,0.434l0.008,0.061
			c0.132,0.032,0.269,0.051,0.41,0.051c0.221,0,0.432-0.044,0.624-0.122L7.496,11.842z"/>
		<path fill="#CE1126" d="M6.422,11.699l0.242-0.239c-0.103-0.019-0.201-0.052-0.292-0.098L6.422,11.699z"/>
		<path fill="#CE1126" d="M7.669,12.039l-0.01,1.138c0.358-0.1,0.688-0.267,0.977-0.485l-0.913-0.68
			C7.705,12.021,7.688,12.03,7.669,12.039z"/>
		<path fill="#CE1126" d="M5.948,10.993c-0.058-0.085-0.104-0.178-0.137-0.276l-0.203,0.272L5.948,10.993z"/>
		<path fill="#CE1126" d="M6.098,11.169l-0.619-0.005l-0.035,0.048c0.18,0.302,0.453,0.543,0.78,0.682l0.044-0.043l-0.09-0.612
			C6.15,11.216,6.123,11.193,6.098,11.169z"/>
		<path fill="#CE1126" d="M6.065,9.59L6.07,8.971L6.022,8.934C5.72,9.115,5.479,9.389,5.341,9.716l0.042,0.043L5.995,9.67
			C6.018,9.643,6.041,9.615,6.065,9.59z"/>
		<path fill="#CE1126" d="M5.535,9.913l0.238,0.243c0.02-0.104,0.053-0.201,0.098-0.292L5.535,9.913z"/>
		<path fill="#CE1126" d="M5.261,9.953c-0.033,0.132-0.051,0.269-0.051,0.41c0,0.221,0.043,0.432,0.122,0.624l0.06,0.001l0.37-0.496
			c-0.004-0.035-0.006-0.07-0.007-0.106L5.32,9.944L5.261,9.953z"/>
		<path fill="#CE1126" d="M6.492,12.18l0.159,1.097c0.072,0.005,0.146,0.008,0.22,0.008c0.21,0,0.415-0.022,0.613-0.064l0.01-1.108
			c-0.195,0.069-0.404,0.107-0.623,0.107C6.741,12.219,6.614,12.205,6.492,12.18z"/>
		<path fill="#CE1126" d="M8.494,8.159c0-0.076-0.002-0.151-0.005-0.228C8.479,7.923,8.468,7.916,8.457,7.909l-0.79,0.777
			c0.231,0.109,0.437,0.268,0.604,0.459C8.393,8.824,8.494,8.466,8.494,8.159z"/>
		<path fill="#CE1126" d="M6.019,8.715c0.018-0.01,0.036-0.02,0.054-0.027l0.01-1.139C5.725,7.649,5.395,7.815,5.106,8.034
			L6.019,8.715z"/>
		<path fill="#CE1126" d="M7.25,8.545L7.091,7.449c-0.073-0.005-0.146-0.008-0.22-0.008c-0.211,0-0.416,0.022-0.614,0.064
			L6.248,8.613c0.194-0.068,0.404-0.107,0.623-0.107C7.001,8.506,7.128,8.52,7.25,8.545z"/>
		<path fill="#CE1126" d="M9.17,12.165c-0.338-0.174-0.655-0.38-0.903-0.579c-0.111,0.126-0.238,0.237-0.38,0.33l0.889,0.662
			C8.92,12.454,9.052,12.315,9.17,12.165z"/>
		<path fill="#CE1126" d="M8.303,7.815C7.989,7.639,7.641,7.519,7.27,7.468l0.164,1.125c0.02,0.006,0.039,0.012,0.058,0.02
			L8.303,7.815z"/>
		<path fill="#CE1126" d="M3.949,10.363c0,0.21,0.022,0.415,0.064,0.613l1.108,0.009c-0.069-0.194-0.106-0.404-0.106-0.622
			c0-0.131,0.013-0.257,0.038-0.38l-1.096,0.16C3.952,10.216,3.949,10.289,3.949,10.363z"/>
		<path fill="#CE1126" d="M3.977,9.964L5.103,9.8c0.006-0.019,0.013-0.038,0.019-0.058L4.324,8.93
			C4.147,9.244,4.027,9.593,3.977,9.964z"/>
		<path fill="#CE1126" d="M4.417,8.777l0.777,0.79c0.146-0.31,0.377-0.571,0.66-0.757L4.966,8.147
			C4.755,8.33,4.569,8.541,4.417,8.777z"/>
		<circle fill="#CE1126" cx="6.871" cy="10.363" r="0.603"/>
		<path fill="#CE1126" d="M6.871,6.748c-1.996,0-3.614,1.619-3.614,3.615c0,1.996,1.618,3.614,3.614,3.614
			c1.219,0,2.296-0.604,2.951-1.527c-0.138-0.048-0.277-0.105-0.415-0.169c-0.581,0.767-1.501,1.262-2.536,1.262
			c-1.756,0-3.18-1.424-3.18-3.18c0-1.758,1.424-3.181,3.18-3.181c0.587,0,1.136,0.159,1.607,0.436
			c-0.004-0.157-0.005-0.319,0.008-0.49C8,6.885,7.451,6.748,6.871,6.748z"/>
		<path fill="#CE1126" d="M10.888,12.591c-0.233,0.056-0.535,0.021-0.858-0.073c-0.688,1.008-1.846,1.669-3.158,1.669
			c-2.112,0-3.824-1.712-3.824-3.823c0-0.068,0.002-0.135,0.006-0.202c-0.118,0.18-0.084,0.476-0.294,0.476
			c-0.166,0-0.074-0.227-0.196-0.227c-0.075,0-0.086,0.104-0.18,0.104c-0.012,0-0.021-0.004-0.028-0.004
			c-0.021,0-0.029,0.045-0.068,0.045c-0.049,0-0.082-0.059-0.122-0.059c-0.044,0-0.058,0.084-0.115,0.084
			c-0.06,0-0.117-0.1-0.141-0.146c0.038,2.709,2.245,4.893,4.963,4.893c2.079,0,3.86-1.279,4.599-3.094
			c-0.557-0.168-1.089-0.452-1.089-0.452C10.415,12.113,10.888,12.591,10.888,12.591z"/>
		<path fill="#CE1126" d="M2.399,8.464c0.115,0.094,0.023,0.26,0.105,0.375c0.63-1.805,2.347-3.1,4.366-3.1
			c0.659,0,1.287,0.139,1.854,0.388c0.042-0.1,0.09-0.203,0.145-0.309c-0.611-0.27-1.288-0.42-1.999-0.42
			C4.785,5.398,3,6.685,2.266,8.508C2.307,8.535,2.352,8.424,2.399,8.464z"/>
		<path fill="#CE1126" d="M12.932,3.363h2.731c3.489,0,5.017-1.248,5.618-2.353c0.034-0.067-0.008-0.081-0.074-0.021
			c-0.76,0.681-1.893,1.871-6.521,1.871h-1.953c-3.071,0-4.228,1.385-4.529,2.309c0.153,0.039,0.305,0.085,0.452,0.138
			C9.202,4.323,10.243,3.363,12.932,3.363z"/>
		<path fill="#CE1126" d="M12.868,4.067c-2.733,0-4.308,1.877-4.127,3.67c0.134,1.337-0.613,2.422-0.613,2.422
			s1.043-0.472,1.043-2.375c0-1.803,1.794-3.116,3.306-3.116c1.462,0,3.159,0.009,4,0.009c4.461,0,5.541-2.061,5.694-2.463
			c0.027-0.06-0.012-0.048-0.027-0.02c-0.931,1.256-2.235,1.974-5.773,1.974C14.097,4.168,13.377,4.067,12.868,4.067z"/>
		<path fill="#CE1126" d="M13.887,5.629c-0.738,0-0.812,0.206-0.812,0.206c-0.024,0.029-0.012,0.096-0.063,0.116
			c-0.169,0.065-0.355-0.075-0.5,0.113c-0.088,0.113-0.301-0.026-0.438,0.054c-0.031,0.018,0,0.097,0.024,0.107
			c0.064,0.028,0.171,0.02,0.211,0.053c0.043,0.035,0.038,0.084,0.078,0.113c0.049,0.036,0.14,0.052,0.181,0.108
			c0.031,0.043,0.042,0.129,0.088,0.132c1.108,0.063,2.245,0.063,3.297-0.344C16.071,6.099,14.921,5.629,13.887,5.629z"/>
		<path fill="#CE1126" d="M9.533,8.072C9.547,8.179,9.52,8.344,9.542,8.346c0.771,0.084,1.554-0.053,2.267-0.381
			c0.199-0.084-0.774-0.591-1.585-0.591c-0.263,0-0.441,0.112-0.441,0.112C9.736,7.512,9.7,7.619,9.647,7.697
			c-0.039,0.059,0.036,0.15,0.005,0.188C9.594,7.956,9.522,7.999,9.533,8.072z"/>
		<path fill="#CE1126" d="M10.588,6.195c-0.038,0.006-0.066,0.066-0.094,0.106c-0.07,0.099-0.291,0.077-0.29,0.189
			c0.003,0.205-0.225,0.242-0.261,0.389c-0.029,0.116-0.091,0.203-0.1,0.327c0.818,0.004,1.66-0.048,2.385-0.465
			C12.419,6.655,11.23,6.102,10.588,6.195z"/>
		<path fill="#CE1126" d="M13.191,5.494c-0.059-0.237-0.347-0.282-0.543-0.396c-0.078-0.046-0.17-0.025-0.26,0.014
			c-0.194,0.084-0.445-0.059-0.646,0.086c-0.057,0.042-0.087,0.119-0.161,0.138c-0.093,0.024-0.185,0.028-0.279,0.04
			c-0.034,0.005-0.099,0.028-0.094,0.067c0.019,0.167-0.137,0.202-0.26,0.245c-0.12,0.042-0.078,0.201-0.082,0.318
			C11.664,6.015,12.492,5.902,13.191,5.494z"/>
		<path fill="#CE1126" d="M9.129,9.43c0.204,0.106,1.195-0.036,1.712-0.357c-0.53-0.451-1.38-0.614-1.38-0.614
			C9.343,8.779,9.221,9.1,9.129,9.43z"/>
		<path fill="#CE1126" d="M8.979,9.617c-0.097,0.052-0.208,0.198-0.12,0.257c0.158,0.107,0.419,0.346,1.622,0.346
			c1.172,0,1.618-0.362,1.839-0.587c0-0.146-1.03-0.442-1.169-0.361c-0.042,0.021-0.047,0.063-0.053,0.082
			c-0.047,0.019-0.189,0.021-0.224,0.046c-0.08,0.059-0.064,0.154-0.086,0.159c-0.183,0.046-0.409-0.069-0.582,0.01
			c-0.047,0.021-0.043,0.15-0.104,0.155C9.978,9.733,9.84,9.658,9.72,9.696C9.699,9.704,9.635,9.713,9.592,9.74
			C9.525,9.706,9.491,9.698,9.405,9.677C9.342,9.662,9.28,9.705,9.203,9.692C9.13,9.68,9.049,9.581,8.979,9.617z"/>
		<path fill="#CE1126" d="M13.731,8.771c0.217-0.113,0.478-0.123,0.636-0.338c-0.971-0.508-2.105-0.455-2.243-0.375
			c-0.035,0.02-0.074,0.091-0.118,0.118c-0.066,0.044-0.129,0.022-0.173,0.067c-0.026,0.026,0.003,0.096-0.016,0.122
			c-0.024,0.034-0.078,0.04-0.111,0.059c-0.035,0.019-0.106-0.012-0.16,0.011s-0.056,0.073-0.091,0.09
			c-0.131,0.066-0.319-0.01-0.409-0.01C11,8.518,11.012,8.59,11.026,8.605c0.059,0.057,0.227,0.074,0.22,0.16
			c-0.001,0.018-0.042,0.076-0.067,0.08c0.09,0.19,0.918,0.442,2.008,0.08C13.368,8.871,13.557,8.861,13.731,8.771z"/>
		<path fill="#CE1126" d="M14.972,7.372c0.089-0.061,0.203-0.062,0.256-0.146c0.117-0.153-1.018-0.405-1.479-0.405
			c-0.457,0-1.303,0.115-1.447,0.166c-0.06,0.025-0.063,0.147-0.134,0.156c-0.136,0.017-0.27,0.033-0.406,0.045
			c-0.045,0.003-0.034,0.075-0.02,0.087c0.089,0.071,0.116,0.115,0.153,0.226c0.004,0.01,0.096,0.001,0.116,0.019
			c0.089,0.076,0.152,0.185,0.263,0.212c0.538,0.129,1.057,0.165,1.607,0.037c0.059-0.014,0.102-0.062,0.154-0.068
			c0.193-0.025,0.394-0.036,0.544-0.179C14.686,7.419,14.854,7.451,14.972,7.372z"/>
		<path fill="#CE1126" d="M16.276,5.047c0.032-0.02,0.006-0.122-0.02-0.125c-0.124-0.019-0.258-0.068-0.391,0.051
			c-0.045,0.041-0.129-0.047-0.191-0.009c-0.051,0.03-0.101,0.111-0.147,0.132c-0.128,0.057-0.252-0.076-0.393-0.06
			c-0.042,0.004-0.031,0.097-0.073,0.106c-0.121,0.029-0.227-0.104-0.295-0.059c-0.105,0.068-0.193,0.154-0.32,0.097
			c-0.122-0.056-0.282-0.17-0.366-0.098c-0.145,0.126-0.32-0.057-0.448-0.008c-0.107,0.042-0.397,0.111-0.199,0.226
			C14.047,5.672,15.329,5.598,16.276,5.047z"/>
		<path fill="#CE1126" d="M10.188,12.021c-0.032-0.059-0.115-0.027-0.173-0.062c-0.042-0.024-0.062-0.111-0.102-0.145
			c-0.032-0.025-0.107,0.033-0.146,0.01c-0.056-0.032-0.098-0.103-0.141-0.15c-0.048-0.054-0.092-0.111-0.14-0.164
			c-0.044-0.051-0.091-0.097-0.147-0.13c-0.03-0.018-0.09,0.021-0.126,0.012c-0.065-0.018-0.104-0.131-0.156-0.178
			c-0.03-0.027-0.079-0.031-0.106-0.057c-0.028-0.026-0.034-0.075-0.063-0.107c-0.037-0.043-0.094-0.058-0.136-0.092
			c-0.057-0.046-0.098-0.162-0.142-0.227s-0.107-0.072-0.149-0.128c-0.052-0.071-0.082-0.189-0.146-0.261
			c-0.063-0.072-0.224,0.043-0.272,0.14c-0.08,0.159-0.075,0.361,0.047,0.498c0.602,0.672,1.382,1.229,2.276,1.377
			C10.298,12.262,10.229,12.094,10.188,12.021z"/>
		<path fill="#CE1126" d="M12.166,11.796c-0.092-0.025-0.171-0.075-0.255-0.11c-0.052-0.021-0.101,0.06-0.156,0.026
			c-0.112-0.067-0.209-0.163-0.298-0.234c-0.071-0.057-0.213-0.199-0.274-0.17c-0.023,0.011-0.058,0.143-0.116,0.099
			c-0.14-0.104-0.23-0.217-0.361-0.331c-0.06-0.053-0.116,0.119-0.192,0.083c-0.174-0.085-0.244-0.273-0.379-0.408
			c-0.156-0.155-0.306-0.336-0.521-0.394c-0.036-0.009-0.016,0.043-0.05,0.069c-0.164,0.129-0.346-0.091-0.505-0.164
			c-0.146-0.067-0.275-0.175-0.44-0.187c-0.035-0.003-0.033,0.051-0.021,0.066c0.939,1.11,2.243,1.944,3.674,1.911
			c0.033-0.001,0.102,0.003,0.046-0.066C12.271,11.932,12.222,11.812,12.166,11.796z"/>
		<path fill="#CE1126" d="M13.495,10.986c-0.042-0.006-0.106,0.051-0.143,0.044c-0.111-0.021-0.199-0.121-0.334-0.191
			c-0.056-0.029-0.084,0.102-0.128,0.099c-0.224-0.013-0.546-0.249-0.745-0.369c-0.035-0.021-0.249,0.021-0.284,0.028
			c-0.128,0.026-0.291-0.198-0.392-0.246c-0.076-0.035-0.183-0.073-0.255-0.019c-0.099,0.073-0.216,0.034-0.323,0.032
			c-0.042-0.001-0.079,0.088-0.13,0.104c-0.147,0.047-0.31-0.055-0.454,0.017c-0.004,0.002-0.023,0.032-0.022,0.043
			c0.01,0.09,0.11,0.105,0.177,0.146c1.033,0.654,2.627,0.866,3.515,0.668c0.021-0.006-0.011-0.082-0.07-0.128
			c-0.062-0.048-0.153-0.065-0.192-0.093C13.624,11.06,13.577,10.999,13.495,10.986z"/>
		<path fill="#CE1126" d="M15.573,10.033c-0.109,0.033-0.193-0.047-0.284-0.013c-0.021,0.009-0.035,0.043-0.053,0.043
			c-0.171,0.003-0.285-0.181-0.459-0.167c-0.044,0.004-0.043,0.08-0.079,0.088c-0.107,0.025-0.203-0.104-0.3-0.058
			c-0.068,0.033-0.117,0.031-0.184,0.012c-0.086-0.025-0.149-0.102-0.232-0.114c-0.072-0.012-0.146,0.061-0.228,0.037
			c-0.205-0.061-0.364-0.255-0.585-0.209c-0.108,0.023-0.202-0.051-0.277-0.006c-0.083,0.049-0.106,0.108-0.189,0.158
			c-0.057,0.034-0.189,0.029-0.248,0.065c-0.046,0.027-0.057,0.097-0.108,0.118c-0.097,0.04-0.21,0.012-0.301,0.062
			c-0.011,0.006-0.017,0.057,0.022,0.067c0.842,0.285,2.204,0.6,3.832,0.177c0.049-0.016,0.06-0.045,0.02-0.092
			C15.83,10.1,15.707,9.994,15.573,10.033z"/>
		<path fill="#CE1126" d="M17.521,8.607C17.377,8.674,17.21,8.6,17.051,8.637c-0.041,0.01-0.01,0.07-0.051,0.076
			c-0.156,0.021-0.318-0.018-0.465,0.039c-0.115,0.045-0.253-0.006-0.379-0.004C16.108,8.75,16.107,8.814,16.1,8.867
			c-0.007,0.043-0.072,0.07-0.093,0.064c-0.156-0.047-0.306-0.062-0.464-0.086c-0.398-0.059-0.792-0.186-1.166-0.074
			C14.255,8.809,14.093,8.838,14,8.934c-0.036,0.037-0.074,0.11-0.122,0.127c-0.229,0.084-0.479,0.1-0.706,0.181
			c-0.069,0.024-0.2,0.121-0.151,0.134c0,0,0.704,0.204,1.472,0.204c1.478,0,2.604-0.364,3.428-0.813
			C17.873,8.705,17.63,8.557,17.521,8.607z"/>
		<path fill="#CE1126" d="M19.143,6.989c-0.091,0.03-0.215-0.056-0.292,0.001c-0.116,0.085-0.252,0.07-0.37,0.058
			c-0.057-0.006-0.146-0.026-0.196,0.013c-0.032,0.025,0.015,0.066,0.045,0.094C18.03,7.258,17.7,7.161,17.416,7.276
			C17.395,7.285,17.382,7.389,17.33,7.4c-0.261,0.052-0.504-0.05-0.763-0.003c-0.065,0.012-0.036,0.151-0.104,0.154
			c-0.232,0.012-0.458-0.008-0.689-0.018c-0.275-0.012-0.529,0.088-0.789,0.168c-0.078,0.023-0.101,0.146-0.184,0.159
			c-0.225,0.034-0.453-0.006-0.658,0.096c-0.015,0.007-0.015,0.075,0,0.084c0.251,0.142,0.539,0.239,0.711,0.469
			c1.747-0.018,3.628-0.247,5.083-1.44c0.028-0.023-0.144-0.059-0.236-0.081c-0.091-0.021-0.165-0.021-0.275-0.057
			C19.328,6.9,19.238,6.958,19.143,6.989z"/>
		<path fill="#CE1126" d="M20.957,5.345c-0.018-0.011-0.282-0.058-0.429-0.024c-0.031,0.007-0.05,0.058-0.079,0.063
			c-0.188,0.03-0.322,0.121-0.514,0.126c-0.04,0.001-0.126,0.029-0.178,0.054c-0.07,0.033-0.165-0.048-0.22,0.013
			c-0.035,0.039,0.026,0.134-0.037,0.164c-0.168,0.079-0.363-0.062-0.526,0.044c-0.048,0.031,0.051,0.135-0.011,0.154
			c-0.235,0.074-0.643-0.292-0.796,0.088c-0.024,0.059-0.098,0.032-0.144,0.021c-0.045-0.012-0.107-0.032-0.134-0.01
			c-0.145,0.117-0.229,0.164-0.432,0.107c-0.052-0.015-0.053,0.138-0.152,0.114c-0.113-0.027-0.223-0.11-0.327-0.063
			c-0.048,0.021-0.013,0.148-0.083,0.155c-0.283,0.027-0.575-0.014-0.836,0.103c-0.064,0.028-0.07,0.145-0.16,0.159
			c-0.199,0.033-0.397,0.01-0.583,0.07c-0.029,0.009-0.023,0.098,0.022,0.104c0.119,0.018,0.254-0.001,0.346,0.054
			c0.112,0.067,0.184,0.255,0.293,0.26c2.245,0.043,3.866-0.761,4.979-1.688C21.001,5.374,20.979,5.358,20.957,5.345z"/>
		<path fill="#CE1126" d="M20.406,4.028c-0.033,0.016-0.022,0.126-0.087,0.156c-0.11,0.051-0.236,0.049-0.354,0.085
			c-0.044,0.014-0.042,0.073-0.079,0.096c-0.062,0.04-0.147,0.007-0.193,0.041c-0.284,0.208-0.621,0.115-0.936,0.167
			c0.005,0.237-0.369,0.092-0.523,0.195c-0.167,0.113-0.145,0.082-0.395,0.084c-0.077,0.001-0.035,0.115-0.098,0.117
			c-0.199,0.003-0.456-0.06-0.604-0.016c-0.027,0.008-0.035,0.133-0.088,0.147c-0.108,0.029-0.223,0.041-0.326,0.074
			c-0.08,0.025,0.024,0.177-0.083,0.211c-0.183,0.058-0.384,0.016-0.567,0.12c-0.073,0.042-0.179,0.002-0.272,0.02
			c-0.08,0.015-0.111,0.099-0.046,0.135c0.06,0.033,0.158,0.024,0.216,0.053c0.136,0.067,0.247,0.163,0.393,0.172
			c2.371,0.146,5.438-1.539,5.921-3.581c0.017-0.082-0.021-0.067-0.038-0.021C21.731,3.508,20.406,4.028,20.406,4.028z"/>
	</g>
</g>
</svg>
