<?xml version="1.0" encoding="utf-8"?>
<!-- Generator: Adobe Illustrator 16.0.4, SVG Export Plug-In . SVG Version: 6.00 Build 0)  -->
<!DOCTYPE svg PUBLIC "-//W3C//DTD SVG 1.1//EN" "http://www.w3.org/Graphics/SVG/1.1/DTD/svg11.dtd">
<svg version="1.1" id="Layer_1" xmlns="http://www.w3.org/2000/svg" xmlns:xlink="http://www.w3.org/1999/xlink" x="0px" y="0px" viewBox="0 0 24 16" enable-background="new 0 0 24 16" xml:space="preserve">
<g>
	<g id="reg" fill="#0038A8">
		<path d="M18.56,14.148c0-0.228-0.185-0.411-0.411-0.411c-0.228,0-0.411,0.184-0.411,0.411s0.184,0.412,0.411,0.412
			C18.375,14.561,18.56,14.376,18.56,14.148 M17.825,14.148c0-0.179,0.145-0.323,0.323-0.323s0.323,0.145,0.323,0.323
			s-0.145,0.323-0.323,0.323S17.825,14.327,17.825,14.148"/>
		<path d="M18.317,14.384l-0.093-0.199c0.054-0.02,0.093-0.07,0.093-0.131c0-0.077-0.063-0.14-0.14-0.14h-0.198v0.47
			h0.088v-0.191h0.063l0.089,0.191H18.317z M18.178,14.104h-0.11v-0.103h0.11c0.028,0,0.051,0.022,0.051,0.052
			C18.229,14.082,18.206,14.104,18.178,14.104"/>
	</g>
	<g>
		<path fill="#0038A8" d="M12.445,0.384c0.913,1.432,1.325,1.959,1.325,2.761c0,0.962-0.809,1.741-1.771,1.741
			s-1.771-0.779-1.771-1.741c0-0.802,0.412-1.329,1.325-2.761C7.548,0.614,4.37,3.936,4.37,8.001c0,4.214,3.416,7.63,7.63,7.63
			s7.63-3.416,7.63-7.63C19.63,3.936,16.452,0.614,12.445,0.384"/>
		<path fill="#FFFFFF" d="M12,14.936c3.83,0,6.936-3.104,6.936-6.935c0-3.214-2.186-5.917-5.151-6.704
			c0.157,0.196,0.681,0.918,0.681,1.848c0,1.344-1.105,2.437-2.465,2.437S9.535,4.488,9.535,3.145c0-0.93,0.524-1.651,0.681-1.848
			C7.25,2.084,5.065,4.787,5.065,8.001C5.065,11.831,8.17,14.936,12,14.936"/>
		<path fill="#0038A8" d="M13.443,8.832h-0.497v0.795c0,0.159-0.13,0.288-0.289,0.288s-0.288-0.129-0.288-0.288V8.614h0.577V7.863
			h-0.577V7.278c0-0.159,0.129-0.288,0.288-0.288s0.289,0.129,0.289,0.288v0.364h0.497V5.96H11.34v1.03
			c0.203,0,0.369,0.165,0.369,0.368v2.346c0,0.117-0.095,0.211-0.211,0.211v4.25c0,0.304-0.159,0.442-0.234,0.491
			c0.24,0.03,0.486,0.045,0.736,0.045c0.305,0,0.604-0.022,0.896-0.066c0,0,0.547-0.108,0.547-0.591V8.832z"/>
		<path fill="#0038A8" d="M11.34,8.832h-0.498v0.873c0,0.116-0.094,0.21-0.209,0.21c-0.117,0-0.211-0.094-0.211-0.21V7.201
			c0-0.116,0.095-0.211,0.211-0.211V5.96H9.551v1.03c0.116,0,0.211,0.095,0.211,0.211v2.503c0,0.117-0.095,0.211-0.211,0.211v3.702
			c0,0.31-0.169,0.411-0.25,0.441c0.477,0.243,0.995,0.424,1.541,0.531c0,0,0.498,0.075,0.498-0.425V8.832z"/>
		<path fill="#0038A8" d="M9.393,13.617V9.915c-0.117,0-0.211-0.094-0.211-0.211V7.201c0-0.116,0.094-0.211,0.211-0.211V5.96H8.311
			v1.03c0.117,0,0.211,0.095,0.211,0.211v2.503c0,0.117-0.094,0.211-0.211,0.211v2.521c0,0.527-0.27,0.61-0.411,0.618
			c0.334,0.325,0.709,0.611,1.119,0.85C9.018,13.904,9.393,14.047,9.393,13.617"/>
		<path fill="#0038A8" d="M17.746,7.643V6.509c0-0.302-0.246-0.549-0.548-0.549H16.55c-0.302,0-0.549,0.247-0.549,0.549v1.515
			c0,0.08,0.049,0.19,0.109,0.244l0.867,0.775c0.06,0.054,0.109,0.164,0.109,0.244v0.335c0,0.162-0.132,0.293-0.294,0.293
			c-0.163,0-0.294-0.131-0.294-0.293v-0.79h-0.498v4.317c1.076-0.999,1.745-2.397,1.745-3.945V8.98c0-0.08-0.048-0.19-0.108-0.244
			l-0.867-0.775c-0.061-0.054-0.109-0.164-0.109-0.244V7.202c0-0.117,0.096-0.212,0.213-0.212s0.213,0.095,0.213,0.212v0.44H17.746z
			"/>
		<path fill="#0038A8" d="M8.153,12.437V6.509c0-0.302-0.247-0.549-0.549-0.549H6.802c-0.302,0-0.549,0.247-0.549,0.549v2.695
			c0,1.35,0.509,2.585,1.352,3.541C7.77,12.96,8.153,13.021,8.153,12.437"/>
		<path fill="#0038A8" d="M15.632,9.704V8.477c0-0.211-0.235-0.307-0.235-0.307s0.235-0.097,0.235-0.307V6.509
			c0-0.302-0.246-0.549-0.549-0.549h-1.481l-0.001,1.03c0.117,0,0.212,0.095,0.212,0.211v2.503c0,0.117-0.095,0.211-0.212,0.211
			v4.129c0,0.214-0.086,0.375-0.202,0.493c0.389-0.094,0.763-0.223,1.116-0.388c0,0,0.254-0.123,0.254-0.585V9.915
			c-0.164,0-0.296-0.132-0.296-0.296V8.703c0-0.125,0.102-0.227,0.227-0.227s0.227,0.102,0.227,0.227v4.908
			c0,0.14-0.019,0.256-0.048,0.353c0.294-0.162,0.571-0.351,0.829-0.56c0,0,0.137-0.113,0.137-0.649v-2.84
			C15.727,9.915,15.632,9.821,15.632,9.704"/>
		<path fill="#FFFFFF" d="M7.203,6.99c-0.16,0-0.29,0.129-0.29,0.289v2.347c0,0.16,0.129,0.289,0.29,0.289s0.29-0.129,0.29-0.289
			V7.279C7.493,7.119,7.363,6.99,7.203,6.99"/>
		<path fill="#FFFFFF" d="M14.722,7.863c0.139,0,0.25-0.112,0.25-0.25V7.24c0-0.139-0.111-0.25-0.25-0.25
			c-0.138,0-0.249,0.111-0.249,0.25v0.373C14.473,7.751,14.584,7.863,14.722,7.863"/>
	<path fill="#D14414" d="M13.29,3.17c0-0.904-0.784-1.387-1.29-2.648c-0.506,1.262-1.29,1.744-1.29,2.648
		c0,0.617,0.511,1.219,1.29,1.219C12.78,4.389,13.29,3.787,13.29,3.17"/>
	</g>
</g>
</svg>
