<?xml version="1.0" encoding="utf-8"?>
<!-- Generator: Adobe Illustrator 16.0.4, SVG Export Plug-In . SVG Version: 6.00 Build 0)  -->
<!DOCTYPE svg PUBLIC "-//W3C//DTD SVG 1.1//EN" "http://www.w3.org/Graphics/SVG/1.1/DTD/svg11.dtd">
<svg version="1.1" id="Layer_1" xmlns="http://www.w3.org/2000/svg" xmlns:xlink="http://www.w3.org/1999/xlink" x="0px" y="0px" viewBox="0 0 24 16" enable-background="new 0 0 24 16" xml:space="preserve">
<g>
	<g id="reg" fill="#002654">
		<path d="M13.139,15.631c0.132,0,0.238-0.106,0.238-0.239c0-0.131-0.106-0.238-0.238-0.238
			s-0.239,0.107-0.239,0.238C12.899,15.524,13.007,15.631,13.139,15.631 M13.139,15.204c0.104,0,0.188,0.084,0.188,0.188
			c0,0.104-0.084,0.188-0.188,0.188s-0.188-0.084-0.188-0.188C12.951,15.288,13.035,15.204,13.139,15.204"/>
		<path d="M13.092,15.418h0.036l0.053,0.11h0.056l-0.054-0.115c0.031-0.012,0.054-0.041,0.054-0.076
			c0-0.045-0.036-0.081-0.081-0.081H13.04v0.272h0.052V15.418z M13.092,15.307h0.063c0.017,0,0.03,0.014,0.03,0.03
			s-0.014,0.029-0.03,0.029h-0.063V15.307z"/>
	</g>
	<g>
		<path fill="#002654" d="M19.708,7.759c-0.015-0.051-0.067-0.105-0.117-0.121l-0.3-0.095l0.121-0.211
			c0.026-0.046,0.03-0.122,0.008-0.169l-0.238-0.505c-0.019-0.04-0.068-0.081-0.11-0.093l-0.457-0.12l0.081-0.185
			c0.018-0.04,0.008-0.101-0.021-0.133l-0.429-0.49c-0.029-0.033-0.089-0.062-0.133-0.064l-0.468-0.025l0.049-0.156
			c0.013-0.042-0.004-0.099-0.039-0.125l-0.549-0.432c-0.055-0.043-0.157-0.069-0.227-0.06l-0.595,0.091
			c-0.035,0.006-0.072,0.037-0.083,0.07l-0.189,0.599c-0.293-0.403-0.621-0.349-0.684-0.334c-0.018-0.118-0.072-0.266-0.212-0.408
			l0.304-0.042l0.025-0.113l-0.436,0.061c-0.047-0.035-0.099-0.071-0.159-0.104l0.176-0.195c-0.035-0.042-0.065-0.09-0.092-0.139
			l0.63-0.156l0.026-0.115l-0.703,0.175c-0.052-0.118-0.077-0.218-0.077-0.218l0.375,0.071c-0.086-0.085-0.12-0.247-0.129-0.423
			l0.682-0.266l0.028-0.125L15.055,3.48c0.003-0.319,0.072-0.646,0.072-0.646l-0.109-0.085l0.771-1.66l-1.183,0.034L13.734,1
			c0,0-0.478-0.296-1.439-0.45L12,0.273L11.707,0.55C10.744,0.704,10.266,1,10.266,1L9.394,1.123L8.211,1.089l0.771,1.66
			L8.874,2.834c0,0,0.069,0.327,0.071,0.646L8.233,3.203l0.028,0.125l0.682,0.266C8.935,3.77,8.9,3.931,8.814,4.017l0.375-0.071
			c0,0-0.026,0.1-0.078,0.218L8.409,3.988l0.026,0.115l0.63,0.156C9.039,4.309,9.008,4.357,8.974,4.399l0.175,0.195
			c-0.06,0.033-0.111,0.069-0.157,0.105L8.554,4.638L8.58,4.751l0.304,0.042c-0.313,0.32-0.199,0.661-0.199,0.661
			c-0.398,0.031-0.625,0.31-0.625,0.31L7.798,4.937C7.787,4.903,7.75,4.872,7.716,4.866L7.12,4.775
			c-0.069-0.01-0.171,0.017-0.226,0.06L6.345,5.267C6.311,5.293,6.293,5.35,6.306,5.392l0.049,0.156L5.887,5.573
			C5.843,5.575,5.784,5.604,5.755,5.638l-0.429,0.49C5.297,6.16,5.288,6.221,5.305,6.261l0.082,0.185L4.93,6.565
			C4.887,6.577,4.838,6.618,4.819,6.658L4.581,7.163C4.559,7.21,4.562,7.286,4.588,7.332L4.71,7.543l-0.3,0.095
			c-0.05,0.016-0.103,0.07-0.117,0.121l-0.13,0.463C4.156,8.247,4.161,8.286,4.174,8.309l0.598,1.028c0,0,0.077,0.099,0.428,0.123
			c0.39,0.45,0.985,0.533,0.985,0.533s-0.302-0.325-0.457-0.69c0.119-0.011,0.519-0.042,0.705-0.042
			c0.222,0,0.382,0.144,1.047-0.019l0.218,0.029c0.325,0.454,0.959,0.406,1.772,0.84V9.986l0.13,0.025c0,0,0.414,0.524,0.7,1.059
			c0,0-0.106,1.368,0.469,1.771c0,0,0.062,0.061,0.008,0.239c-0.061,0.191-0.068,0.364-0.149,0.47s-0.099,0.377,0.043,0.493
			c0,0-0.002,0.065,0.058,0.108c0,0,0.027-0.054,0.033-0.087c0,0,0.025-0.001,0.047-0.008c0,0,0.021,0.037,0.098,0.063
			c0,0,0.004,0.062,0.057,0.101c0,0,0.026-0.056,0.033-0.086c0,0,0.08,0.006,0.133-0.058c0,0,0.014,0.008,0.041,0.013
			c0,0,0.01,0.051,0.059,0.103c0,0,0.029-0.055,0.036-0.096c0,0,0.075-0.002,0.115-0.056c0,0,0.011,0.002,0.024,0.001
			c0,0,0.014,0.048,0.057,0.095c0,0,0.033-0.068,0.044-0.118c0,0,0.114-0.034,0.114-0.121s-0.057-0.346-0.057-0.346l0.068,0.096
			c0,0,0.06-0.15-0.096-0.332c-0.039-0.291-0.142-0.477-0.142-0.477s0.093-0.093,0.112-0.134c0,0,0.113,0.518,0.385,1l-0.122,0.622
			c0,0-0.092,0.131-0.179,0.324c0,0-0.188,0.102-0.182,0.312l0.086-0.079c0,0-0.119,0.279,0.01,0.428c0,0-0.018,0.104,0.059,0.17
			c0,0,0.021-0.054,0.033-0.093c0,0,0.025,0.007,0.041-0.009c0,0,0.055,0.065,0.107,0.096c0,0,0,0.089,0.061,0.139
			c0,0,0.024-0.058,0.034-0.103c0,0,0.042,0.008,0.074-0.024c0,0,0.042,0.026,0.083,0.035c0,0,0.002,0.052,0.058,0.107
			c0,0,0.026-0.062,0.034-0.101c0,0,0.075-0.004,0.102-0.045l0.049,0.003c0,0,0.01,0.062,0.057,0.104c0,0,0.027-0.06,0.036-0.114
			c0,0,0.168-0.024,0.168-0.213c0-0.392,0.052-0.682,0.052-0.754c0,0,0.271,0.22,0.603,0.22c0.631,0,1.356-0.508,1.356-1.67
			c0-0.163,0.023-0.366,0.023-0.366l-0.053,0.042l0.037-0.35l-0.062,0.048l-0.032-0.271l-0.063,0.036l-0.045-0.191l-0.056,0.028
			l-0.058-0.18l-0.049,0.038l-0.072-0.199l-0.078,0.115l-0.099-0.151l-0.036,0.234l-0.074-0.038l-0.009,0.245l-0.083-0.031
			l0.004,0.227l-0.065-0.016l0.102,0.308l-0.066-0.003l0.101,0.206c0,0,0.104,0.314,0.104,0.729c0,0.468-0.311,0.759-0.689,0.759
			c-0.323,0-0.615-0.34-0.615-0.34s0.013-0.354,0.107-0.507c0.096-0.152,0.448-0.68,0.511-0.953s0.351-0.433,0.303-1.577
			l0.599-0.839l0.236-0.013v0.09c0.812-0.433,1.645-0.416,1.97-0.87l0.219-0.029c0.665,0.162,0.825,0.019,1.047,0.019
			c0.187,0,0.586,0.031,0.705,0.042c-0.155,0.365-0.457,0.69-0.457,0.69s0.596-0.083,0.985-0.533
			c0.351-0.024,0.427-0.123,0.427-0.123l0.599-1.028c0.014-0.022,0.019-0.062,0.012-0.087L19.708,7.759z"/>
	</g>
	<g>
		<path fill="#FFFFFF" d="M11.759,12.261c0,0,0.069,0.356,0.186,0.626c0,0-0.007-0.434-0.028-0.897L11.759,12.261z"/>
		<path fill="#FFFFFF" d="M10.84,3.944l0.19,0.21c0,0-0.048,0.037-0.104,0.1l0.123,0.048c0.021-0.019,0.045-0.027,0.064-0.019
			c0.033,0.014,0.042,0.068,0.02,0.122c-0.021,0.054-0.066,0.086-0.1,0.072c-0.024-0.01-0.035-0.042-0.031-0.079l-0.145-0.056
			c-0.044,0.065-0.082,0.144-0.098,0.231l0.293,0.072c0.012-0.017,0.027-0.027,0.044-0.027c0.036,0,0.065,0.047,0.065,0.104
			c0,0.059-0.029,0.105-0.065,0.105c-0.03,0-0.056-0.033-0.063-0.079l-0.276-0.068c0.005,0.105,0.027,0.197,0.067,0.273l0.25,0.035
			c0.004-0.017,0.014-0.029,0.027-0.034c0.033-0.015,0.078,0.017,0.102,0.069c0.022,0.054,0.014,0.108-0.019,0.122
			c-0.027,0.013-0.063-0.008-0.087-0.045l-0.181-0.025c0.097,0.089,0.231,0.139,0.403,0.139c0.363,0,0.602-0.164,0.602-0.164
			L11.92,4.975c-0.326-0.271-0.543-0.602-0.543-0.602l-0.482-0.473L10.84,3.944z"/>
		<path fill="#FFFFFF" d="M11.229,5.381c0.072,0.489,0.258,0.641,0.258,0.641s-0.042-0.165,0.043-0.641
			C11.465,5.316,11.248,5.325,11.229,5.381"/>
		<path fill="#FFFFFF" d="M11.809,5.395c0-0.04-0.15-0.089-0.154-0.049c-0.016,0.174,0.061,0.301,0.061,0.301
			S11.809,5.483,11.809,5.395"/>
		<path fill="#FFFFFF" d="M11.84,5.387c0,0.088,0.064,0.215,0.064,0.215s0.068-0.071,0.068-0.221
			C11.973,5.344,11.84,5.342,11.84,5.387"/>
		<path fill="#FFFFFF" d="M13.084,5.076l-0.181,0.025c-0.024,0.037-0.06,0.057-0.087,0.045c-0.033-0.014-0.041-0.068-0.018-0.122
			c0.022-0.053,0.067-0.084,0.101-0.07c0.014,0.006,0.022,0.019,0.027,0.035l0.249-0.035c0.041-0.076,0.063-0.168,0.068-0.273
			l-0.277,0.068c-0.007,0.046-0.032,0.079-0.062,0.079c-0.036,0-0.065-0.047-0.065-0.105c0-0.058,0.029-0.104,0.065-0.104
			c0.017,0,0.032,0.011,0.043,0.027l0.293-0.072c-0.015-0.088-0.053-0.167-0.098-0.231l-0.144,0.056
			c0.004,0.037-0.007,0.069-0.031,0.079c-0.033,0.014-0.078-0.019-0.101-0.072c-0.021-0.053-0.013-0.108,0.02-0.122
			c0.021-0.008,0.044,0,0.064,0.019l0.123-0.048c-0.056-0.063-0.104-0.1-0.104-0.1l0.19-0.211l-0.056-0.044l-0.481,0.473
			c0,0-0.218,0.332-0.543,0.602l-0.003,0.076c0,0,0.24,0.164,0.603,0.164C12.852,5.215,12.987,5.166,13.084,5.076"/>
		<path fill="#FFFFFF" d="M12.472,5.381c0.085,0.476,0.042,0.641,0.042,0.641s0.186-0.151,0.258-0.641
			C12.753,5.325,12.537,5.316,12.472,5.381"/>
		<path fill="#FFFFFF" d="M12.347,5.346c-0.005-0.04-0.155,0.009-0.155,0.049c0,0.089,0.094,0.252,0.094,0.252
			S12.363,5.52,12.347,5.346"/>
		<path fill="#FFFFFF" d="M12.162,5.387c0-0.045-0.134-0.043-0.134-0.006c0,0.149,0.067,0.221,0.067,0.221
			S12.162,5.475,12.162,5.387"/>
		<path fill="#FFFFFF" d="M10.235,4.442L9.237,4.194C9.223,4.226,9.208,4.258,9.191,4.292l1.025,0.255
			C10.221,4.511,10.227,4.477,10.235,4.442"/>
		<path fill="#FFFFFF" d="M10.23,4.871L9.475,4.767l0.114,0.125l0.676,0.094C10.251,4.951,10.239,4.912,10.23,4.871"/>
		<path fill="#FFFFFF" d="M10.402,4.049L9.067,3.528c0,0.039,0,0.077,0,0.114l1.282,0.501C10.366,4.11,10.384,4.079,10.402,4.049"/>
		<path fill="#FFFFFF" d="M9.16,2.617l-0.184-0.32l0.231,0.033L8.961,2.053l0.071-0.099l0.522,0.229L9.605,2.11
			c0,0-0.567-0.243-1.117-0.696l0.596,1.258L9.16,2.617z"/>
		<path fill="#FFFFFF" d="M15.024,2.297l-0.184,0.32l0.075,0.055l0.596-1.258c-0.55,0.454-1.116,0.696-1.116,0.696l0.05,0.073
			l0.522-0.229l0.071,0.099l-0.246,0.278L15.024,2.297z"/>
		<path fill="#FFFFFF" d="M11.032,3.182c0.099,0.008,0.188-0.023,0.25-0.079l-0.021-0.081c-0.041,0.069-0.129,0.112-0.225,0.104
			c-0.129-0.011-0.225-0.109-0.216-0.22c0.003-0.03,0.013-0.058,0.028-0.082l-0.072-0.016c-0.016,0.028-0.025,0.059-0.028,0.092
			C10.737,3.042,10.864,3.168,11.032,3.182"/>
		<path fill="#FFFFFF" d="M13.251,2.9c-0.002-0.033-0.013-0.064-0.028-0.092L13.15,2.824c0.016,0.024,0.026,0.052,0.029,0.082
			c0.009,0.111-0.088,0.209-0.216,0.22c-0.097,0.008-0.184-0.036-0.226-0.104l-0.02,0.081c0.061,0.056,0.151,0.087,0.249,0.079
			C13.137,3.168,13.264,3.042,13.251,2.9"/>
		<path fill="#FFFFFF" d="M16.202,6.692c0.17,0.442-0.053,1.129-0.053,1.129s0.772-0.594,0.617-1.631
			C16.312,6.347,16.202,6.692,16.202,6.692"/>
		<path fill="#FFFFFF" d="M17.71,6.918c-0.476,0.167-0.6,0.425-0.6,0.425c0.086,0.61-0.197,1.07-0.197,1.07
			S17.818,7.946,17.71,6.918"/>
		<path fill="#FFFFFF" d="M17.96,8.021c0.028,0.584-0.291,1.087-0.291,1.087s0.893-0.38,0.937-1.432
			C18.148,7.748,17.96,8.021,17.96,8.021"/>
		<path fill="#FFFFFF" d="M14.973,7.715c0,0.662,0.234,0.896,0.234,0.896s-0.061-0.452,0.27-1.223
			C14.986,7.389,14.973,7.646,14.973,7.715"/>
		<path fill="#FFFFFF" d="M18.452,8.947c-0.019,0.396-0.316,0.791-0.386,0.877c0.661-0.198,0.953-0.802,0.967-1.11
			C18.832,8.716,18.505,8.865,18.452,8.947"/>
		<path fill="#FFFFFF" d="M7.798,6.692c0,0-0.11-0.346-0.564-0.502C7.079,7.228,7.851,7.821,7.851,7.821S7.628,7.135,7.798,6.692"/>
		<path fill="#FFFFFF" d="M6.89,7.343c0,0-0.124-0.258-0.599-0.425C6.182,7.946,7.087,8.413,7.087,8.413S6.805,7.953,6.89,7.343"/>
		<path fill="#FFFFFF" d="M6.041,8.021c0,0-0.188-0.273-0.646-0.345c0.044,1.052,0.937,1.432,0.937,1.432S6.012,8.605,6.041,8.021"
			/>
		<path fill="#FFFFFF" d="M8.524,7.389c0.33,0.771,0.27,1.223,0.27,1.223s0.235-0.234,0.235-0.896
			C9.028,7.646,9.014,7.389,8.524,7.389"/>
		<path fill="#FFFFFF" d="M4.967,8.714c0.014,0.309,0.305,0.912,0.967,1.11c-0.069-0.086-0.368-0.48-0.386-0.877
			C5.496,8.865,5.168,8.716,4.967,8.714"/>
	</g>
	<g>
		<path fill="#BF910C" d="M15.414,5.487l-1.45,1.153l0.078-0.234l1.092-1.138c0,0-0.049-0.301-0.328-0.432l-0.199,0.027l-1.13,1.244
			c-0.208,1.036-0.429,1.398-0.617,1.523l-0.018-0.126c0,0-0.159,0.261-0.293,0.378l-0.076-0.181l-0.211,0.286l-0.083-0.187L12,8.09
			l-0.178-0.287l-0.084,0.187l-0.211-0.286l-0.074,0.181c-0.135-0.117-0.295-0.378-0.295-0.378l-0.017,0.126
			c-0.188-0.125-0.409-0.487-0.617-1.523l-1.13-1.244l0.003,0.077l1.013,1.325l0.164,0.389L9.351,5.701L9.257,5.873l0.935,1.324
			L9.133,6.34L9.039,6.469l0.459,0.593l-0.17,0.006l0.272,0.378L9.47,7.457l0.435,0.754L9.709,7.232l0.839,1.611l0.088-0.319
			l0.413,0.844l0.108-0.25l0.438,0.732l0.078-0.233L12,10.152l0.327-0.535l0.078,0.233l0.437-0.732l0.109,0.25l0.413-0.844
			l0.088,0.319l0.839-1.611l-0.194,0.979l0.435-0.754L14.4,7.445l0.272-0.378l-0.17-0.006l0.607-0.559l0.475,0.16l0.254-0.856
			L15.414,5.487z"/>
		<polygon fill="#BF910C" points="10.173,1.302 9.66,1.787 9.831,1.848 		"/>
		<path fill="#BF910C" d="M14.866,4.391c-0.021-0.033-0.039-0.067-0.057-0.1L13.607,4.59c0.003,0.028,0.005,0.058,0.005,0.087
			c0,0.083-0.011,0.155-0.029,0.221l0.943-0.131L14.866,4.391z"/>
		<path fill="#BF910C" d="M14.934,3.642L13.46,4.218c0.054,0.075,0.101,0.164,0.128,0.269l1.176-0.292
			c-0.097-0.223-0.114-0.407-0.114-0.407l0.309,0.059C14.943,3.792,14.937,3.721,14.934,3.642"/>
		<path fill="#BF910C" d="M9.927,2.479l1.446,0.32l0.098,0.272l0.203,0.031l-0.279,0.201l0.403,0.274l-0.023,0.039L11.471,3.5
			l-0.109,0.117l0.343,0.265l-0.03,0.039l-0.25-0.117l-0.25,0.218l0.133,0.085L12,4.357l0.693-0.25l0.195-0.148l-0.203-0.187
			L12.327,3.92l-0.03-0.039l0.412-0.304l-0.101-0.102l-0.382,0.141l-0.023-0.039l0.404-0.274l-0.28-0.201l0.203-0.031l0.097-0.272
			l1.306-0.289v0.094l-0.312,0.14l-0.187,0.405l-0.702,0.229l0.203,0.208l-0.117,0.086l0.287,0.228l0.056,0.044v0
			c0,0,0.115,0.063,0.229,0.187l1.544-0.603c0.006-0.297,0.058-0.641,0.058-0.641l-0.313-0.235l0.111-0.195l-0.313,0.045l0.283-0.32
			l-0.356,0.157l-0.81-1.272c-0.603-0.299-1.356-0.399-1.356-0.399L12,0.445l-0.152,0.144l0.121-0.027l0.203,0.203
			c0.519,0.101,0.67,0.218,0.67,0.218s-0.304-0.028-0.498-0.028C12.085,0.955,12,0.989,12,1.03v0.211
			c0,0.122,0.094,0.208,0.094,0.208l-0.141,0.312l0.141,0.188L12.062,2.97l0.109,0.125L12,3.389l-0.171-0.295l0.109-0.125
			L11.86,1.996l-0.219-0.187l0.188-0.312l-0.172-0.312l-0.28,0.328l0.078,0.109l-0.156,0.577l0.266,0.437l-0.07,0.085l-0.219-0.242
			l-1.192-0.093l-0.039-0.132l0.255-0.21l-0.083-0.105L9.857,2.19L9.927,2.479z"/>
		<path fill="#BF910C" d="M10.208,4.675c0,0.072,0.008,0.138,0.022,0.196l0.187,0.026c-0.018-0.065-0.028-0.138-0.028-0.221
			c0-0.03,0.001-0.059,0.005-0.087l-0.177-0.043C10.21,4.588,10.208,4.631,10.208,4.675"/>
		<path fill="#BF910C" d="M9.748,3.578L9.631,3.157l0.397-0.397l0.257,0.156l0.218,0.554l0.25,0.085v0.094
			c0,0-0.195,0.152-0.352,0.401l0.209,0.082c0.113-0.125,0.229-0.187,0.229-0.187l0.055-0.044l0.287-0.228l-0.117-0.086l0.203-0.208
			l-0.701-0.229l-0.187-0.405l-0.312-0.14L9.912,2.596L9.437,3.102l0.218,0.437L9.748,3.578z"/>
		<path fill="#BF910C" d="M10.541,4.218l-0.192-0.075c-0.048,0.09-0.089,0.19-0.114,0.299l0.178,0.044
			C10.439,4.382,10.487,4.292,10.541,4.218"/>
		<path fill="#BF910C" d="M16.107,6.694C16.259,6.196,16.84,6.07,16.84,6.07c0.069,0.357,0.04,0.665-0.04,0.926
			c0.092-0.029,0.156-0.071,0.156-0.071l0.592-1.549l-0.491-0.407l-0.396,0.062L16.47,5.634l0.064,0.148c0,0,0.2-0.012,0.392,0.031
			c0,0,0.042,0.274,0,0.444c0,0-0.029-0.218-0.074-0.317c-0.339,0.032-0.809,0.48-0.809,0.715c0,0.135,0.083,0.235,0.124,0.276
			C16.156,6.849,16.138,6.768,16.107,6.694"/>
		<path fill="#BF910C" d="M17.535,6.498c0,0,0.164-0.015,0.394,0.057c0,0,0.009,0.308-0.031,0.442c0,0-0.02-0.196-0.055-0.322
			c-0.318-0.013-0.798,0.326-0.801,0.61c0.195-0.357,0.745-0.489,0.745-0.489c0.047,0.296,0.021,0.549-0.048,0.765
			c0.057-0.002,0.145-0.02,0.145-0.02l0.687-1.335l-0.409-0.451l-0.388,0.033l-0.276,0.617L17.535,6.498z"/>
		<path fill="#BF910C" d="M18.502,7.218c0,0,0.253,0.047,0.393,0.107c0,0-0.034,0.252-0.096,0.435c0,0-0.012-0.201-0.034-0.34
			c-0.245-0.057-0.931,0.289-0.931,0.556c0,0.082,0.021,0.136,0.034,0.162c0.003-0.047,0.003-0.094,0.001-0.143
			c0.25-0.384,0.831-0.424,0.831-0.424c0,0.307-0.062,0.562-0.157,0.774c0.081-0.001,0.148-0.038,0.148-0.038l0.596-1.047
			l-0.222-0.496l-0.392-0.037l-0.186,0.389L18.502,7.218z"/>
		<path fill="#BF910C" d="M19.236,7.803L19,8.187l0.008,0.103c0,0,0.136,0.025,0.323,0.105c0,0-0.045,0.262-0.149,0.429
			c0,0,0.038-0.151-0.009-0.298c-0.451-0.082-0.846,0.312-0.846,0.408c0,0.044,0.016,0.081,0.025,0.101
			c0.007-0.038,0.011-0.077,0.011-0.115c0.297-0.322,0.764-0.296,0.764-0.296c-0.018,0.289-0.104,0.518-0.224,0.699
			c0.155-0.022,0.197-0.055,0.197-0.055l0.59-1.013l-0.11-0.396L19.236,7.803z"/>
		<path fill="#BF910C" d="M15.536,8.479l-0.063-0.142c0,0-0.082,0.027-0.167,0.003c-0.032,0.338,0.026,0.521,0.026,0.521
			s-0.338-0.187-0.428-0.823l-0.042-0.027l-0.092-0.155l-0.228,0.258l0.144-0.021L13.924,8.96l0.14,0.374l0.177,0.244l0.329-0.159
			l-0.218-0.218l0.513,0.062l-0.218-0.279l0.559,0.165l0.351-0.133L15.4,8.901l0.283,0.011l-0.111-0.171l0.371,0.093L15.536,8.479z"
			/>
		<path fill="#BF910C" d="M7.713,6.23c0,0-0.284-0.268-0.572-0.307c0,0-0.282,0.463,0.037,0.994C7.116,6.675,7.098,6.392,7.161,6.07
			c0,0,0.58,0.126,0.732,0.624c-0.03,0.072-0.048,0.151-0.059,0.232c0.265-0.169,0.327-0.414,0.327-0.414L7.75,5.186L7.064,5.117
			L6.936,5.194L7.143,5.7C7.143,5.7,7.504,5.824,7.713,6.23"/>
		<path fill="#BF910C" d="M6.714,6.87c0,0-0.353-0.23-0.575-0.214c0,0-0.15,0.477,0.108,0.856C6.19,7.307,6.17,7.069,6.213,6.796
			c0,0,0.579,0.139,0.761,0.518c0.082-0.095,0.103-0.222,0.103-0.222c-0.13-0.047-0.17-0.117-0.17-0.117L6.468,5.847L5.945,5.87
			L5.856,5.994l0.205,0.459C6.061,6.453,6.423,6.508,6.714,6.87"/>
		<path fill="#BF910C" d="M5.839,7.611c0,0-0.337-0.188-0.587-0.188c0,0-0.109,0.492,0.167,0.827
			C5.347,8.059,5.301,7.834,5.301,7.571c0,0,0.581,0.04,0.831,0.424c-0.002,0.046-0.002,0.092,0,0.137
			C6.164,8.101,6.218,8.04,6.218,7.986c0-0.121-0.028-0.304-0.028-0.304C6.041,7.67,6.005,7.628,6.005,7.628L5.519,6.712L5.044,6.83
			L4.988,6.947l0.187,0.312C5.175,7.259,5.517,7.265,5.839,7.611"/>
		<path fill="#BF910C" d="M5.637,8.919c0,0.053,0.007,0.106,0.019,0.16c0.019-0.014,0.049-0.044,0.049-0.098
			c0-0.035-0.016-0.195-0.024-0.271C5.626,8.642,5.573,8.564,5.525,8.48C5.25,8.472,5.182,8.377,5.182,8.377L4.841,7.771l-0.289,0.1
			L4.507,7.99l0.208,0.332c0,0,0.418,0.028,0.661,0.285c0,0-0.235-0.101-0.571-0.101c-0.04,0.21,0.103,0.715,0.293,0.817
			c-0.12-0.182-0.207-0.411-0.225-0.701C4.874,8.623,5.34,8.597,5.637,8.919"/>
		<path fill="#BF910C" d="M9.458,8.114L9.23,7.856L9.138,8.012L9.096,8.039c-0.09,0.637-0.427,0.823-0.427,0.823
			s0.06-0.188,0.024-0.534L8.087,8.977L8.614,8.94L8.486,9.132l0.472-0.062L8.802,9.271l0.576,0.233l0.321-0.28l0.218-0.456
			L9.314,8.093L9.458,8.114z"/>
		<polygon fill="#BF910C" points="12.949,9.699 12.408,10.365 12.326,10.163 12,10.561 11.751,10.163 11.659,10.365 11.084,9.699 
			11.416,10.296 10.913,9.943 11.428,10.556 11.044,10.379 11.525,10.901 11.268,10.849 11.697,11.367 11.58,11.355 12,11.877 
			12.42,11.355 12.303,11.367 12.732,10.849 12.475,10.901 13.625,9.344 13.01,9.903 		"/>
		<polygon fill="#BF910C" points="11.207,13.255 11.271,13.533 10.695,13.796 10.694,13.873 10.803,13.912 10.878,13.82 
			10.91,13.943 11.044,13.962 11.096,13.839 11.158,13.925 11.303,13.9 11.309,13.761 11.402,13.848 11.506,13.788 11.315,13.121 		
			"/>
		<polygon fill="#BF910C" points="12.234,14.869 11.608,15.089 11.609,15.157 11.691,15.224 11.777,15.125 11.788,15.276 
			11.914,15.292 11.979,15.167 12.02,15.296 12.154,15.286 12.187,15.167 12.265,15.255 12.369,15.203 12.375,14.23 12.213,14.468 
					"/>
		<path fill="#BF910C" d="M7.347,6.316L7.28,6.277c-0.031,0.404,0.083,1,0.409,1.311C7.502,7.309,7.378,7.108,7.347,6.316"/>
		<path fill="#BF910C" d="M6.332,7.01c0.017,0.405,0.246,0.979,0.606,1.249C6.72,8.003,6.524,7.821,6.4,7.038L6.332,7.01z"/>
		<path fill="#BF910C" d="M5.541,7.77L5.469,7.753c0.06,0.401,0.324,0.992,0.711,1.223C5.937,8.744,5.748,8.536,5.541,7.77"/>
		<path fill="#BF910C" d="M8.987,7.689L8.914,7.597c0.031,0.133-0.029,0.753-0.082,0.89C8.958,8.161,8.994,7.8,8.987,7.689"/>
		<path fill="#BF910C" d="M5.09,8.796L5.02,8.782c0.12,0.366,0.385,0.803,0.785,0.956C5.539,9.561,5.406,9.48,5.09,8.796"/>
		<path fill="#BF910C" d="M16.363,6.574l-0.056,0.062c0.031,0.497,0.051,0.738-0.099,1.039C16.493,7.326,16.386,6.729,16.363,6.574"
			/>
		<path fill="#BF910C" d="M17.271,7.242l-0.062,0.055c-0.029,0.498-0.045,0.718-0.23,0.999C17.304,7.983,17.274,7.399,17.271,7.242"
			/>
		<path fill="#BF910C" d="M17.754,9.012c0.345-0.289,0.352-0.896,0.358-1.052l-0.065,0.05C17.983,8.505,17.957,8.745,17.754,9.012"
			/>
		<path fill="#BF910C" d="M15.015,7.689c-0.007,0.109,0.028,0.471,0.156,0.796c-0.054-0.136-0.113-0.756-0.083-0.889L15.015,7.689z"
			/>
		<path fill="#BF910C" d="M18.12,9.775c0.358-0.19,0.479-0.723,0.514-0.859l-0.066,0.032C18.418,9.372,18.35,9.578,18.12,9.775"/>
		<path fill="#BF910C" d="M16.72,8.571c0.085-0.122,0.252-0.408,0.302-0.792c0.012-0.094,0.017-0.191,0.012-0.296
			c-0.178-0.11-0.228-0.35-0.228-0.35c-0.021,0.008-0.041,0.015-0.062,0.021c-0.053,0.127-0.116,0.24-0.184,0.341
			c-0.236,0.348-0.524,0.535-0.576,0.567c-0.005,0.004-0.009,0.006-0.009,0.006s0.001-0.003,0.003-0.008
			C16,8.006,16.124,7.673,16.165,7.312c0.008-0.074,0.013-0.149,0.012-0.224c-0.131-0.078-0.239-0.192-0.333-0.307l-0.145,0.329
			l-0.457-0.147l-0.313,0.253l-0.117,0.465l0.073,0.125c-0.001-0.03-0.003-0.06-0.003-0.092c0-0.278,0.229-0.443,0.731-0.416
			c-0.169,0.36-0.252,0.663-0.29,0.905l0.032,0.026l0.212-0.037l0.094,0.21l0.737,0.643c0.191,0.167,0.724,0.146,0.724,0.146
			l0.264-0.077l0.154-0.193l0.112,0.019c0.027-0.057,0.059-0.126,0.088-0.205c0.038-0.102,0.073-0.218,0.099-0.345l-0.023-0.13
			c-0.117-0.132-0.166-0.138-0.156-0.5c-0.078,0.159-0.178,0.293-0.284,0.405c-0.238,0.249-0.509,0.389-0.634,0.445
			C16.696,8.63,16.67,8.64,16.67,8.64S16.689,8.615,16.72,8.571"/>
		<path fill="#BF910C" d="M7.281,8.572c0.029,0.043,0.05,0.067,0.05,0.067S7.304,8.63,7.26,8.61
			C7.134,8.554,6.864,8.414,6.626,8.165C6.519,8.053,6.419,7.919,6.342,7.76c0.009,0.362-0.04,0.368-0.157,0.5L6.162,8.39
			C6.187,8.517,6.223,8.633,6.26,8.734c0.03,0.079,0.061,0.148,0.088,0.205L6.46,8.922h0.001l0.153,0.192l0.264,0.077
			c0,0,0.532,0.021,0.723-0.146L8.34,8.403l0.094-0.21L8.645,8.23l0.032-0.026C8.639,7.962,8.556,7.659,8.388,7.299
			c0.502-0.026,0.73,0.138,0.73,0.416c0,0.032-0.001,0.062-0.002,0.092l0.073-0.125L9.072,7.217L8.758,6.964L8.301,7.111
			L8.156,6.782C8.063,6.896,7.955,7.011,7.824,7.089c0,0.074,0.004,0.149,0.012,0.224c0.041,0.36,0.165,0.693,0.186,0.748
			c0.002,0.005,0.003,0.008,0.003,0.008S8.021,8.066,8.016,8.062C7.964,8.03,7.676,7.843,7.44,7.495
			C7.373,7.395,7.309,7.281,7.257,7.154C7.236,7.148,7.216,7.142,7.195,7.134c0,0-0.049,0.239-0.228,0.35
			c-0.005,0.104,0,0.202,0.012,0.296C7.029,8.163,7.196,8.449,7.281,8.572"/>
		<g>
			<polygon fill="none" points="11.145,12.289 11.309,12.396 11.309,12.396 			"/>
			<path fill="#BF910C" d="M11.377,11.732l-0.273-0.354l0.062,0.357l-0.193-0.091l0.166,0.309l-0.212-0.071l0.173,0.302
				l-0.151-0.051l0.244,0.691l0.087,0.015l0.13-0.197l0.161-0.562L11.377,11.732z"/>
		</g>
		<path fill="#BF910C" d="M13.107,10.958l-0.691,0.851l0.157,0.263h-0.198l0.132,0.27l-0.165,0.007l0.222,0.453l-0.087,0.05
			l-0.211,0.699l0.125,0.042l0.592-1.068C12.982,12.523,13.212,11.213,13.107,10.958"/>
		<path fill="#BF910C" d="M14.285,13.75l-0.024-0.204l-0.062,0.313l-0.074-0.253l-0.017,0.406l-0.054-0.155l-0.028,0.202
			c-0.066,0.12-0.144,0.215-0.227,0.289c-0.35,0.315-0.782,0.267-0.782,0.267l0.086,0.053c0.231,0.026,0.512-0.055,0.757-0.251
			c0.235-0.188,0.438-0.484,0.53-0.896L14.285,13.75z"/>
		<path fill="#BF910C" d="M13.54,5.013c-0.19,0.385-0.692,0.399-0.692,0.399L12.823,5.54c0,0-0.058,0.497-0.468,0.687
			c0,0,0.153-0.258,0.058-0.712c0,0-0.015,0.157-0.152,0.295l-0.078-0.201c0,0-0.03,0.063-0.079,0.112c0,0-0.078-0.068-0.104-0.12
			c-0.025,0.052-0.103,0.12-0.103,0.12c-0.05-0.049-0.079-0.112-0.079-0.112L11.74,5.81c-0.139-0.138-0.152-0.295-0.152-0.295
			c-0.096,0.454,0.057,0.712,0.057,0.712c-0.41-0.189-0.467-0.687-0.467-0.687l-0.023-0.128c0,0-0.504-0.015-0.694-0.399
			l-0.196-0.027c0.065,0.168,0.162,0.26,0.162,0.26c0.104,0.293,0.367,0.452,0.367,0.452l0.236,0.748l-0.05,0.117l-0.163-0.289
			L10.777,6.43l-0.095-0.17c0.105,0.475,0.247,0.925,0.392,1.121l0.102-0.146c0,0,0.09,0.274,0.235,0.42l0.143-0.163l0.153,0.261
			l0.127-0.189L12,7.844l0.167-0.281l0.128,0.189l0.152-0.261l0.143,0.163c0.145-0.146,0.234-0.42,0.234-0.42l0.102,0.146
			c0.145-0.196,0.287-0.646,0.393-1.121l0.042-0.21l1.052-1.158L13.54,5.013z"/>
	</g>
	<g>
		<polygon fill="#002654" points="12.506,2.72 12.725,2.479 13.325,2.354 13.1,2.166 12.624,1.512 12.546,1.621 12.701,2.198 
			12.437,2.635 		"/>
		<polygon fill="#002654" points="14.19,3.718 14.284,3.679 14.564,3.102 14.245,2.666 14.065,2.767 14.369,3.157 		"/>
		<path fill="#002654" d="M13.224,6.43l-0.039-0.156l-0.163,0.289l-0.062-0.148l-0.148,0.18l0.327-0.936l0.156-0.141l0.016-0.093
			l-0.437,0.14l-0.05-0.024c0,0-0.058,0.497-0.468,0.687c0,0,0.153-0.258,0.058-0.712c0,0-0.015,0.157-0.152,0.295l-0.078-0.201
			c0,0-0.03,0.063-0.079,0.112c0,0-0.078-0.068-0.104-0.12c-0.025,0.052-0.103,0.12-0.103,0.12c-0.05-0.049-0.079-0.112-0.079-0.112
			L11.74,5.81c-0.139-0.138-0.152-0.295-0.152-0.295c-0.096,0.454,0.057,0.712,0.057,0.712c-0.41-0.189-0.467-0.687-0.467-0.687
			l-0.05,0.024l-0.437-0.14l0.016,0.093l0.156,0.141l0.326,0.936l-0.148-0.18l-0.012,0.031l-0.05,0.117l-0.163-0.289L10.777,6.43
			l-0.095-0.17c0.105,0.475,0.247,0.925,0.392,1.121l0.102-0.146c0,0,0.09,0.274,0.235,0.42l0.143-0.163l0.153,0.261l0.127-0.189
			L12,7.844l0.167-0.281l0.128,0.189l0.152-0.261l0.143,0.163c0.145-0.146,0.234-0.42,0.234-0.42l0.102,0.146
			c0.145-0.196,0.287-0.646,0.393-1.121L13.224,6.43z"/>
	</g>
	<g>
		<polygon fill="#FFFFFF" points="13.247,3.554 13.294,3.617 13.629,3.593 13.879,3.227 13.746,3.071 13.496,3.468 		"/>
		<polygon fill="#FFFFFF" points="13.917,2.385 14.12,2.362 14.144,2.19 13.527,1.754 13.466,1.848 13.957,2.253 		"/>
		<path fill="#FFFFFF" d="M13.707,7.326l-0.53,0.499l0.065-0.566c0,0-0.168,0.35-0.416,0.621l-0.035-0.148
			c0,0-0.179,0.267-0.285,0.328l-0.068-0.146l-0.191,0.229l-0.073-0.119L12,8.267l-0.172-0.243l-0.072,0.119l-0.192-0.229
			L11.496,8.06c-0.107-0.062-0.286-0.328-0.286-0.328L11.174,7.88c-0.248-0.271-0.416-0.621-0.416-0.621l0.066,0.566l-0.53-0.499
			l0.343,0.857L9.709,7.232l0.839,1.611l0.088-0.319l0.413,0.844l0.108-0.25l0.438,0.732l0.078-0.233L12,10.152l0.327-0.535
			l0.078,0.233l0.437-0.732l0.109,0.25l0.413-0.844l0.088,0.319l0.839-1.611l-0.927,0.951L13.707,7.326z"/>
		<polygon fill="#FFFFFF" points="11.104,11.378 11.335,11.907 11.232,11.868 11.323,12.121 11.178,12.069 11.309,12.396 
			11.145,12.289 11.278,12.839 11.408,12.642 11.569,12.08 11.377,11.732 		"/>
		<polygon fill="#FFFFFF" points="12.573,12.071 12.375,12.071 12.507,12.341 12.342,12.348 12.563,12.801 12.477,12.851 
			12.266,13.55 12.391,13.592 12.387,13.371 12.463,13.302 12.438,13.105 12.53,13.029 12.491,12.897 12.624,12.847 12.565,12.663 
			12.667,12.604 12.597,12.428 12.725,12.398 12.616,12.207 12.795,12.191 12.679,11.981 12.857,11.972 12.717,11.666 
			12.857,11.714 13.107,10.958 12.416,11.809 		"/>
		<path fill="#FFFFFF" d="M13.86,14.417l-0.091,0.014l0.03-0.082c-0.35,0.315-0.782,0.267-0.782,0.267l0.086,0.053
			C13.335,14.694,13.615,14.613,13.86,14.417"/>
		<path fill="#FFFFFF" d="M11.655,7.059c0-0.055-0.11-0.204-0.198-0.582c0,0-0.074,0.21-0.018,0.525
			C11.453,7.08,11.655,7.101,11.655,7.059"/>
		<path fill="#FFFFFF" d="M11.826,7.057c0-0.099-0.06-0.159-0.06-0.159s-0.056,0.08-0.056,0.159
			C11.711,7.086,11.826,7.085,11.826,7.057"/>
		<path fill="#FFFFFF" d="M11.924,6.904c0,0-0.051,0.073-0.057,0.16c0,0.026,0.116,0.023,0.116-0.002
			C11.979,6.948,11.924,6.904,11.924,6.904"/>
		<path fill="#FFFFFF" d="M12.562,7.002c0.056-0.315-0.019-0.525-0.019-0.525c-0.088,0.378-0.197,0.527-0.197,0.582
			C12.346,7.101,12.547,7.08,12.562,7.002"/>
		<path fill="#FFFFFF" d="M12.174,7.057c0,0.028,0.115,0.029,0.115,0c0-0.079-0.055-0.159-0.055-0.159S12.174,6.958,12.174,7.057"/>
		<path fill="#FFFFFF" d="M12.133,7.064c-0.006-0.087-0.056-0.16-0.056-0.16s-0.054,0.044-0.06,0.158
			C12.018,7.088,12.133,7.091,12.133,7.064"/>
		<path fill="#FFFFFF" d="M11.176,7.234c0,0,0.09,0.274,0.235,0.42l0.143-0.163l0.153,0.261l0.127-0.189L12,7.844l0.167-0.281
			l0.128,0.189l0.152-0.261l0.143,0.163c0.145-0.146,0.234-0.42,0.234-0.42l0.102,0.146c0.145-0.196,0.287-0.646,0.393-1.121
			l-0.095,0.17l-0.039-0.156l-0.163,0.289l-0.062-0.148l-0.148,0.18c0.031,0.315,0.029,0.668-0.481,0.668
			C12.23,7.262,12,7.232,12,7.232s-0.23,0.029-0.328,0.029c-0.511,0-0.514-0.353-0.482-0.668l-0.148-0.18l-0.012,0.031l-0.05,0.117
			l-0.163-0.289L10.777,6.43l-0.095-0.17c0.105,0.475,0.247,0.925,0.392,1.121L11.176,7.234z"/>
	</g>
	<g>
		<path fill="#CE1126" d="M11.671,4.456c0.074,0,0.2,0.121,0.2,0.222c0,0.034-0.019,0.045-0.019,0.045l0.075,0.074L12,4.525
			l0.073,0.271l0.075-0.074c0,0-0.02-0.011-0.02-0.045c0-0.101,0.127-0.222,0.201-0.222c0.056,0,0.066,0.04,0.066,0.04
			c0.068-0.068,0.165-0.219,0.165-0.219L12,4.492l-0.562-0.215c0,0,0.097,0.15,0.166,0.219C11.604,4.496,11.615,4.456,11.671,4.456"
			/>
		<path fill="#CE1126" d="M12,5.12c-0.037,0.088-0.206,0.162-0.206,0.162l0.024,0.014c0,0,0.09-0.046,0.182,0.005
			c0.093-0.051,0.182-0.005,0.182-0.005l0.025-0.014C12.207,5.282,12.039,5.208,12,5.12"/>
		<path fill="#CE1126" d="M12.355,6.227c0,0,0.153-0.258,0.058-0.712c0,0-0.015,0.157-0.152,0.295l-0.078-0.201
			c0,0-0.03,0.063-0.079,0.112c0,0-0.078-0.068-0.104-0.12c-0.025,0.052-0.103,0.12-0.103,0.12c-0.05-0.049-0.079-0.112-0.079-0.112
			L11.74,5.81c-0.139-0.138-0.152-0.295-0.152-0.295c-0.096,0.454,0.057,0.712,0.057,0.712c-0.41-0.189-0.467-0.687-0.467-0.687
			l-0.05,0.024c0.081,0.528,0.215,1.092,0.215,1.092s0.005-0.172,0.144-0.446c0,0,0.057,0.385,0.188,0.69
			c0,0,0.026-0.051,0.086-0.11c0,0,0.054,0.04,0.089,0.085c0,0,0.032-0.043,0.067-0.078c0,0,0.062,0.04,0.083,0.078
			c0.021-0.038,0.084-0.078,0.084-0.078c0.035,0.035,0.066,0.078,0.066,0.078c0.036-0.045,0.09-0.085,0.09-0.085
			c0.06,0.06,0.086,0.11,0.086,0.11c0.131-0.306,0.188-0.69,0.188-0.69c0.141,0.274,0.145,0.446,0.145,0.446
			s0.133-0.563,0.215-1.092l-0.05-0.024C12.823,5.54,12.766,6.037,12.355,6.227"/>
		<path fill="#CE1126" d="M11.225,2.94c0.001-0.013,0-0.025-0.004-0.037l-0.303-0.064c-0.02,0.02-0.031,0.045-0.035,0.073
			c-0.006,0.077,0.065,0.145,0.16,0.153C11.137,3.072,11.218,3.017,11.225,2.94"/>
		<path fill="#CE1126" d="M12.779,2.903c-0.003,0.012-0.004,0.024-0.004,0.037c0.008,0.077,0.089,0.132,0.183,0.125
			c0.095-0.008,0.165-0.076,0.159-0.153c-0.003-0.028-0.015-0.053-0.034-0.073L12.779,2.903z"/>
		<path fill="#CE1126" d="M16.741,8.61l0.111,0.2l0.688,0.11l0.112,0.019c0.027-0.057,0.059-0.126,0.088-0.205
			c-0.042-0.082-0.146-0.266-0.365-0.569C17.137,8.414,16.866,8.554,16.741,8.61"/>
		<path fill="#CE1126" d="M15.979,8.061C16,8.006,16.124,7.673,16.165,7.312c-0.058-0.023-0.117-0.047-0.18-0.069
			c0,0-0.064,0.516-0.041,0.801L15.979,8.061z"/>
		<path fill="#CE1126" d="M16.561,7.495c-0.236,0.348-0.524,0.535-0.576,0.567l0.608,0.281l0.127,0.228
			c0.085-0.122,0.252-0.408,0.302-0.792C16.918,7.703,16.765,7.602,16.561,7.495"/>
		<path fill="#CE1126" d="M16.457,8.443L16.02,8.257c-0.08-0.034-0.12-0.005-0.09,0.064l0.058,0.127l0.378,0.324l0.142,0.039
			c0.067,0.018,0.1-0.021,0.072-0.084L16.457,8.443z"/>
		<path fill="#CE1126" d="M7.44,7.495c-0.204,0.106-0.357,0.208-0.46,0.284c0.049,0.384,0.217,0.67,0.302,0.792l0.126-0.228
			l0.608-0.281C7.964,8.03,7.676,7.843,7.44,7.495"/>
		<path fill="#CE1126" d="M8.057,8.044C8.08,7.759,8.015,7.243,8.015,7.243C7.953,7.266,7.894,7.289,7.836,7.312
			c0.041,0.36,0.165,0.693,0.186,0.748L8.057,8.044z"/>
		<path fill="#CE1126" d="M6.26,8.734c0.03,0.079,0.061,0.148,0.088,0.205L6.46,8.922l0.688-0.111l0.112-0.2
			C7.134,8.554,6.864,8.414,6.626,8.165C6.406,8.469,6.302,8.652,6.26,8.734"/>
		<path fill="#CE1126" d="M7.981,8.257L7.544,8.444L7.422,8.728C7.394,8.791,7.426,8.829,7.494,8.811l0.141-0.038l0.378-0.324
			L8.07,8.321C8.102,8.251,8.062,8.223,7.981,8.257"/>
		<polygon fill="#CE1126" points="14.13,12.938 14.142,12.537 14.052,12.653 14.02,12.031 13.886,12.464 13.978,12.331 
			13.979,12.843 14.091,12.695 		"/>
		<polygon fill="#CE1126" points="14.431,12.518 14.335,12.613 14.357,12.269 14.248,12.357 14.263,12.133 14.172,12.232 
			14.112,11.979 14.118,12.464 14.188,12.379 14.194,12.561 14.281,12.457 14.243,13.097 14.365,13 14.341,13.537 14.4,13.349 
			14.448,12.83 14.369,12.896 		"/>
		<polygon fill="#CE1126" points="14.16,13.056 14.087,13.134 14.044,12.933 14.021,13.298 14.097,13.219 14.095,13.424 
			14.172,13.351 14.183,13.521 14.246,13.186 14.162,13.262 		"/>
	</g>
	<polygon fill="#002654" points="11.956,6.578 12,6.718 12.045,6.578 12.071,6.161 12.18,5.783 12,5.993 11.821,5.783 11.93,6.161 	
		"/>
	<g>
		<path fill="#FFFFFF" d="M11.139,3.024c0.023,0.002,0.045-0.013,0.047-0.033s-0.017-0.039-0.041-0.041S11.1,2.963,11.098,2.983
			S11.114,3.022,11.139,3.024"/>
		<path fill="#FFFFFF" d="M13.05,3.004c0.024-0.001,0.042-0.02,0.04-0.041c-0.001-0.02-0.022-0.035-0.047-0.033
			S13,2.951,13.002,2.972S13.025,3.007,13.05,3.004"/>
	</g>
</g>
</svg>
