<?xml version="1.0" encoding="utf-8"?>
<!-- Generator: Adobe Illustrator 16.0.4, SVG Export Plug-In . SVG Version: 6.00 Build 0)  -->
<!DOCTYPE svg PUBLIC "-//W3C//DTD SVG 1.1//EN" "http://www.w3.org/Graphics/SVG/1.1/DTD/svg11.dtd">
<svg version="1.1" id="Layer_1" xmlns="http://www.w3.org/2000/svg" xmlns:xlink="http://www.w3.org/1999/xlink" x="0px" y="0px" viewBox="0 0 24 16" enable-background="new 0 0 24 16" xml:space="preserve">
<g>
	<path fill="#111111" d="M18.518,0.22h-0.252H5.734H5.482v0.252V10.94v0.13l0.104,0.075l6.266,4.527L12,15.78l0.148-0.107l6.265-4.527l0.104-0.075
		v-0.13V0.472V0.22L18.518,0.22z"/>
	<g>
		<path fill="#FFFFFF" d="M5.734,10.969L12,15.498l6.266-4.529V0.501H5.734V10.969z"/>
		<path fill="#111111" d="M16.395,13.434c0-0.07-0.058-0.127-0.127-0.127h-0.182v0.43h0.08v-0.176h0.058l0.081,0.176h0.09l-0.085-0.182
			C16.358,13.535,16.395,13.488,16.395,13.434z M16.268,13.48h-0.102v-0.094h0.102c0.025,0,0.046,0.021,0.046,0.047
			S16.293,13.48,16.268,13.48z"/>
		<path fill="#111111" d="M16.24,13.145c-0.207,0-0.375,0.17-0.375,0.377c0,0.205,0.168,0.373,0.375,0.373s0.374-0.168,0.374-0.373
			C16.614,13.314,16.447,13.145,16.24,13.145z M16.24,13.814c-0.163,0-0.295-0.131-0.295-0.293c0-0.164,0.132-0.295,0.295-0.295
			c0.162,0,0.294,0.131,0.294,0.295C16.534,13.684,16.402,13.814,16.24,13.814z"/>
	</g>
	<g>
		<path fill="#ACAEA9" d="M6.147,10.758L12,14.988l5.852-4.23V8.183H6.147V10.758z"/>
		<path fill="#ACAEA9" d="M6.147,7.821h11.704V0.915H6.147V7.821z"/>
	</g>
	<g>
		<path display="none" d="M6.517,10.57L12,14.533l5.482-3.963V8.824H6.517V10.57z M10.029,10.264c0,0,0.331,0.443,0.394,0.527
			c0.137-0.168,0.396-0.375,0.747-0.49c-0.028-0.066-0.155-0.379-0.155-0.379s0.196,0.08,0.28,0.113
			c-0.009-0.016-0.018-0.033-0.018-0.033s0.3,0.016,0.348,0.018c0.024-0.041,0.188-0.332,0.21-0.371
			c-0.02-0.033-0.081-0.143-0.089-0.154c-0.01-0.008-0.087-0.074-0.087-0.074l0.1-0.189l0.212,0.015c0,0,0.004,0.099,0.005,0.118
			L12,9.402l0.024-0.039c0.001-0.02,0.004-0.118,0.004-0.118L12.24,9.23l0.101,0.189c0,0-0.077,0.066-0.088,0.074
			c-0.006,0.012-0.068,0.121-0.088,0.154c0.022,0.039,0.187,0.33,0.211,0.371c0.047-0.002,0.347-0.018,0.347-0.018
			s-0.01,0.018-0.018,0.033c0.084-0.033,0.28-0.113,0.28-0.113s-0.128,0.312-0.155,0.379c0.352,0.115,0.61,0.322,0.746,0.49
			c0.063-0.084,0.394-0.527,0.394-0.527l0.086,0.037l-0.408,2.332c0,0-0.578,0.148-1.647,0.148c-1.07,0-1.648-0.148-1.648-0.148
			l-0.406-2.332L10.029,10.264z"/>
		<path fill="#111111" d="M6.517,10.57L12,14.533l5.482-3.963V8.824H6.517V10.57z"/>
		<path fill="#111111" d="M6.517,7.277h10.966V1.284H6.517V7.277z"/>
	</g>
	<g>
		<path fill="#ACAEA9" d="M7.86,5.582V4.281c0-1.51,0.352-2.049,0.352-2.049H6.846c0,0,0.352,0.539,0.352,2.049
			c0,1.509-0.352,2.048-0.352,2.048h4.461c0,0,0.372-0.506,0.372-1.277c0,0-0.509,0.53-1.704,0.53H7.86z"/>
		<path fill="#ACAEA9" d="M12.069,2.232c0,0,0.353,0.539,0.353,2.049c0,1.509-0.353,2.048-0.353,2.048h1.015V4.803h3.057v1.526
			h1.014c0,0-0.353-0.539-0.353-2.048c0-1.51,0.353-2.049,0.353-2.049H12.069z"/>
	</g>
	<g>
		<path fill="#FFFFFF" d="M12.223,2.327c0.106,0.251,0.294,0.846,0.294,1.955c0,1.108-0.188,1.703-0.294,1.953h0.767V4.708h3.246
			v1.526c0.129,0,0.57,0,0.766,0c-0.106-0.25-0.293-0.845-0.293-1.953c0-1.109,0.187-1.704,0.293-1.955
			C16.724,2.327,12.5,2.327,12.223,2.327z"/>
		<path fill="#FFFFFF" d="M7.766,5.677V4.281c0-1.109,0.187-1.704,0.294-1.955H6.999c0.106,0.251,0.293,0.846,0.293,1.955
			c0,1.108-0.187,1.703-0.293,1.953h4.257c0.069-0.11,0.27-0.471,0.316-0.98c-0.243,0.167-0.751,0.423-1.598,0.423H7.766z"/>
	</g>
	<path fill="#ACAEA9" d="M12.989,4.15h3.246V2.885h-3.246V4.15z"/>
	<rect x="13.084" y="2.979" width="3.057" height="1.077"/>
	<g>
		<path fill="#FFFFFF" d="M13.647,12.633l0.408-2.332l-0.086-0.037c0,0-0.33,0.443-0.394,0.527c-0.136-0.168-0.395-0.375-0.746-0.49
			c0.027-0.066,0.155-0.379,0.155-0.379s-0.196,0.08-0.28,0.113c0.008-0.016,0.018-0.033,0.018-0.033s-0.3,0.016-0.347,0.018
			c-0.024-0.041-0.188-0.332-0.211-0.371c0.02-0.033,0.082-0.143,0.088-0.154c0.011-0.008,0.088-0.074,0.088-0.074L12.24,9.23
			l-0.212,0.015c0,0-0.003,0.099-0.004,0.118L12,9.402l-0.024-0.039c-0.001-0.02-0.005-0.118-0.005-0.118L11.759,9.23l-0.1,0.189
			c0,0,0.077,0.066,0.087,0.074c0.008,0.012,0.069,0.121,0.089,0.154c-0.022,0.039-0.186,0.33-0.21,0.371
			c-0.048-0.002-0.348-0.018-0.348-0.018s0.009,0.018,0.018,0.033c-0.084-0.033-0.28-0.113-0.28-0.113s0.127,0.312,0.155,0.379
			c-0.351,0.115-0.61,0.322-0.747,0.49c-0.062-0.084-0.394-0.527-0.394-0.527l-0.084,0.037l0.406,2.332c0,0,0.578,0.148,1.648,0.148
			C13.069,12.781,13.647,12.633,13.647,12.633z"/>
	</g>
	<g fill="#111111">
		<path d="M11.662,12.674c0,0-0.529-0.049-0.844-0.17c0.214,0.031,0.562,0.072,0.881,0.072c0,0-0.431-0.043-0.716-0.15
			c0.216,0.027,0.522,0.061,0.805,0.061c0,0-0.42-0.043-0.705-0.148c0.256-0.055,0.57-0.098,0.917-0.098s0.66,0.043,0.916,0.098
			c-0.285,0.105-0.704,0.148-0.704,0.148c0.281,0,0.588-0.033,0.804-0.061c-0.285,0.107-0.715,0.15-0.715,0.15
			c0.317,0,0.666-0.041,0.881-0.072c-0.314,0.121-0.845,0.17-0.845,0.17c0.78-0.021,1.242-0.137,1.242-0.137l0.357-2.08
			l-0.362,0.484c-0.159-0.26-0.469-0.469-0.865-0.584l0.109-0.266l-0.56,0.25v-0.137L12,9.76l-0.26,0.445v0.137l-0.561-0.25
			l0.109,0.266c-0.396,0.115-0.704,0.324-0.864,0.584l-0.362-0.484l0.358,2.08C10.421,12.537,10.883,12.652,11.662,12.674z"/>
	</g>
	<g>
		<path fill="#ACAEA9" d="M11.74,10.393l-0.473-0.211l0.473,1.15V10.393z"/>
		<path fill="#ACAEA9" d="M12.259,10.393v0.939l0.474-1.15L12.259,10.393z"/>
		<path fill="#ACAEA9" d="M12.211,10.373L12,10.098l-0.212,0.275L12,10.625L12.211,10.373z"/>
		<path fill="#ACAEA9" d="M13.656,11.811c-0.093-0.016-0.164-0.102-0.164-0.203c0-0.113,0.087-0.205,0.193-0.205
			c0.015,0,0.027,0,0.04,0.004l0.132-0.766l-0.573,0.766c0.013,0.367-0.077,0.516-0.077,0.516s-0.191-0.078-0.406-0.121
			l-0.074-0.371c-0.033,0-0.062-0.01-0.088-0.027h-0.002l-0.189,0.342c0,0-0.237-0.023-0.356-0.023l0.107-0.328L12,10.883
			l-0.197,0.51l0.106,0.328c-0.12,0-0.357,0.023-0.357,0.023l-0.174-0.316c-0.011,0.002-0.022,0.002-0.034,0.002
			c-0.024,0-0.047-0.006-0.067-0.016l-0.078,0.387c-0.214,0.043-0.406,0.121-0.406,0.121s-0.089-0.148-0.077-0.516l-0.573-0.766
			l0.132,0.766c0.013-0.004,0.026-0.004,0.04-0.004c0.107,0,0.194,0.092,0.194,0.205c0,0.102-0.072,0.188-0.165,0.203l0.114,0.662
			c0.181-0.07,0.787-0.279,1.543-0.279c0.755,0,1.362,0.209,1.543,0.279L13.656,11.811z"/>
	</g>
	<g fill="#111111">
		<path d="M12.089,10.365c0-0.049-0.041-0.09-0.089-0.09c-0.05,0-0.088,0.041-0.088,0.09S11.95,10.453,12,10.453
			C12.048,10.453,12.089,10.414,12.089,10.365z"/>
		<path d="M12.479,10.457c-0.017-0.021-0.042-0.035-0.07-0.035c-0.049,0-0.088,0.039-0.088,0.09c0,0.039,0.028,0.076,0.066,0.086
			c0.015,0.008,0.03,0.014,0.047,0.014c0.047,0,0.084-0.037,0.084-0.084C12.518,10.498,12.502,10.471,12.479,10.457z"/>
		<path d="M11.623,10.457c-0.017-0.021-0.042-0.035-0.071-0.035c-0.049,0-0.088,0.039-0.088,0.09c0,0.039,0.029,0.076,0.067,0.086
			c0.014,0.008,0.029,0.014,0.047,0.014c0.047,0,0.084-0.037,0.084-0.084C11.662,10.498,11.646,10.471,11.623,10.457z"/>
	</g>
	<g>
		<path fill="#FFFFFF" d="M10.489,11.029l0.099,0.131c0.24-0.471,0.722-0.523,0.722-0.523c-0.412,0.154-0.585,0.395-0.641,0.633
			l0.093,0.121c0,0-0.012,0.332,0.055,0.473c0.021-0.01,0.044-0.018,0.071-0.025c-0.215-0.885,0.481-1.047,0.481-1.047
			c-0.492,0.254-0.445,0.707-0.346,1.004c0.041-0.01,0.086-0.021,0.136-0.033l0.074-0.367c-0.064-0.023-0.109-0.086-0.109-0.158
			c0-0.094,0.076-0.17,0.17-0.17c0.055,0,0.104,0.025,0.135,0.066c0.045,0.029,0.076,0.08,0.076,0.137
			c0,0.061-0.033,0.113-0.084,0.141l0.156,0.285c0.083-0.008,0.168-0.014,0.255-0.018l-0.505-1.229
			C10.936,10.564,10.63,10.775,10.489,11.029z"/>
		<path fill="#FFFFFF" d="M12.593,11.383c-0.05-0.031-0.083-0.084-0.083-0.146c0-0.094,0.076-0.17,0.17-0.17
			c0.055,0,0.104,0.025,0.135,0.066c0.046,0.029,0.076,0.08,0.076,0.137c0,0.074-0.051,0.135-0.118,0.154l0.069,0.338
			c0.049,0.012,0.093,0.023,0.135,0.033c0.1-0.297,0.145-0.75-0.348-1.004c0,0,0.697,0.162,0.483,1.047
			c0.026,0.008,0.051,0.016,0.071,0.025c0.065-0.141,0.054-0.473,0.054-0.473l0.094-0.121c-0.057-0.238-0.228-0.479-0.642-0.633
			c0,0,0.481,0.053,0.722,0.523l0.099-0.131c-0.14-0.254-0.446-0.465-0.838-0.58l-0.504,1.229c0.086,0.004,0.171,0.01,0.254,0.018
			L12.593,11.383z"/>
		<path fill="#FFFFFF" d="M11.294,11.092c-0.08,0-0.146,0.064-0.146,0.145s0.065,0.146,0.146,0.146s0.146-0.066,0.146-0.146
			S11.374,11.092,11.294,11.092z"/>
		<path fill="#FFFFFF" d="M12.825,11.236c0-0.08-0.065-0.145-0.146-0.145s-0.145,0.064-0.145,0.145s0.064,0.146,0.145,0.146
			S12.825,11.316,12.825,11.236z"/>
		<path fill="#FFFFFF" d="M10.373,11.607c0-0.035-0.026-0.064-0.06-0.064c-0.006,0-0.012,0-0.016,0.002l0.021,0.125
			C10.35,11.666,10.373,11.641,10.373,11.607z"/>
		<path fill="#FFFFFF" d="M10.313,11.424c-0.012,0-0.024,0.002-0.037,0.006l0.004,0.023c0.012-0.004,0.021-0.006,0.033-0.006
			c0.082,0,0.146,0.072,0.146,0.16c0,0.08-0.054,0.145-0.126,0.156l0.005,0.023c0.082-0.014,0.146-0.088,0.146-0.18
			C10.484,11.506,10.407,11.424,10.313,11.424z"/>
		<path fill="#FFFFFF" d="M13.626,11.607c0,0.033,0.023,0.059,0.055,0.062l0.021-0.125c-0.005-0.002-0.01-0.002-0.017-0.002
			C13.652,11.543,13.626,11.572,13.626,11.607z"/>
		<path fill="#FFFFFF" d="M13.661,11.787l0.004-0.023c-0.071-0.012-0.126-0.076-0.126-0.156c0-0.088,0.065-0.16,0.146-0.16
			c0.012,0,0.021,0.002,0.033,0.006l0.005-0.023c-0.014-0.004-0.025-0.006-0.038-0.006c-0.094,0-0.17,0.082-0.17,0.184
			C13.516,11.699,13.578,11.773,13.661,11.787z"/>
		<path fill="#FFFFFF" d="M12.075,10.365c0-0.041-0.033-0.076-0.075-0.076s-0.076,0.035-0.076,0.076
			c0,0.043,0.034,0.076,0.076,0.076S12.075,10.408,12.075,10.365z"/>
		<path fill="#FFFFFF" d="M12.408,10.586c0.043,0,0.076-0.033,0.076-0.074c0-0.043-0.033-0.076-0.076-0.076
			c-0.041,0-0.076,0.033-0.076,0.076C12.332,10.553,12.367,10.586,12.408,10.586z"/>
		<path fill="#FFFFFF" d="M11.552,10.586c0.043,0,0.076-0.033,0.076-0.074c0-0.043-0.033-0.076-0.076-0.076
			c-0.041,0-0.075,0.033-0.075,0.076C11.477,10.553,11.511,10.586,11.552,10.586z"/>
	</g>
	<g fill="#111111">
		<circle cx="11.294" cy="11.236" r="0.129"/>
		<circle cx="12.68" cy="11.236" r="0.129"/>
		<path d="M11.995,11.451L11.995,11.451c0.01,0.004,0.021,0.008,0.033,0.008c0.042,0,0.077-0.035,0.077-0.078
			c0-0.029-0.017-0.055-0.043-0.068c0.011,0.014,0.019,0.033,0.019,0.053C12.081,11.412,12.043,11.451,11.995,11.451z"/>
		<circle cx="11.995" cy="11.365" r="0.068"/>
		<circle cx="12" cy="10.365" r="0.067"/>
		<circle cx="12.408" cy="10.511" r="0.067"/>
		<circle cx="11.552" cy="10.511" r="0.067"/>
		<path d="M11.598,12.043c-0.001,0-0.001,0-0.002,0c0.01,0.004,0.022,0.008,0.034,0.008c0.043,0,0.077-0.035,0.077-0.078
			c0-0.029-0.018-0.055-0.043-0.068c0.012,0.016,0.019,0.033,0.019,0.053C11.683,12.004,11.645,12.043,11.598,12.043z"/>
		<path d="M10.938,12.158c-0.001,0-0.002,0-0.002,0c0.011,0.008,0.021,0.01,0.034,0.01c0.043,0,0.077-0.035,0.077-0.076
			c0-0.031-0.018-0.059-0.043-0.07c0.012,0.016,0.019,0.031,0.019,0.053C11.022,12.121,10.983,12.158,10.938,12.158z"/>
		<path d="M12.355,12.043C12.354,12.043,12.354,12.043,12.355,12.043c0.008,0.004,0.021,0.008,0.032,0.008
			c0.044,0,0.077-0.035,0.077-0.078c0-0.029-0.018-0.055-0.043-0.068c0.011,0.016,0.019,0.033,0.019,0.053
			C12.44,12.004,12.402,12.043,12.355,12.043z"/>
		<path d="M13.016,12.158C13.016,12.158,13.016,12.158,13.016,12.158c0.01,0.008,0.021,0.01,0.033,0.01
			c0.043,0,0.076-0.035,0.076-0.076c0-0.031-0.018-0.059-0.043-0.07c0.013,0.016,0.02,0.031,0.02,0.053
			C13.102,12.121,13.063,12.158,13.016,12.158z"/>
		<circle cx="11.598" cy="11.958" r="0.069"/>
		<circle cx="10.938" cy="12.073" r="0.069"/>
		<circle cx="12.355" cy="11.958" r="0.069"/>
		<circle cx="13.016" cy="12.073" r="0.069"/>
		<polygon points="10.282,11.375 10.365,11.379 10.329,11.271 		"/>
		<polygon points="10.475,11.438 10.499,11.326 10.406,11.393 		"/>
		<polygon points="10.615,11.461 10.503,11.469 10.538,11.543 		"/>
		<polygon points="10.538,11.668 10.647,11.637 10.546,11.586 		"/>
		<polygon points="10.528,11.697 10.483,11.768 10.594,11.791 		"/>
		<polygon points="10.366,11.834 10.446,11.914 10.442,11.801 		"/>
		<polygon points="13.671,11.271 13.633,11.379 13.717,11.375 		"/>
		<polygon points="13.594,11.393 13.501,11.326 13.524,11.438 		"/>
		<polygon points="13.497,11.469 13.384,11.461 13.461,11.543 		"/>
		<polygon points="13.454,11.586 13.352,11.637 13.461,11.668 		"/>
		<polygon points="13.405,11.791 13.517,11.768 13.471,11.697 		"/>
		<polygon points="13.557,11.801 13.553,11.914 13.633,11.834 		"/>
		<polygon points="11.721,10.188 12,9.709 12.278,10.188 12.502,10.188 12.527,10.135 12.308,10.135 12.029,9.656 12.166,9.422 
			12.199,9.389 12.176,9.354 12.125,9.359 12.118,9.402 12,9.605 11.883,9.402 11.874,9.359 11.823,9.354 11.801,9.389 
			11.834,9.422 11.97,9.656 11.692,10.135 11.472,10.135 11.498,10.188 		"/>
	</g>
</g>
</svg>
