<?xml version="1.0" encoding="utf-8"?>
<!-- Generator: Adobe Illustrator 16.0.4, SVG Export Plug-In . SVG Version: 6.00 Build 0)  -->
<!DOCTYPE svg PUBLIC "-//W3C//DTD SVG 1.1//EN" "http://www.w3.org/Graphics/SVG/1.1/DTD/svg11.dtd">
<svg version="1.1" id="Layer_1" xmlns="http://www.w3.org/2000/svg" xmlns:xlink="http://www.w3.org/1999/xlink" x="0px" y="0px" viewBox="0 0 24 16" style="enable-background:new 0 0 24 16;" xml:space="preserve">
<style type="text/css">
<![CDATA[
	.st0{fill:#AF1E2D;}
	.st1{fill:#FFFFFF;}
	.st2{fill:#192168;}
]]>
</style>
<g>
	<g id="reg" class="st2">
		<path d="M20.233,12.332c-0.213,0-0.385,0.172-0.385,0.384c0,0.213,0.172,0.384,0.385,0.384
			c0.211,0,0.382-0.171,0.382-0.384C20.615,12.504,20.444,12.332,20.233,12.332z M20.233,13.018c-0.168,0-0.303-0.135-0.303-0.302
			s0.135-0.302,0.303-0.302c0.165,0,0.302,0.135,0.302,0.302S20.398,13.018,20.233,13.018z"/>
		<path d="M20.391,12.627c0-0.072-0.059-0.13-0.131-0.13h-0.186v0.438h0.083v-0.179h0.059l0.084,0.179h0.091
			l-0.088-0.186C20.354,12.731,20.391,12.684,20.391,12.627z M20.26,12.675h-0.103v-0.096h0.103c0.027,0,0.048,0.021,0.048,0.048
			S20.287,12.675,20.26,12.675z"/>
	</g>
	<g>
		<path class="st2" d="M18.939,7.873l1.426-1.497l-0.688-3.168l-3.036-0.901l-0.312,0.289c-1.023-0.338-3.215-0.742-4.681-0.74
			C6.667,1.865,2.88,4.598,2.866,7.968c-0.016,3.535,3.413,6.176,8.825,6.176c3.789,0,7.67-2.021,9.31-3.171L18.939,7.873z"/>
	</g>
	<path class="st1" d="M18.406,8.202c0,0-2.15,1.468-4.52,1.91V5.947c2.573,0.324,4.098,2.006,4.098,2.006L19.7,6.181l-0.551-2.486
		l-2.344-0.686l-0.297,0.324c-0.951-0.372-2.914-0.854-5.088-0.854c-4.354,0-7.911,2.468-7.917,5.512
		c-0.006,2.965,3.012,5.532,7.884,5.532c4.5,0,7.749-2.145,8.767-2.719L18.406,8.202z M10.979,7.417V5.711
		c0.595-0.029,1.256,0.001,1.724,0.057v1.649H10.979z M12.702,8.546v1.718c-0.485,0.058-1.224,0.072-1.724,0.036V8.546H12.702z
		 M9.742,5.811v4.371c-0.718,0-3.008-0.842-3.008-2.168C6.734,6.374,9.075,5.921,9.742,5.811z"/>
	<g>
		<path class="st1" d="M9.113,9.42V6.573C8.292,6.812,7.37,7.277,7.37,8.014C7.37,8.518,8.148,9.127,9.113,9.42z"/>
		<path class="st1" d="M17.286,8.139c-0.643-0.566-1.58-1.159-2.766-1.448v2.627C15.415,9.07,16.397,8.65,17.286,8.139z"/>
		<polygon class="st1" points="11.442,6.917 12.247,6.917 12.247,6.25 11.442,6.218"/>
		<rect x="11.424" y="9.072" class="st1" width="0.828" height="0.701"/>
	</g>
	<path class="st0" d="M18.281,8.819c-2.813,1.652-4.687,1.973-6.97,1.952c-3.21-0.03-5.039-1.315-5.039-2.845
		c0-1.379,1.677-2.694,5.104-2.694c2.306,0,5.085,0.618,6.57,2.082l1.235-1.26L18.76,4.054l-1.822-0.532l-0.331,0.374
		c-0.999-0.4-2.688-0.954-5.285-0.954c-3.919,0-7.356,2.264-7.356,5.004c0,2.862,2.993,5.106,7.24,5.106
		c4.308,0,6.836-1.623,8.296-2.39L18.281,8.819z"/>
</g>
</svg>
