<?xml version="1.0" encoding="utf-8"?>
<!-- Generator: Adobe Illustrator 16.0.4, SVG Export Plug-In . SVG Version: 6.00 Build 0)  -->
<!DOCTYPE svg PUBLIC "-//W3C//DTD SVG 1.1//EN" "http://www.w3.org/Graphics/SVG/1.1/DTD/svg11.dtd">
<svg version="1.1" id="Layer_1" xmlns="http://www.w3.org/2000/svg" xmlns:xlink="http://www.w3.org/1999/xlink" x="0px" y="0px" viewBox="0 0 24 16" enable-background="new 0 0 24 16" xml:space="preserve">
<g id="reg">
	<path style="fill:#002654;" d="M15.279,14.251c0-0.202-0.163-0.365-0.364-0.365c-0.202,0-0.365,0.163-0.365,0.365
		c0,0.201,0.163,0.364,0.365,0.364C15.116,14.615,15.279,14.452,15.279,14.251z M14.628,14.251c0-0.159,0.128-0.287,0.286-0.287
		c0.158,0,0.286,0.128,0.286,0.287c0,0.158-0.128,0.286-0.286,0.286C14.756,14.537,14.628,14.409,14.628,14.251z"/>
	<path style="fill:#002654;" d="M15.064,14.459l-0.082-0.176c0.048-0.017,0.082-0.063,0.082-0.117c0-0.069-0.056-0.124-0.124-0.124
		h-0.176v0.417h0.078V14.29h0.056l0.079,0.169H15.064z M14.94,14.212h-0.098v-0.091h0.098c0.025,0,0.046,0.02,0.046,0.045
		S14.966,14.212,14.94,14.212z"/>
</g>
<g>
	<g>
		<path style="fill:#FCB514;" d="M22.261,6.651c-0.025-0.061-0.072-0.111-0.132-0.14l-1.143-0.552l-0.353-0.271L20.12,5.052
			l-0.169-0.759c-0.017-0.074-0.063-0.138-0.129-0.175l-0.804-0.457l-0.505-0.507C18.49,3.13,18.46,3.111,18.43,3.097l-3.146-1.368
			c-0.05-0.021-0.105-0.027-0.159-0.017L10.84,2.568C9.673,2.478,8.651,2.624,8.607,2.63C8.345,2.674,8.343,2.958,8.435,3.049
			L2.02,4.331c-0.064,0.012-0.121,0.048-0.161,0.1L1.181,5.323C1.06,5.482,1.151,5.724,1.359,5.751
			c0.047,0.006,4.687,0.642,4.687,3.456c0,1.036-0.711,2.056-0.719,2.065c-0.103,0.146-0.041,0.381,0.171,0.419l2.621,0.473
			c0.199,0.159,0.866,0.628,1.836,0.628c1.149,0,1.474-0.435,1.548-0.791c0.57-0.242,1.286-0.817,1.286-1.28
			c0-0.289-0.26-0.482-0.502-0.482c-0.028,0-0.053,0.01-0.079,0.014c0,0-0.122-0.226-0.418-0.226c-0.127,0-0.264,0.062-0.371,0.108
			c0.262-0.302,0.696-0.661,1.391-0.892c1.071-0.354,2.467-0.655,3.167-0.796c-1.063,3.089-4.704,4.711-4.742,4.728
			c-0.217,0.095-0.177,0.369-0.089,0.426l-0.397,0.179c-0.283,0.124-0.163,0.537,0.13,0.512c3.843-0.326,6.669-1.672,8.637-4.104
			h0.792c0.045,0,0.09-0.012,0.13-0.033c0.774-0.433,1.294-0.415,1.3-0.415c0.106,0.005,0.207-0.054,0.254-0.148
			c0.384-0.78,0.797-1.194,0.801-1.197c0.058-0.058,0.112-0.165,0.061-0.292L22.261,6.651z"/>
	</g>
	<path style="fill:#002654;" d="M20.845,6.189l-0.399-0.307l-0.573-0.71l-0.183-0.82l-0.835-0.475l-0.531-0.533l-3.145-1.368
		L10.86,2.839C9.692,2.742,8.646,2.895,8.646,2.895L9.01,3.208L2.073,4.593L1.394,5.486c0,0,4.921,0.635,4.921,3.721
		c0,1.139-0.768,2.221-0.768,2.221l2.689,0.485c0,0,0.669,0.61,1.72,0.61c1.222,0,1.301-0.513,1.301-0.712
		c0.537-0.174,1.266-0.765,1.266-1.091c0-0.131-0.137-0.215-0.234-0.215c-0.081,0-0.191,0.064-0.281,0.104
		c0.052-0.114-0.021-0.315-0.216-0.315c-0.163,0-0.438,0.23-0.973,0.28c0,0,0.408-1.089,1.908-1.585
		c1.515-0.503,3.644-0.894,3.644-0.894c-0.901,3.535-5.028,5.325-5.028,5.325l1.523-0.343c-0.706,0.373-2.008,0.946-2.008,0.946
		c3.837-0.326,6.631-1.647,8.591-4.177l0.133,0.072h0.727c0.866-0.483,1.443-0.447,1.443-0.447C22.164,8.633,22.606,8.2,22.606,8.2
		l-0.592-1.449L20.845,6.189z"/>
	<g>
		<path style="fill:#FFFFFF;" d="M5.021,6.152c0.147,0.089,0.29,0.184,0.427,0.284l0,0c0.123,0.089,0.24,0.181,0.353,0.278
			c0.023-0.146,0.053-0.286,0.088-0.42C6.149,5.303,6.68,4.645,6.68,4.645C5.579,5.056,5.112,5.955,5.021,6.152z"/>
		<g>
			<path style="fill:none;" d="M15.612,2.903L15.096,2.65l-1.66,0.368c0,0,0.344,0.392,0.344,1.062c0,0.216-0.051,0.425-0.137,0.627
				l0.76,0.059c-0.001-0.026-0.01-0.045-0.01-0.072C14.393,3.372,15.612,2.903,15.612,2.903z"/>
			<line style="fill:none;" x1="14.402" y1="4.766" x2="13.643" y2="4.708"/>
		</g>
		<g>
			<path style="fill:none;" d="M14.464,5.208c-0.038-0.133-0.055-0.284-0.062-0.441c-0.001-0.026-0.01-0.045-0.01-0.072
				c0-1.322,1.22-1.791,1.22-1.791L15.096,2.65l-1.66,0.368c0,0,0.344,0.392,0.344,1.062c0,0.216-0.051,0.425-0.137,0.627
				c-0.069,0.163-0.159,0.321-0.273,0.472c-0.567,0.75-1.643,1.342-2.693,1.616c-0.216,0.056-0.366,0.142-0.469,0.264
				c-0.043,0.051-0.078,0.108-0.105,0.173L9.666,8.251C8.352,8.811,8.14,9.985,8.243,10.65c0.035-0.958,1.022-2.322,2.653-2.029
				c0,0,0.231-0.463,0.745-0.846c-0.125-0.281-0.146-0.609-0.065-0.96c0.007,0.343,0.093,0.63,0.235,0.847
				c0.146-0.09,0.299-0.167,0.461-0.228c-0.047-0.351,0.046-0.717,0.273-1.063c-0.129,0.372-0.138,0.714-0.054,0.992
				c0.161-0.045,0.328-0.075,0.499-0.088c0.05-0.417,0.284-0.793,0.674-1.087c-0.294,0.365-0.426,0.745-0.411,1.079
				c0.245,0.006,0.481,0.043,0.705,0.111l0.602-0.661l0.509-0.56C15.068,6.159,14.637,5.823,14.464,5.208z"/>
			<path style="fill:#FFFFFF;" d="M20.293,7.235l0.6-0.211c0,0,0.711,0.45,1.028-0.127l-1.086-0.511
				c-0.304,0.176-0.602,0.268-0.877,0.308c-0.813,0.117-1.434-0.225-1.434-0.225c-0.675,0-1.136,0.108-1.531,0.306
				c-0.322,0.161-0.602,0.381-0.918,0.65l0.948-1.043l0.147-0.867c0,0,0.298,0.724,1.118,0.724c0.397,0,0.701-0.22,0.701-0.22
				c0.89,0.673,1.705,0.302,1.705,0.302L20.39,6.067l-0.291,0.155L20.28,5.95l-0.111-0.126l-0.394,0.203l0.246-0.374l-0.086-0.099
				L19.603,5.7l0.19-0.324L19.66,5.171l-0.126-0.659l-0.797-0.386L18.19,3.615l-3.062-1.238l-3.015,0.669
				c0.71,0.171,1.298,0.542,1.298,0.542s0.226,0.52-0.068,1.098c-0.632,0.026-1.127,0.255-1.504,0.54
				c-0.689,0.52-0.981,1.226-0.981,1.226L10.391,6.56l0.539-1.263l0.195-0.456C9.916,5.018,9.371,3.989,9.371,3.989L9.278,3.675
				l-7.016,1.57c0.757,0.052,1.591,0.293,2.352,0.681C4.795,5.32,5.245,4.851,5.245,4.851l3.854-0.862c0,0,0.152,0.496,0.81,0.893
				L9.897,5.003C9.592,5.064,9.113,5.261,8.656,5.619C8.007,6.128,7.402,6.965,7.402,8.207c0,0.623,0.207,1.134,0.207,1.134
				S7.351,8.99,7.199,8.395C7.135,8.145,7.09,7.854,7.09,7.524c0-0.611,0.176-1.193,0.375-1.655
				c0.257-0.597,0.552-0.994,0.552-0.994S7.176,5.217,6.598,6.089c-0.18,0.271-0.334,0.594-0.43,0.973
				c0.417,0.442,0.727,0.948,0.867,1.5c0.053,0.21,0.082,0.428,0.082,0.653c0,1.067-0.446,1.739-0.446,1.739l1.494,0.304
				c0,0,0.565,0.822,1.778,0.822c0.384,0,0.888-0.043,0.888-0.288c0-0.185-0.454-0.436-0.454-0.971c0-0.869,1.092-1.771,2.264-2.157
				c1.368-0.451,3.46-0.977,4.512-0.977c2.984,0,2.886,1.97,2.886,1.97l0.145-0.007c0.665-0.373,1.253-0.443,1.424-0.457
				c0.033-0.002,0.051-0.003,0.051-0.003s0.294-0.55,0.636-0.948C22.292,8.242,21.849,7.312,20.293,7.235z"/>
		</g>
		<path style="fill:#FFFFFF;" d="M10.617,10.921c0.097,0.435,0.388,0.558,0.416,0.72c0,0,0.754-0.155,1.256-0.901
			C11.312,11.23,10.617,10.921,10.617,10.921"/>
		<path style="fill:#FFFFFF;" d="M19.455,9.12c0-0.427-0.705-0.835-1.037-0.835c-1.367,0-1.349,2.905-6.17,5.366
			C16.354,13.059,19.455,10.266,19.455,9.12"/>
		<path style="fill:#FFFFFF;" d="M9.588,3.889c0,0,0.44,0.749,1.224,0.749l0.814-0.056l0.67-0.7l0.914-0.141
			c-0.339-0.205-0.721-0.353-1.11-0.458L11.335,4.35l0.486-1.135c-0.143-0.031-0.283-0.057-0.424-0.079L10.74,4.055l0.407-0.952
			c-0.172-0.021-0.339-0.036-0.499-0.046l-0.503,0.702l0.305-0.712c-0.711-0.03-1.23,0.028-1.23,0.028l0.175,0.151L9.588,3.889z"/>
	</g>
	<g>
		<path style="fill:#FCB514;" d="M7.465,5.87C7.15,5.944,6.86,6.018,6.598,6.089c-0.18,0.271-0.334,0.594-0.43,0.973
			c0.417,0.442,0.727,0.948,0.867,1.5c0.042-0.046,0.098-0.104,0.164-0.167C7.135,8.145,7.09,7.854,7.09,7.524
			C7.09,6.913,7.266,6.331,7.465,5.87"/>
		<path style="fill:#FCB514;" d="M5.801,6.714c0.023-0.146,0.053-0.286,0.088-0.42c-0.168,0.052-0.316,0.1-0.441,0.141
			C5.571,6.524,5.688,6.617,5.801,6.714"/>
		<path style="fill:#FCB514;" d="M20.893,7.024c0,0-0.41-0.187-0.935-0.33c-0.813,0.117-1.434-0.225-1.434-0.225
			c-0.675,0-1.136,0.108-1.531,0.306c4.354,0.383,4.9,1.349,4.612,2.419c0.033-0.002,0.051-0.003,0.051-0.003
			s0.294-0.55,0.636-0.948c0,0-0.443-0.93-1.999-1.007L20.893,7.024z"/>
		<path style="fill:#FCB514;" d="M10.857,6.45l-0.466,0.11l0.539-1.263c-0.821,0.08-1.585,0.194-2.273,0.323
			c-0.65,0.508-1.255,1.345-1.255,2.587c0,0.623,0.207,1.134,0.207,1.134C7.44,8.619,7.834,7.912,7.834,7.912
			s0.908-0.58,2.373-0.853c0.103-0.123,0.252-0.208,0.469-0.264c1.051-0.273,2.126-0.866,2.693-1.616
			c-0.524-0.001-1.036,0.015-1.53,0.045C11.149,5.744,10.857,6.45,10.857,6.45"/>
		<path style="fill:#FCB514;" d="M17.171,5.515c-0.922-0.167-1.829-0.264-2.707-0.308c0.173,0.615,0.604,0.951,0.604,0.951
			l-0.509,0.56c0.92-0.017,1.88,0.021,1.88,0.021l-0.364,0.685l0.948-1.043L17.171,5.515z"/>
	</g>
	<g>
		<path style="fill:#002654;" d="M15.612,2.903L15.096,2.65l-1.66,0.368c0,0,0.343,0.392,0.343,1.062
			c0,0.388-0.152,0.76-0.409,1.099c-0.567,0.75-1.643,1.343-2.693,1.616c-0.216,0.056-0.366,0.142-0.469,0.264
			c-0.043,0.051-0.078,0.108-0.105,0.173L9.666,8.251C8.352,8.811,8.14,9.985,8.243,10.65c0.035-0.958,1.022-2.322,2.653-2.029
			c0,0,0.231-0.462,0.745-0.846c-0.124-0.281-0.146-0.609-0.064-0.96c0.006,0.343,0.093,0.63,0.234,0.847
			c0.146-0.09,0.299-0.167,0.461-0.228c-0.047-0.351,0.046-0.717,0.273-1.063c-0.129,0.372-0.138,0.714-0.054,0.992
			c0.161-0.044,0.328-0.075,0.499-0.088c0.05-0.417,0.284-0.793,0.674-1.087c-0.294,0.365-0.426,0.745-0.411,1.079
			c0.245,0.006,0.481,0.044,0.705,0.111l0.602-0.661l0.509-0.56c0,0-0.432-0.336-0.604-0.951c-0.044-0.154-0.071-0.325-0.071-0.513
			C14.393,3.372,15.612,2.903,15.612,2.903"/>
		<path style="fill:#002654;" d="M18.939,5.438c-0.012-0.27,0.032-0.767-0.97-1.077l-1.196-0.369c0,0,0.925,0.827,0.925,1.014
			c0,0.328,0.265,0.593,0.593,0.593c0.115,0,0.223-0.033,0.314-0.09l0.021,0.243c0.42,0.033,0.908-0.033,1.033-0.581
			C19.488,5.567,19.108,5.512,18.939,5.438"/>
		<path style="fill:#002654;" d="M19.194,5.361l0.149-0.576l-1.17-0.559C18.937,4.675,19.194,4.925,19.194,5.361"/>
	</g>
	<path style="fill:#FCB514;" d="M18.373,5.416c0.124,0,0.217-0.059,0.217-0.059c-0.009-0.044-0.019-0.086-0.029-0.126
		C18.53,5.25,18.486,5.27,18.436,5.27c-0.135,0-0.219-0.104-0.219-0.218c0-0.097,0.067-0.185,0.162-0.21
		c-0.119-0.168-0.238-0.24-0.238-0.24s-0.208,0.116-0.208,0.373S18.148,5.416,18.373,5.416"/>
</g>
</svg>
