<?xml version="1.0" encoding="iso-8859-1"?>
<!-- Generator: Adobe Illustrator 17.1.0, SVG Export Plug-In . SVG Version: 6.00 Build 0)  -->
<!DOCTYPE svg PUBLIC "-//W3C//DTD SVG 1.1//EN" "http://www.w3.org/Graphics/SVG/1.1/DTD/svg11.dtd">
<svg version="1.1" id="Layer_1" xmlns="http://www.w3.org/2000/svg" xmlns:xlink="http://www.w3.org/1999/xlink" x="0px" y="0px" viewBox="0 0 24 16" style="enable-background:new 0 0 24 16;" xml:space="preserve">
<g>
	<g>
		<path style="fill:#003893;" d="M18.404,13.737c-0.227,0-0.411,0.184-0.411,0.411s0.185,0.411,0.411,0.411
			c0.228,0,0.412-0.185,0.412-0.411C18.816,13.921,18.632,13.737,18.404,13.737z M18.404,14.472c-0.178,0-0.323-0.145-0.323-0.323
			s0.146-0.323,0.323-0.323c0.179,0,0.323,0.145,0.323,0.323S18.583,14.472,18.404,14.472z"/>
		<path style="fill:#003893;" d="M18.573,14.053c0-0.077-0.062-0.14-0.14-0.14h-0.198v0.47h0.089v-0.19h0.063l0.089,0.19h0.097
			l-0.093-0.198C18.535,14.165,18.573,14.113,18.573,14.053z M18.434,14.104h-0.109V14h0.109c0.029,0,0.052,0.023,0.052,0.052
			S18.463,14.104,18.434,14.104z"/>
	</g>
	<path style="fill:#F95602;" d="M12,0.589C7.746,0.589,4.298,3.907,4.298,8S7.746,15.411,12,15.411S19.702,12.093,19.702,8
		S16.254,0.589,12,0.589z"/>
	<path style="fill:#003893;" d="M19.205,7.562c-0.008-0.122-0.015-0.244-0.029-0.364l0.003-0.001
		c-0.218-1.812-1.162-3.41-2.547-4.521c-0.15-0.121-0.307-0.235-0.468-0.344C14.986,1.535,13.551,1.064,12,1.064
		c-0.958,0-1.871,0.181-2.708,0.505c-0.699,0.271-1.345,0.644-1.916,1.1C5.785,3.941,4.771,5.857,4.771,8
		c0,3.831,3.236,6.936,7.229,6.936S19.229,11.831,19.229,8c0-0.147-0.007-0.294-0.016-0.44"/>
	<g>
		<path style="fill:#FFFFFF;" d="M11.289,11.921l0.987-0.235c0.088-0.021,0.161-0.081,0.199-0.163l0.613-1.304l0.542-1.153
			l0.381-0.813l0.188-0.4l0.388-0.824l2.044-4.351c-0.15-0.121-0.307-0.235-0.468-0.344l-1.281,2.6l-1.537-3.311
			c-0.018-0.04-0.057-0.064-0.101-0.064h-2.667c-0.062,0-0.111,0.05-0.111,0.111v2.168L9.292,1.569
			c-0.699,0.271-1.345,0.644-1.916,1.1v4.035c0,0.062,0.05,0.111,0.111,0.111h1.515c0.061,0,0.111-0.05,0.111-0.111V4.901
			l1.115,1.86c0.021,0.034,0.056,0.055,0.096,0.055h1.698c0.062,0,0.111-0.05,0.111-0.111v-3.5l1.747,3.763l-0.209,0.424
			L12.443,9.89l-0.211,0.427c-0.043,0.089-0.128,0.149-0.226,0.163l-3.319,0.457c-0.029,0.004-0.056,0.02-0.074,0.043
			c-0.018,0.024-0.025,0.054-0.021,0.084l0.202,1.327c0.005,0.031,0.022,0.059,0.048,0.076S8.9,12.489,8.93,12.483l0.329-0.078"/>
		<path style="fill:#FFFFFF;" d="M10.69,11.855"/>
	</g>
	<g>
		<polygon style="fill:#F95602;" points="13.165,10.057 12.522,9.729 12.443,9.89 13.089,10.219 		"/>
		<polygon style="fill:#F95602;" points="13.419,9.515 12.786,9.191 12.707,9.353 13.344,9.677 		"/>
		<polygon style="fill:#F95602;" points="12.575,9.621 13.216,9.947 13.292,9.785 12.654,9.46 		"/>
		<path style="fill:#F95602;" d="M10.256,12.167L10.198,11.8c-0.003-0.02-0.018-0.035-0.037-0.04l-0.646-0.157
			c-0.026-0.007-0.053,0.009-0.06,0.035L9.26,12.404L8.92,13.73c-0.006,0.025,0.008,0.051,0.033,0.059l0.38,0.124
			c0.013,0.004,0.027,0.002,0.039-0.004c0.012-0.007,0.021-0.019,0.023-0.031l0.099-0.388l0.52,0.169l0.075,0.472
			c0.003,0.018,0.016,0.033,0.033,0.039l0.397,0.129c0.017,0.006,0.034,0.002,0.048-0.009c0.013-0.012,0.02-0.028,0.017-0.046
			L10.256,12.167z"/>
		<path style="fill:#F95602;" d="M13.672,7.392c-0.445-0.07-0.999,0.225-1.389,0.018c-0.448-0.014-0.971,0.016-1.367-0.194
			c-0.259-0.041-0.535-0.038-0.77-0.132C10.02,7.32,9.877,7.007,9.727,7.053C9.637,7.081,9.561,7.18,9.579,7.287
			C9.532,7.531,9.236,7.389,9.083,7.491C8.803,7.65,8.647,7.248,8.379,7.252c-0.183-0.05-0.4-0.027-0.502,0.159
			C7.72,7.451,7.64,7.246,7.461,7.312C7.337,7.235,7.517,7.183,7.47,7.089C7.368,6.978,7.178,6.896,7.034,6.99
			c-0.026,0.191,0.179,0.356,0.07,0.558c-0.106,0.021-0.1-0.134-0.191-0.171C6.812,7.328,6.807,7.453,6.752,7.502
			C6.552,7.493,6.594,7.27,6.53,7.148c-0.232-0.036-0.418,0.106-0.61,0.19C5.786,7.441,5.874,7.66,5.759,7.767
			C5.669,7.699,5.678,7.57,5.589,7.49C5.514,7.44,5.424,7.405,5.331,7.437C5.245,7.458,5.221,7.53,5.203,7.605
			C5.205,7.65,5.25,7.685,5.299,7.672C5.356,7.686,5.401,7.753,5.374,7.81C5.345,7.851,5.325,7.932,5.255,7.917
			c-0.076-0.072-0.184-0.174-0.291-0.13c-0.045,0.04,0,0.095,0,0.138c-0.049,0.165,0.071,0.26,0.16,0.376
			C5.154,8.43,5.167,8.616,5.069,8.71C4.937,8.736,4.903,8.883,4.891,8.994c0.031,0.112,0.154,0.104,0.2,0.197
			c0.023,0.076-0.06,0.134-0.128,0.177C4.989,9.495,5.02,9.62,5.054,9.745C5.135,9.713,5.227,9.683,5.28,9.691
			c0.045,0.022,0.075,0.062,0.075,0.107c0.044,0.085,0.134,0.169,0.236,0.12C5.694,9.874,5.787,9.732,5.898,9.79v0.842v0.437
			l0.339,0.486c0.084,0.123,0.139,0.093,0.139-0.012v-0.911V9.761c0.178-0.005,0.38,0.014,0.544-0.052
			c0.325,0.023,0.713,0.113,0.995-0.072c0.249-0.045,0.481-0.129,0.749-0.128c0.183-0.014,0.342,0.067,0.513,0.055
			c0.267-0.302,0.646,0.056,0.962-0.136c0.246-0.125,0.455,0.094,0.718,0.054c0.165-0.002,0.415-0.186,0.558,0.034
			c0.12,0.059,0.29,0.037,0.393-0.039c0.063-0.231,0.329-0.142,0.504-0.195c0.116-0.025,0.343-0.143,0.497-0.133l0.032-0.064
			l0.631,0.321l0.076-0.162l-0.628-0.32L13.672,7.392z"/>
		<g>
			<path style="fill:#F95602;" d="M14.744,7.546c0.18-0.237,0.638,0.046,0.697-0.319c0.07-0.191,0.285-0.12,0.419-0.214
				c0.04-0.07-0.031-0.12-0.045-0.183c0.175-0.19,0.411-0.323,0.599-0.52c0.135-0.132,0.345-0.102,0.518-0.105
				c0.081-0.049,0.197-0.12,0.215-0.214L17.124,5.96c-0.246-0.036-0.512,0.008-0.739,0.083c-0.256,0.23-0.537,0.396-0.843,0.488
				c-0.209,0.265-0.644,0.389-0.954,0.496L14.2,7.852C14.396,7.8,14.656,7.66,14.744,7.546z"/>
			<path style="fill:#F95602;" d="M7.671,10.63l-0.69-0.622c-0.267-0.24-0.453-0.029-0.453,0.125v0.643
				c0,0.123,0.041,0.195,0.097,0.269L7.25,11.86c0.035,0.046,0.049,0.092,0.049,0.146v0.091c0,0.072-0.064,0.066-0.114,0.021
				L7.05,12.003c-0.05-0.037-0.045-0.114-0.045-0.18V11.74c0-0.044-0.047-0.123-0.094-0.161l-0.312-0.286
				c-0.048-0.045-0.071-0.007-0.071,0.114v0.372c0,0.098,0.063,0.293,0.21,0.425l0.715,0.644c0.174,0.155,0.323,0.004,0.323-0.354
				v-0.41c0-0.204-0.091-0.409-0.197-0.548l-0.525-0.685c0,0-0.048-0.062-0.048-0.143v-0.071c0,0,0.019-0.103,0.102-0.028
				l0.134,0.12C7.276,10.761,7.3,10.81,7.3,10.868v0.097c0,0.057,0.015,0.099,0.067,0.147l0.252,0.226
				c0.106,0.096,0.158,0.027,0.158-0.057v-0.386C7.775,10.753,7.714,10.668,7.671,10.63z"/>
			<path style="fill:#F95602;" d="M8.837,13.29l-0.379-0.225v-1.887c0-0.021-0.011-0.042-0.029-0.054l-0.354-0.21
				c-0.02-0.011-0.043-0.011-0.062,0S7.98,10.946,7.98,10.969v2.232c0,0.021,0.012,0.042,0.03,0.053l0.764,0.453
				c0.019,0.011,0.042,0.012,0.062,0c0.02-0.011,0.031-0.031,0.031-0.054v-0.31C8.867,13.321,8.855,13.302,8.837,13.29z"/>
			<path style="fill:#F95602;" d="M13.745,11.812l-0.992,0.197c-0.028,0.006-0.05,0.031-0.05,0.061v2.23
				c0,0.018,0.009,0.035,0.022,0.047s0.032,0.017,0.051,0.014l0.969-0.174c0.478-0.085,0.478-0.372,0.478-0.434v-1.749
				C14.223,12.004,14.223,11.717,13.745,11.812z"/>
			<path style="fill:#F95602;" d="M15.452,11.146c-0.015-0.01-0.033-0.01-0.048-0.003L14.51,11.58
				c-0.018,0.009-0.027,0.025-0.027,0.044v2.245c0,0.018,0.008,0.033,0.022,0.042s0.031,0.011,0.047,0.004l0.894-0.403
				c0.019-0.008,0.029-0.025,0.029-0.045V13.15c0-0.017-0.008-0.032-0.022-0.042c-0.015-0.009-0.031-0.011-0.047-0.004l-0.376,0.17
				c-0.016,0.007-0.033,0.005-0.047-0.004s-0.022-0.024-0.022-0.041v-0.425c0-0.02,0.012-0.037,0.029-0.046l0.456-0.205
				c0.019-0.008,0.029-0.025,0.029-0.045v-0.319c0-0.017-0.009-0.032-0.022-0.042c-0.015-0.009-0.033-0.01-0.048-0.002l-0.373,0.183
				c-0.016,0.007-0.033,0.006-0.048-0.003s-0.023-0.024-0.023-0.042v-0.454c0-0.019,0.011-0.036,0.027-0.044l0.46-0.225
				c0.017-0.009,0.027-0.025,0.027-0.045v-0.328C15.475,11.17,15.466,11.154,15.452,11.146z"/>
			<path style="fill:#F95602;" d="M16.53,11.876c0,0,0.28-0.209,0.28-0.589v-0.588c0-0.312-0.2-0.341-0.428-0.184l-0.745,0.514
				c-0.014,0.01-0.021,0.024-0.021,0.041v2.22c0,0.019,0.01,0.035,0.026,0.044s0.035,0.007,0.051-0.003l0.379-0.258
				c0.014-0.009,0.022-0.024,0.022-0.04v-0.856l0.078-0.055l0.416,0.545c0.016,0.021,0.045,0.025,0.067,0.011l0.277-0.188
				c0.011-0.008,0.019-0.02,0.021-0.033c0.003-0.014-0.001-0.027-0.01-0.038L16.53,11.876z"/>
			<path style="fill:#F95602;" d="M17.574,9.31l-0.481,0.531c-0.123,0.139-0.15,0.286-0.15,0.456v0.226
				c0,0.158,0.032,0.301,0.236,0.344l0.264,0.059c0.085,0.02,0.132,0.043,0.132,0.104v0.059c0,0.093-0.021,0.115-0.061,0.154
				s-0.129,0.132-0.129,0.016V11.16c0-0.082-0.034-0.082-0.087-0.029l-0.304,0.312c-0.036,0.032-0.052,0.071-0.052,0.135v0.199
				c0,0.358,0.185,0.429,0.373,0.18l0.455-0.601c0.188-0.247,0.188-0.494,0.188-0.637c0-0.17-0.146-0.24-0.25-0.259l-0.223-0.038
				c-0.079-0.015-0.101-0.069-0.101-0.146v-0.121c0-0.037,0-0.134,0.064-0.201l0.045-0.046c0.047-0.048,0.08-0.047,0.08,0.039v0.175
				c0,0.036,0.021,0.057,0.053,0.023l0.278-0.287c0.047-0.049,0.053-0.125,0.053-0.177V9.389C17.958,9.087,17.75,9.115,17.574,9.31z
				"/>
			<path style="fill:#F95602;" d="M14.429,9.61c-0.562,0-1.017,0.153-1.017,0.343v0.564c0,0.189,0.455,0.343,1.017,0.343
				c0.561,0,1.017-0.153,1.017-0.343V9.953C15.445,9.764,14.989,9.61,14.429,9.61z"/>
			<path style="fill:#F95602;" d="M14.251,8.806c0.217,0.166,0.253-0.151,0.429-0.169c0.111-0.025,0.204,0.072,0.274,0.152
				c0.264,0.113,0.582,0.038,0.796-0.14c0.23-0.098,0.524-0.058,0.758-0.158c0.156-0.104,0.307-0.227,0.527-0.19
				c0.652-0.225,1.584-0.547,2.262-0.785c-0.008-0.121,0.015-0.197,0-0.317L19.026,7.25c-0.092,0.343-0.487,0.115-0.653,0.359
				c-0.213,0.013-0.444,0.03-0.557,0.244c-0.068,0.021-0.166,0.021-0.192-0.062c0.046-0.196-0.274-0.265-0.127-0.474
				c-0.009-0.089-0.116-0.099-0.184-0.071c-0.142,0.052-0.152,0.204-0.169,0.328c-0.193,0.035-0.21-0.303-0.42-0.224
				c-0.215,0.205-0.486,0.299-0.795,0.244c-0.547-0.042-0.728,0.671-1.195,0.82c-0.201,0.032-0.503-0.084-0.722-0.162l-0.381,0.813
				l0.223-0.056C14.001,8.975,14.117,8.877,14.251,8.806z"/>
		</g>
		<path style="fill:#F95602;" d="M12.378,12.034l-0.354-0.042c-0.018-0.002-0.034,0.003-0.048,0.015s-0.021,0.029-0.021,0.047v1.238
			l-0.653-1.356c-0.003-0.006-0.009-0.011-0.013-0.015c-0.01-0.011-0.021-0.019-0.036-0.02l-0.514-0.061
			c-0.019-0.002-0.035,0.003-0.049,0.015c-0.013,0.012-0.021,0.028-0.021,0.046v0.167v2.198c0,0.031,0.022,0.058,0.053,0.062
			l0.354,0.049c0.019,0.002,0.036-0.003,0.05-0.015c0.013-0.012,0.021-0.029,0.021-0.047V12.88l0.772,1.507
			c0.012,0.022,0.034,0.035,0.059,0.034l0.396-0.023c0.032-0.002,0.058-0.029,0.058-0.062v-2.24
			C12.433,12.063,12.409,12.038,12.378,12.034z"/>
	</g>
	<g>
		<path style="fill:#003893;" d="M13.537,12.309l-0.355,0.07v1.5l0.377-0.067c0.187-0.033,0.187-0.244,0.187-0.244V12.46
			C13.745,12.46,13.745,12.267,13.537,12.309z"/>
		<path style="fill:#003893;" d="M16.271,11.071l-0.154,0.107c-0.014,0.009-0.021,0.023-0.021,0.04v0.395
			c0,0.019,0.01,0.035,0.026,0.044c0.016,0.009,0.035,0.007,0.051-0.003l0.107-0.074c0.057-0.04,0.104-0.134,0.104-0.214v-0.23
			C16.383,11.069,16.333,11.028,16.271,11.071z"/>
		<polygon style="fill:#003893;" points="9.938,13.183 9.797,12.294 9.6,13.072 		"/>
		<path style="fill:#003893;" d="M6.376,9.761V9.277l-0.478-0.42v0.934C6.044,9.752,6.224,9.802,6.376,9.761z"/>
	</g>
	<ellipse style="fill:#FFFFFF;" cx="14.429" cy="9.954" rx="1.017" ry="0.343"/>
</g>
</svg>
