<?xml version="1.0" encoding="utf-8"?>
<!-- Generator: Adobe Illustrator 16.0.4, SVG Export Plug-In . SVG Version: 6.00 Build 0)  -->
<!DOCTYPE svg PUBLIC "-//W3C//DTD SVG 1.1//EN" "http://www.w3.org/Graphics/SVG/1.1/DTD/svg11.dtd">
<svg version="1.1" id="Layer_1" xmlns="http://www.w3.org/2000/svg" xmlns:xlink="http://www.w3.org/1999/xlink" x="0px" y="0px" viewBox="0 0 24 16" enable-background="new 0 0 24 16" xml:space="preserve">
<g>
	<path fill="#0038A8" d="M15.959,0.335l-0.576,0.56l-0.574-0.56H9.192l-0.575,0.56l-0.576-0.56H4.027l1.2,2.13v10.348
		c0,0.209,0,1.834,1.964,1.834h3.105c1.115,0,1.658,1.019,1.658,1.019h0.09c0,0,0.543-1.019,1.658-1.019h3.107
		c1.963,0,1.963-1.625,1.963-1.834V2.465l1.199-2.13H15.959z"/>
	<g>
		<path fill="#FFFFFF" d="M18.674,2.438l1.129-2.004H16l-0.617,0.6l-0.615-0.6H9.232l-0.615,0.6l-0.616-0.6H4.198l1.13,2.004v10.374
			c0,0.521,0.182,1.733,1.863,1.733h3.105c0.997,0,1.551,0.767,1.703,1.009c0.152-0.242,0.706-1.009,1.703-1.009h3.107
			c1.682,0,1.863-1.212,1.863-1.733V2.438z"/>
		<path fill="#0038A8" d="M18.793,14.283c-0.211,0-0.383,0.172-0.383,0.384c0,0.211,0.172,0.383,0.383,0.383
			c0.213,0,0.385-0.172,0.385-0.383C19.178,14.455,19.006,14.283,18.793,14.283z M18.793,14.968c-0.166,0-0.301-0.135-0.301-0.301
			c0-0.167,0.135-0.301,0.301-0.301c0.168,0,0.303,0.134,0.303,0.301C19.096,14.833,18.961,14.968,18.793,14.968z"/>
		<path fill="#0038A8" d="M18.951,14.578c0-0.072-0.059-0.13-0.129-0.13h-0.186v0.438h0.082v-0.178h0.059l0.084,0.178h0.09
			L18.865,14.7C18.916,14.683,18.951,14.634,18.951,14.578z M18.822,14.626h-0.104V14.53h0.104c0.025,0,0.047,0.021,0.047,0.048
			S18.848,14.626,18.822,14.626z"/>
	</g>
	<path fill="#0038A8" d="M16.186,0.893l-0.803,0.78l-0.801-0.78H9.419l-0.802,0.78l-0.803-0.78H4.981l0.804,1.427v10.493
		c0,0.582,0.244,1.275,1.406,1.275h3.105c0.789,0,1.352,0.443,1.703,0.797c0.352-0.354,0.914-0.797,1.703-0.797h3.107
		c1.16,0,1.404-0.693,1.404-1.275V2.319l0.805-1.427H16.186z"/>
	<polygon fill="#CE1126" points="10.934,5.48 17.871,10.505 17.871,5.48"/>
	<g>
		<rect x="6.13" y="4.773" fill="#FFFFFF" width="11.741" height="0.283"/>
		<path fill="#FFFFFF" d="M6.13,12.812c0,0.825,0.566,0.932,1.062,0.932h3.105c0.707,0,1.279,0.371,1.703,0.712
			c0.425-0.341,0.996-0.712,1.703-0.712h1.125l-8.698-6.3V12.812z"/>
		<polygon fill="#FFFFFF" points="6.13,6.86 15.633,13.744 16.037,13.744 6.13,6.568 		"/>
		<polygon fill="#FFFFFF" points="9.725,5.48 17.871,11.381 17.871,11.089 10.129,5.48 		"/>
		<polygon fill="#FFFFFF" points="13.084,11.073 13.771,11.571 13.971,11.295 13.564,11.001 13.889,10.553 14.295,10.848 
			14.496,10.571 14.09,10.277 14.414,9.829 14.818,10.124 15.02,9.848 14.332,9.35 		"/>
		<path fill="#FFFFFF" d="M9.643,5.953l-0.635-0.46L7.759,7.217L8.04,7.421l0.559-0.772l0.157,0.114L8.492,7.747l0.281,0.204
			L9.04,6.954c0.177,0.072,0.386,0.019,0.502-0.143l0.195-0.27C9.874,6.354,9.832,6.09,9.643,5.953z"/>
		<path fill="#FFFFFF" d="M15.203,12.608l0.268-0.998c0.176,0.073,0.385,0.02,0.502-0.143l0.195-0.269
			c0.137-0.188,0.094-0.452-0.094-0.589l-0.637-0.46l-1.248,1.723l0.281,0.204l0.559-0.771l0.156,0.113l-0.264,0.986L15.203,12.608z
			"/>
		<polygon fill="#FFFFFF" points="11.625,7.39 10.378,9.113 10.658,9.316 11.408,8.282 11.111,9.645 11.393,9.848 12.641,8.124 
			12.359,7.921 11.609,8.955 11.907,7.593 		"/>
		<path fill="#FFFFFF" d="M8.963,8.089l0.281,0.203l0.354-0.285l0.469,0.339l-0.16,0.427l0.281,0.203l0.776-2.065l-0.282-0.203
			L8.963,8.089z"/>
		<path fill="#FFFFFF" d="M13.604,8.822l-0.234-0.171c-0.189-0.137-0.453-0.095-0.59,0.094l-0.754,1.041
			c-0.137,0.188-0.094,0.452,0.095,0.589l0.235,0.171c0.061,0.043,0.128,0.068,0.197,0.077l-0.006,0.062l0.15,0.108l0.668-0.922
			l-0.549-0.396l-0.17,0.235l0.266,0.192l-0.211,0.293c-0.047,0.065-0.139,0.08-0.203,0.032l-0.121-0.087
			c-0.064-0.047-0.079-0.139-0.031-0.203l0.678-0.936c0.047-0.065,0.137-0.079,0.203-0.032l0.119,0.087
			c0.066,0.047,0.08,0.138,0.033,0.203l-0.166,0.229l0.281,0.203l0.203-0.28C13.834,9.223,13.793,8.959,13.604,8.822z"/>
		<path fill="#FFFFFF" d="M17.121,11.369c-0.258-0.187-0.617-0.129-0.803,0.129c-0.338,0.467,0.314,1.033,0.137,1.278
			c-0.084,0.114-0.244,0.141-0.359,0.057c-0.113-0.082-0.141-0.243-0.057-0.358l0.08-0.111l-0.281-0.204l-0.076,0.107
			c-0.197,0.27-0.137,0.647,0.135,0.843c0.27,0.196,0.646,0.136,0.842-0.135c0.336-0.462-0.316-1.029-0.135-1.278
			c0.072-0.102,0.215-0.125,0.316-0.051c0.104,0.074,0.127,0.217,0.053,0.319l-0.068,0.093l0.281,0.203l0.064-0.088
			C17.436,11.916,17.379,11.556,17.121,11.369z"/>
		<polygon fill="#FFFFFF" points="8.798,4.078 8.297,4.078 8.297,3.525 8.798,3.525 8.798,3.185 8.297,3.185 8.297,2.633 
			8.798,2.633 8.798,2.291 7.949,2.291 7.949,4.419 8.798,4.419 		"/>
		<path fill="#FFFFFF" d="M15.123,3.467h0.193l0.363,0.952h0.348l-0.369-0.964c0.186-0.045,0.324-0.211,0.324-0.41V2.713
			c0-0.233-0.189-0.422-0.422-0.422h-0.785v2.128h0.348V3.467z"/>
		<polygon fill="#FFFFFF" points="6.587,3.142 7.146,4.419 7.493,4.419 7.493,2.291 7.146,2.291 7.146,3.569 6.587,2.291 
			6.24,2.291 6.24,4.419 6.587,4.419 		"/>
		<path fill="#FFFFFF" d="M13.764,4.419h0.291c0.232,0,0.422-0.188,0.422-0.421V2.713c0-0.233-0.189-0.422-0.422-0.422h-0.291
			c-0.232,0-0.422,0.188-0.422,0.422v1.285C13.342,4.23,13.531,4.419,13.764,4.419z"/>
		<polygon fill="#FFFFFF" points="16.758,3.538 16.914,3.288 17.412,4.419 17.76,4.419 17.117,2.962 17.535,2.291 17.188,2.291 
			16.758,2.981 16.758,2.291 16.41,2.291 16.41,4.419 16.758,4.419 		"/>
		<polygon fill="#FFFFFF" points="12.346,4.419 12.693,4.419 12.693,3.538 13.152,2.291 12.805,2.291 12.52,3.066 12.234,2.291 
			11.888,2.291 12.346,3.538 		"/>
		<polygon fill="#FFFFFF" points="9.891,4.419 10.072,3.304 10.255,4.419 10.67,4.419 11.018,2.291 10.67,2.291 10.462,3.564 
			10.255,2.291 9.891,2.291 9.683,3.564 9.475,2.291 9.128,2.291 9.475,4.419 		"/>
	</g>
	<g>
		<path fill="#0038A8" d="M13.834,4.078h0.148c0.08,0,0.146-0.065,0.146-0.146V2.778c0-0.081-0.066-0.146-0.146-0.146h-0.148
			c-0.08,0-0.145,0.064-0.145,0.146v1.154C13.689,4.013,13.754,4.078,13.834,4.078z"/>
		<polygon fill="#0038A8" points="10.173,8.063 10.452,7.322 9.834,7.818 		"/>
		<path fill="#0038A8" d="M9.386,6.188L9.089,5.973l-0.29,0.399l0.297,0.216C9.161,6.635,9.252,6.62,9.3,6.555l0.118-0.163
			C9.465,6.326,9.45,6.235,9.386,6.188z"/>
		<path fill="#0038A8" d="M15.635,2.979V2.778c0-0.081-0.066-0.146-0.146-0.146h-0.365v0.493h0.365
			C15.568,3.126,15.635,3.061,15.635,2.979z"/>
		<path fill="#0038A8" d="M15.73,11.212l0.117-0.164c0.047-0.064,0.033-0.155-0.031-0.203L15.52,10.63l-0.291,0.399l0.297,0.215
			C15.592,11.291,15.682,11.277,15.73,11.212z"/>
	</g>
</g>
</svg>
