<?xml version="1.0" encoding="utf-8"?>
<!-- Generator: Adobe Illustrator 16.0.4, SVG Export Plug-In . SVG Version: 6.00 Build 0)  -->
<!DOCTYPE svg PUBLIC "-//W3C//DTD SVG 1.1//EN" "http://www.w3.org/Graphics/SVG/1.1/DTD/svg11.dtd">
<svg version="1.1" id="Layer_1" xmlns="http://www.w3.org/2000/svg" xmlns:xlink="http://www.w3.org/1999/xlink" x="0px" y="0px" viewBox="0 0 24 16" enable-background="new 0 0 24 16" xml:space="preserve">
<g>
	<path d="M14.901,5.909l-1.534-2.096l-0.498,0.231c0,0-0.332-0.127-0.905-0.203l0.36-0.363V2.654h-0.254
		c0.443-0.719-0.256-1.465,1.022-2.334H9.789C7.295,1.161,7.916,5.842,7.916,5.842l0.478-0.181c0,0-0.298,0.625-0.172,1.095
		c0,0-0.328,0.712,0.071,1.392L8.057,8.48l0.051,1.524C7.775,10.584,6.516,10.269,6.4,10.92c-0.049,0.275-0.714,0.505-0.714,0.505
		c-0.698,2.079,4.616,2.47,5.49,3.75c0.663,0.323,1.408,0.506,2.196,0.506c2.765,0,5.005-2.241,5.005-5.006
		C18.377,8.444,16.917,6.555,14.901,5.909z"/>
	<g>
		<path fill="#CE1126" d="M10.016,2.433L9.771,0.847C8.018,1.595,8.252,5.185,8.252,5.185l1.782-2.587h1.644
			c0.284-0.563-0.063-1.46,0.566-1.845h-2.169L10.016,2.433z"/>
		<path fill="#CE1126" d="M9.473,13.178c0.718,0.16,1.678,0.769,1.678,0.769c-0.07-0.254-0.275-0.498-0.275-0.498
			c-1.207-0.381-1.93-1.132-1.93-1.132l-1.839-1.011c0,0,1.096,0.006,0.998-0.805C7.63,10.85,6.718,10.714,6.718,11.09
			c0,0.413,0.724,0.833,2.148,1.737l-2.203-1.01l0.132-0.144l-0.152-0.295c-0.016,0.113-0.575,0.115-0.575,0.492
			c0,1.329,4.703,1.825,5.566,3.082C11.736,14.299,10.45,13.677,9.473,13.178z"/>
		<path fill="#CE1126" d="M15.207,10.754c0,0,0.475,0.409,0.475,0.55c0,0.142-0.995,0.729-0.995,0.729
			c0.334-0.461,0.604-0.684,0.604-0.883c0-0.197-0.353-0.251-0.448-0.628c-0.36,0.58-0.378,0.953-0.378,0.953l0.177,1.214
			l-0.482-0.059c-1.01,1.009-0.898,2.117-0.898,2.117c0.635-1.837,2.783-1.863,2.783-3.598
			C15.883,11.021,15.207,10.754,15.207,10.754z"/>
	</g>
	<g>
		<path fill="#FFFFFF" d="M13.246,10.815l0.302-0.146l-0.329-1.282l0.132-0.394l0.905-0.348l0.263,0.112l-0.036-0.412
			c0,0-0.259-0.249-0.56-0.249c-0.293,0-0.41,0.21-0.811,0.696c0,0-0.231-0.606-1.172-0.606c-0.796,0-1.751,0.371-1.751,0.371
			c-0.168,0.229-0.146,0.718,1.002,0.632l-0.163,0.754l0.636,0.091c0,0-0.81,1.787-0.365,2.217c0.422,0.406,0.856,0.843,1.006,0.843
			c0.592,0,0.965-0.154,1.038-0.228c0.033-0.033,0.056-0.106,0.056-0.199c0-0.331-0.328-0.368-0.587-0.368
			c-0.558,0-0.759,0.195-0.759,0.195l0.106-0.361c0.07-0.264,1.196-0.125,1.196-0.125l-0.026-0.35l-0.224,0.034l-0.473-0.073
			l-1.115,0.03l-0.055-0.041l1.33-0.235l0.29,0.059l0.25-0.062l-0.136-0.121l-0.145,0.057l-0.028-0.295l-0.793-0.133l0.625-0.217
			L13.246,10.815z"/>
		<path fill="#FFFFFF" d="M14.388,9.116l-0.252,0.048c-0.104,0.419-0.401,0.246-0.447,0.145l-0.119,0.434l0.199,0.652l0.166,0.358
			l-0.286,0.24l0.222,0.251l0.077,0.181l0.323-1.063l0.26-0.426c0.046-0.073-0.212-0.582-0.212-0.582L14.388,9.116z"/>
		<polygon fill="#FFFFFF" points="11.934,13.777 12.643,14.262 12.83,13.617 12.209,13.528 		"/>
		<path d="M17.465,14.472c-0.164,0-0.296,0.132-0.296,0.296c0,0.163,0.132,0.296,0.296,0.296
			c0.163,0,0.296-0.133,0.296-0.296C17.761,14.604,17.628,14.472,17.465,14.472z M17.465,15c-0.129,0-0.232-0.104-0.232-0.232
			s0.104-0.232,0.232-0.232c0.128,0,0.232,0.104,0.232,0.232S17.593,15,17.465,15z"/>
		<path d="M17.586,14.699c0-0.056-0.045-0.101-0.101-0.101h-0.142v0.338h0.062V14.8h0.046l0.064,0.137h0.069
			l-0.066-0.143C17.559,14.779,17.586,14.742,17.586,14.699z M17.485,14.736h-0.079v-0.074h0.079c0.021,0,0.037,0.017,0.037,0.037
			S17.507,14.736,17.485,14.736z"/>
	</g>
	<g>
		<path fill="#BF910C" d="M14.633,8.022l-1.439-0.824l-2.878,0.98c0,0,1.066-0.277,1.851-0.277c0.854,0,1.003,0.46,1.003,0.46
			s0.264-0.476,0.662-0.476c0.48,0,0.814,0.28,0.814,0.28L14.633,8.022z"/>
		<path fill="#BF910C" d="M11.549,3.87l0.241-0.256H10.54L9.496,4.456l0.924-1.083h1.517V2.93h-1.649L8.813,4.929l0.07,0.344
			C8.883,5.273,9.696,3.87,11.549,3.87z"/>
		<path fill="#BF910C" d="M10.582,11.396c0-0.97,0.236-1.976,0.236-1.976s-1.441,0.1-1.185-1.116c0,0-0.314,0.256-0.599,0.145
			c0,0,0.541-0.144,0.541-0.734l0.141,0.43l3.741-1.494l1.473,1.28l-0.033-0.576c-0.165,0.06-0.519-0.184-0.519-0.184l0.054-0.045
			c0,0,0.239,0.123,0.453,0.035l-0.033-0.568l-1.62-2.253l-0.368,0.138c0,0-0.793-0.335-1.562-0.335
			c-1.175,0-2.638,1.162-2.638,2.446l0.787,0.058L11.6,5.052L9.44,7.165c0,0-0.191-0.373-0.466-0.373
			c-0.189,0-0.481,0.226-0.481,0.78c0,0.436,0.214,0.649,0.214,0.649L8.455,8.562c0.185,2.73-0.124,3.009-0.685,2.854l1.096,0.529
			c0-1.912-0.071-2.493,0.116-2.493c0.308,0,0.276,1.901,0.357,2.795c0,0,0.791,0.917,2.363,1.067
			C11.703,13.313,10.582,12.601,10.582,11.396z"/>
		<polygon fill="#BF910C" points="14.143,11.808 13.959,12.297 14.244,12.344 		"/>
		<path fill="#BF910C" d="M15.381,6.576v1.622c0.721,0.586,1.182,1.479,1.182,2.477c0,1.383-0.883,2.562-2.115,3.005
			c-0.521,0.851-0.376,1.352-0.311,1.497c2.154-0.364,3.801-2.244,3.801-4.502C17.938,8.878,16.894,7.321,15.381,6.576z"/>
	</g>
	<g>
		<path d="M11.611,7.041L11.5,6.972c-0.755,0.142-0.626-0.116-0.81-0.116c0.072-0.071,0.006-0.211,0.198-0.403L10.871,6.43
			c-0.468,0.278-0.196,0.449-0.518,0.617l0.012,0.027C10.75,6.944,10.609,7.413,11.611,7.041z"/>
		<path d="M12.111,6.558L12.05,6.533c-0.545,0.255-0.543,0.007-0.652,0.041c0.056-0.094-0.107-0.208,0.261-0.562l-0.005-0.035
			c-0.639,0.425-0.334,0.591-0.535,0.793l0.019,0.025C11.356,6.656,11.372,7.05,12.111,6.558z"/>
		<path d="M10.631,7.383c0,0-0.067-0.062-0.145-0.093c-0.428,0.044-0.365-0.125-0.513-0.118c0.132-0.102-0.009-0.184,0.095-0.287
			L10.05,6.863C9.666,7.079,9.898,7.217,9.674,7.309l0.011,0.027C9.901,7.271,9.875,7.622,10.631,7.383z"/>
		<path d="M9.243,7.171c0.223,0.556-0.176,0.945-0.337,0.945s-0.26-0.202-0.26-0.202S8.767,8.31,9.012,8.31S9.721,7.724,9.243,7.171
			z"/>
		<path d="M12.578,6.073L12.537,6.06c-0.424,0.226-0.452,0.053-0.516,0.071c0.045-0.092-0.146-0.116,0.128-0.468l-0.011-0.064
			c-0.597,0.529-0.169,0.546-0.427,0.762l0.028,0.011C11.969,6.184,11.925,6.571,12.578,6.073z"/>
		<path d="M10.259,4.627C8.807,5.347,8.86,6.354,8.86,6.354l0.475,0.022l0.895-0.585C9.593,5.966,8.567,5.888,10.259,4.627z"/>
		<path d="M13.576,6.169c-0.779,0.214-0.842-0.927-0.623-1.165C12.094,5.555,13.148,6.858,13.576,6.169z"/>
		<path d="M14.062,6.697l-0.043,0.024c0.454,0.489,0.456,0.149,0.615,0.289l0.021-0.036c-0.129-0.198,0.053-0.379-0.362-0.81
			l-0.002,0.043c0.232,0.304,0.127,0.467,0.196,0.593C14.377,6.749,14.356,6.952,14.062,6.697z"/>
		<path d="M14.21,6.558l0.019-0.024C14.097,6.308,14.355,6.258,14,5.749l-0.015,0.066c0.16,0.336,0.023,0.407,0.06,0.484
			c-0.06-0.016-0.115,0.103-0.313-0.131L13.698,6.18C14.013,6.688,14.083,6.373,14.21,6.558z"/>
		<path d="M17.249,11.057c-0.054,0.276-0.28,0.018-0.406,0.666c0.098,0.019,0.184-0.2,0.311-0.176
			c0.127,0.025,0.125,0.261,0.222,0.279C17.501,11.179,17.195,11.333,17.249,11.057z"/>
		<circle cx="17.25" cy="10.675" r="0.237"/>
		<path d="M15.384,13.691c0.063,0.076,0.27-0.037,0.352,0.062c0.082,0.1-0.069,0.28-0.006,0.357c0.509-0.42,0.174-0.495,0.392-0.675
			C15.903,13.615,15.894,13.271,15.384,13.691z"/>
		<path d="M16.899,12.328c-0.144,0.243-0.27-0.076-0.604,0.493c0.085,0.05,0.239-0.127,0.351-0.062s0.031,0.286,0.116,0.337
			C17.097,12.527,16.756,12.571,16.899,12.328z"/>
		<path d="M15.877,13.296c0.075,0.064,0.259-0.083,0.356,0c0.099,0.084-0.02,0.288,0.057,0.353c0.429-0.502,0.086-0.519,0.269-0.732
			C16.376,13.13,16.307,12.794,15.877,13.296z"/>
		<path d="M16.824,9.567c0.138,0.646,0.358,0.384,0.418,0.66c-0.06-0.276,0.25-0.127,0.112-0.772
			c-0.097,0.021-0.091,0.256-0.217,0.282C17.012,9.765,16.921,9.547,16.824,9.567z"/>
		<path d="M16.275,8.504c0.34,0.566,0.464,0.246,0.609,0.487c-0.146-0.241,0.195-0.2-0.145-0.767
			c-0.084,0.051-0.003,0.271-0.113,0.338S16.36,8.453,16.275,8.504z"/>
		<path d="M16.594,9.013c0.242,0.614,0.418,0.319,0.521,0.582c-0.104-0.263,0.226-0.166-0.017-0.78
			c-0.092,0.036-0.047,0.268-0.167,0.314C16.812,9.177,16.687,8.977,16.594,9.013z"/>
		<path d="M17.133,11.69c-0.099,0.265-0.279-0.027-0.511,0.591c0.093,0.034,0.215-0.167,0.336-0.122
			c0.12,0.046,0.08,0.277,0.172,0.312C17.361,11.853,17.034,11.955,17.133,11.69z"/>
		<path d="M16.559,8.435c-0.183-0.214,0.16-0.229-0.269-0.732c-0.075,0.064,0.042,0.269-0.056,0.353
			c-0.099,0.084-0.282-0.064-0.357,0C16.307,8.557,16.376,8.221,16.559,8.435z"/>
		<path d="M16.038,7.832c0.157-0.206-0.612-0.469-0.612-0.469S15.88,8.038,16.038,7.832z"/>
		<path d="M14.771,14.02c0.048,0.087,0.271,0.015,0.333,0.128s-0.121,0.262-0.074,0.349c0.58-0.314,0.266-0.452,0.514-0.587
			C15.296,14.044,15.353,13.705,14.771,14.02z"/>
		<path d="M14.164,14.491c0,0,0.813,0.017,0.736-0.23C14.822,14.014,14.164,14.491,14.164,14.491z"/>
		<path d="M10.269,8.805l1.265,0.177c0.042,0.212,0.371,0.412,0.6,0.091l0.346,0.099L12.202,9.39l0.533,0.073l0.209-0.411
			L11.74,8.563L10.269,8.805z"/>
	</g>
</g>
</svg>
