<?xml version="1.0" encoding="utf-8"?>
<!-- Generator: Adobe Illustrator 16.0.4, SVG Export Plug-In . SVG Version: 6.00 Build 0)  -->
<!DOCTYPE svg PUBLIC "-//W3C//DTD SVG 1.1//EN" "http://www.w3.org/Graphics/SVG/1.1/DTD/svg11.dtd">
<svg version="1.1" id="Layer_1" xmlns="http://www.w3.org/2000/svg" xmlns:xlink="http://www.w3.org/1999/xlink" x="0px" y="0px" viewBox="0 0 24 16" enable-background="new 0 0 24 16" xml:space="preserve">
<g>
	<path d="M16.943,5.957L17.3,6.075l-0.002,0.23c-0.19-0.007-0.343-0.043-0.343,0.513c0,0.415,0.079,0.549,0.079,0.666
		c0,0.199-0.017,0.247-0.641,0.247c0,0-0.098-0.119-0.439-0.251c0,0-0.007-0.032-0.021-0.09l2.643-4.597h-0.801
		c0.06-0.114,0.001-0.303-0.147-0.452c-0.17-0.169-0.391-0.222-0.494-0.119c-0.047,0.047-0.062,0.118-0.048,0.198l-0.328,0.345
		c0.008-0.052,0.026-0.326-0.49-0.474c-0.155-0.308-0.286-0.693-0.595-0.693c-0.253,0-0.472,0.192-0.472,0.192
		s-0.944-0.879-1.862-0.879c-0.798,0-1.897,0.782-2.382,0.782c-0.516,0-0.973-1.25-1.698-1.25c-0.391,0-0.851,0.313-1.347,0.616
		c-0.496,0.301-0.588,0.67-0.709,0.972C7.123,2.231,6.869,2.5,6.573,2.792H4.288l4.643,8.074c-0.035,0.007-0.069,0.011-0.101,0.011
		h-3.46l-0.639,1.15h4.097c0.174,0,0.413-0.104,0.531-0.233l0.065-0.07l2.009,3.494l1.857-3.229h1.566v-0.326h-0.376l-0.066-0.209
		h0.057l0.271-0.126c0-0.313-0.377-0.753-0.377-0.753l-0.062-0.351l0.515-0.894l2.4-0.886c0.425-0.157,0.473-0.777,0.473-0.777
		s0.391,0.184,0.605-0.293c0,0,0.434,0.139,0.669,0.139c0.204,0,0.49-0.11,0.49-0.417c0,0,0.314-0.189,0.418-0.512l-2.827-0.937
		L16.943,5.957z"/>
	<g>
		<path fill="#DBCEA5" d="M13.36,8.963c0-0.049-0.735-0.244-1.024-0.355c-0.266,0.104,0.078,0.157,0.078,0.5
			c0,0.203-0.1,0.441-0.1,0.441l-0.146,0.042c0,0-0.293,0.54-0.48,0.46c-0.269,0.473-0.378,0.581-0.805,0.581
			c-0.137,0-0.257-0.039-0.363-0.106L9.59,11.54l1.841,3.203l1.585-2.755h-1.14c0-0.294,0.187-0.535,0.187-0.535
			c0-0.468,0.288-0.566,0.503-0.586c0.454-0.04,0.64-0.001,0.64-0.223c0-0.157-0.014-0.343-0.014-0.343h0.168
			c0-0.611-0.172-0.761-0.172-1.072C13.188,9.109,13.36,9.059,13.36,8.963z"/>
		<polygon fill="#DBCEA5" points="14.09,10.121 14.446,9.5 14.048,9.695 		"/>
		<path fill="#DBCEA5" d="M15.285,3.818L15.201,3.63c-0.433,0.073-0.82-0.146-0.931-0.204c-0.11-0.056,0.011-0.298,0.011-0.298
			s-0.03-0.052-0.099-0.1H13.73c-0.085,0.076-0.105,0.194-0.036,0.266c0.48,0.498,0.866,1.033,1.173,1.548l0.502-0.527L15.285,3.818
			z"/>
		<polygon fill="#DBCEA5" points="13.227,11.621 13.324,11.453 13.165,11.453 		"/>
		<path fill="#DBCEA5" d="M17.184,3.029l-0.064,0.072c0.263,0.311,0.154,0.628,0.154,0.628c0,0.24-0.127,0.236-0.127,0.236
			c0,0.559-0.293,0.46-0.293,0.46c0,0.735-0.81,0.438-0.81,0.438c-0.133-0.017-0.243-0.054-0.332-0.097l-0.549,0.612
			c0.356,0.692,0.568,1.307,0.683,1.69l2.322-4.039H17.184z"/>
		<path fill="#DBCEA5" d="M9.909,9.256C9.761,8.898,9.826,8.817,9.826,8.817S9.35,8.426,9.491,7.939c0,0-1.226-1.777-1.226-2.831
			c0-0.545,0.264-0.492,0.264-0.938c0-0.366-0.25-0.639-0.43-0.639c-0.206,0-0.848,0.424-1.788,0.978l0.355-0.816L5.81,4.572
			c0,0-0.167-0.858,0.294-1.319c0.076-0.075,0.152-0.15,0.228-0.224H4.696l4.464,7.763c0.082-0.039,0.157-0.087,0.209-0.14
			l0.704-0.71C9.96,9.679,9.909,9.406,9.909,9.256z"/>
		<polygon fill="#DBCEA5" points="12.543,11.662 12.698,11.662 12.765,11.453 12.425,11.453 		"/>
	</g>
	<g>
		<polygon fill="#FFFFFF" points="13.597,11.453 13.476,11.662 13.969,11.662 14.028,11.453 		"/>
		<polygon fill="#FFFFFF" points="18.991,6.634 18.868,6.804 19.183,6.908 19.139,6.684 		"/>
		<polygon fill="#FFFFFF" points="17.785,6.235 17.669,6.406 18.481,6.676 18.476,6.463 		"/>
		
			<ellipse transform="matrix(-0.2327 -0.9726 0.9726 -0.2327 16.3494 27.3545)" fill="#FFFFFF" cx="18.966" cy="7.228" rx="0.105" ry="0.188"/>
		
			<ellipse transform="matrix(-0.7887 0.6148 -0.6148 -0.7887 29.0253 12.3011)" fill="#FFFFFF" cx="12.398" cy="11.139" rx="0.188" ry="0.105"/>
		<path fill="#FFFFFF" d="M9.47,10.753c-0.148,0.15-0.43,0.268-0.641,0.268H8.808l-0.391,0.864h0.41
			c0.135,0,0.334-0.088,0.425-0.188l1.138-1.241l-0.259-0.369L9.47,10.753z"/>
		<polygon fill="#FFFFFF" points="4.973,11.885 5.531,11.885 6.011,11.021 5.453,11.021 		"/>
		<path fill="#FFFFFF" d="M14.143,11.453l-0.091,0.319h-0.887l-0.117-0.319H12.88l-0.101,0.319h-0.3l-0.181-0.319h-0.096
			c-0.029,0.033-0.162,0.194-0.206,0.425h2.749v-0.105h-0.347l-0.103-0.319H14.143z"/>
		<path fill="#FFFFFF" d="M17.407,6.32l0.152,0.05l0.182-0.266l0.842,0.279l0.01,0.329l0.166,0.055l0.19-0.263l0.284,0.094
			l0.069,0.349l0.117,0.039c0.058-0.04,0.215-0.159,0.307-0.336l-2.611-0.864l-0.033,0.101l0.329,0.109L17.407,6.32z"/>
		<path fill="#FFFFFF" d="M11.907,7.953l2.39-2.511c-0.874-1.213-2.148-2.306-3.299-2.306c-1.026,0-1.719,0.755-1.719,1.554
			C9.279,6.129,10.572,7.248,11.907,7.953z"/>
		<path fill="#FFFFFF" d="M12.572,8.27c0.806,0.347,1.549,0.531,1.939,0.531c0.36,0,0.853-0.1,0.853-0.881
			c0-0.512-0.277-1.233-0.722-1.961L12.572,8.27z"/>
		<path fill="#FFFFFF" d="M6.103,3.442C5.936,3.63,5.915,4.174,5.915,4.174l1.36-1.171L6.73,4.006c0,0,0.92-0.418,1.004-0.627
			c0,0-0.189-0.46-0.607-0.879C7.127,2.5,6.271,3.254,6.103,3.442z"/>
		<path fill="#FFFFFF" d="M7.974,1.873c0-0.148,0.209-0.297,0.235-0.368c0,0-0.135-0.183-0.326-0.091
			C7.854,1.831,7.747,2.029,7.7,2.282c0.156,0.129,0.104-0.196,0.328-0.196c0.075,0,0.184,0.093,0.184,0.2
			c0,0.125-0.068,0.191-0.068,0.191l0.157-0.013c0,0,0.067-0.067,0.067-0.201C8.369,1.959,7.974,1.953,7.974,1.873z"/>
		<path fill="#FFFFFF" d="M15.517,4.358l-3.844,4.04c-0.14,0.146,0.229,0.402,0.359,0.253l3.681-4.108
			C15.848,4.392,15.659,4.216,15.517,4.358z"/>
		<path fill="#FFFFFF" d="M10.721,8.723c0,0,0.057-0.21-0.107-0.21c-0.336,0-0.658,0.278-0.658,0.421c0,0.074,0.03,0.139,0.03,0.139
			S10.424,8.652,10.721,8.723z"/>
		<path fill="#FFFFFF" d="M11.379,8.714c0-0.146-0.127-0.17-0.265-0.17s-0.21,0.093-0.21,0.151c0,0.151,0.154,0.316,0.222,0.316
			C11.164,9.012,11.379,8.893,11.379,8.714z"/>
		<path fill="#FFFFFF" d="M11.588,8.764c-0.085,0-0.133,0.102-0.133,0.277c0,0.058,0.072,0.102,0.114,0.102
			c0.028,0,0.093-0.064,0.093-0.262C11.662,8.82,11.641,8.764,11.588,8.764z"/>
		<path fill="#FFFFFF" d="M11.898,8.934c-0.146,0-0.093,0.325-0.093,0.433c0,0.106-0.041,0.161-0.041,0.161
			c0.03,0.054,0.026,0.205,0.124,0.205c0.056,0,0.137-0.084,0.137-0.294C12.025,9.123,12.03,8.934,11.898,8.934z"/>
		<path fill="#FFFFFF" d="M12.15,9.018l-0.021,0.193l0.131,0.021l0.034-0.111C12.258,9.101,12.227,8.997,12.15,9.018z"/>
		<path fill="#FFFFFF" d="M10.088,9.32c0.072,0.829,0.57,1.182,0.57,1.182l0.098-0.051c0,0-0.25-0.475-0.524-1.357L10.088,9.32z"/>
		<path fill="#FFFFFF" d="M10.432,8.984c0.218,0.892,0.485,1.413,0.597,1.442c0,0,0.076-0.129,0.076-0.899
			C11.105,9.527,10.914,8.718,10.432,8.984z"/>
		<path fill="#FFFFFF" d="M11.298,9.32c0.04,0.913-0.106,0.897-0.106,1.037c0,0.227,0.388-0.063,0.388-0.639
			C11.579,9.037,11.298,9.32,11.298,9.32z"/>
		<path fill="#FFFFFF" d="M9.696,7.905C9.438,8.262,9.861,8.634,9.861,8.634s0.155,0.011,0.241-0.075
			C10.102,8.559,9.969,8.072,9.696,7.905z"/>
		<path fill="#FFFFFF" d="M10.314,8.235c0-0.052-0.073-0.046-0.073-0.425c0-0.301-0.339-0.188-0.339-0.028s0.275,0.357,0.275,0.474
			C10.177,8.256,10.314,8.307,10.314,8.235z"/>
		<path fill="#FFFFFF" d="M10.583,8.037c0-0.604-0.207-0.5-0.207-0.283C10.376,7.996,10.512,8.107,10.583,8.037z"/>
		<path fill="#FFFFFF" d="M10.782,7.596c-0.075,0.166-0.021,0.412-0.021,0.582c0,0.176,0.117,0.17,0.172,0.14
			C10.866,8.184,11.048,7.723,10.782,7.596z"/>
		<path fill="#FFFFFF" d="M11.051,7.686c-0.035,0.215,0.033,0.598,0.033,0.598s0.139,0.059,0.187-0.014
			C11.26,8.194,11.26,8.023,11.26,7.922C11.26,7.664,11.051,7.686,11.051,7.686z"/>
		<path fill="#FFFFFF" d="M11.435,7.885c-0.053,0.334,0.062,0.51,0.062,0.51c0.042-0.024,0.073-0.008,0.073-0.291
			C11.57,7.822,11.435,7.885,11.435,7.885z"/>
		<path fill="#FFFFFF" d="M16.5,2.891c0.238-0.121-0.011-0.433-0.181-0.336c-0.707,0.459-0.782,1.161-0.782,1.161
			S15.6,3.819,15.77,3.791C15.77,3.791,16.148,3.063,16.5,2.891z"/>
		<path fill="#FFFFFF" d="M15.948,3.797c0,0,0.017,0.084,0.123,0.084c0.201,0,0.609-0.433,0.609-0.785
			c0-0.072-0.107-0.075-0.107-0.075C16.2,3.262,15.948,3.797,15.948,3.797z"/>
		<path fill="#FFFFFF" d="M16.881,2.958c0.253,0,0.452-0.262,0.452-0.317c0-0.055-0.056-0.093-0.155-0.093s-0.362,0.284-0.362,0.364
			C16.815,2.929,16.828,2.958,16.881,2.958z"/>
		<path fill="#FFFFFF" d="M15.464,4.225c0,0,0.073-0.054,0.194-0.047c-0.076-0.241-0.212-0.182-0.212-0.182
			C15.392,4.077,15.464,4.225,15.464,4.225z"/>
		<path fill="#FFFFFF" d="M16.423,4.855c0.088-0.381-0.302-0.777-0.302-0.777c-0.275-0.021-0.283,0.076-0.283,0.076
			S16.034,4.855,16.423,4.855z"/>
		<path fill="#FFFFFF" d="M16.326,3.956c0,0,0.092,0.591,0.358,0.591C16.709,4.456,16.601,3.956,16.326,3.956z"/>
		<path fill="#FFFFFF" d="M16.561,3.75c0,0,0.153,0.439,0.316,0.439c0,0,0.062-0.292-0.214-0.528
			C16.577,3.661,16.561,3.75,16.561,3.75z"/>
		<path fill="#FFFFFF" d="M17.162,3.865c0-0.213-0.341-0.589-0.341-0.589L16.739,3.44l0.329,0.494
			C17.068,3.935,17.162,3.981,17.162,3.865z"/>
		<path fill="#FFFFFF" d="M16.897,3.139l0.309,0.542c0,0-0.008-0.309-0.241-0.59C16.965,3.091,16.897,3.083,16.897,3.139z"/>
		<path fill="#FFFFFF" d="M15.103,3.502c0,0-0.385-0.203-0.688-0.289l-0.021,0.062C14.395,3.276,14.562,3.529,15.103,3.502z"/>
		<path fill="#FFFFFF" d="M15.282,3.413c0.028,0.012,0.114-0.077,0.055-0.116c-0.071-0.046-0.611-0.345-0.776-0.392
			c-0.092,0.094-0.041,0.151-0.041,0.151L15.282,3.413z"/>
		<path fill="#FFFFFF" d="M15.412,3.166c0.043,0.023,0.113-0.116,0.068-0.146c-0.268-0.178-0.531-0.346-0.828-0.48
			c-0.074,0.099-0.05,0.187-0.05,0.187L15.412,3.166z"/>
		<path fill="#FFFFFF" d="M15.62,2.844c0-0.139-0.607-0.607-0.702-0.607S14.78,2.354,14.78,2.354l0.77,0.55
			C15.575,2.922,15.62,2.86,15.62,2.844z"/>
		<path fill="#FFFFFF" d="M15.818,2.664l-0.564-0.646c-0.075-0.085-0.205,0.076-0.205,0.076l0.638,0.625
			C15.746,2.776,15.849,2.694,15.818,2.664z"/>
		<path fill="#FFFFFF" d="M15.969,2.423l-0.474-0.645c-0.12,0-0.145,0.103-0.145,0.103l0.516,0.549
			C15.932,2.5,15.969,2.423,15.969,2.423z"/>
		<path fill="#FFFFFF" d="M15.976,2.08l-0.149-0.32c-0.015-0.031-0.119-0.026-0.119,0.035C15.707,1.841,15.816,2.08,15.976,2.08z"/>
		<path d="M13.282,14.426c0-0.175-0.142-0.316-0.317-0.316c-0.174,0-0.316,0.142-0.316,0.316
			s0.143,0.317,0.316,0.317C13.141,14.743,13.282,14.601,13.282,14.426z M12.717,14.426c0-0.137,0.111-0.248,0.248-0.248
			c0.138,0,0.249,0.111,0.249,0.248c0,0.139-0.111,0.249-0.249,0.249C12.828,14.675,12.717,14.564,12.717,14.426z"/>
		<path d="M13.096,14.607l-0.071-0.153c0.041-0.015,0.071-0.055,0.071-0.102c0-0.06-0.049-0.106-0.108-0.106h-0.152
			v0.361h0.068V14.46h0.049l0.068,0.147H13.096z M12.987,14.392h-0.084v-0.078h0.084c0.022,0,0.04,0.018,0.04,0.039
			C13.027,14.375,13.01,14.392,12.987,14.392z"/>
	</g>
</g>
</svg>
