<?xml version="1.0" encoding="utf-8"?>
<!-- Generator: Adobe Illustrator 16.0.4, SVG Export Plug-In . SVG Version: 6.00 Build 0)  -->
<!DOCTYPE svg PUBLIC "-//W3C//DTD SVG 1.1//EN" "http://www.w3.org/Graphics/SVG/1.1/DTD/svg11.dtd">
<svg version="1.1" id="Layer_1" xmlns="http://www.w3.org/2000/svg" xmlns:xlink="http://www.w3.org/1999/xlink" x="0px" y="0px" viewBox="0 0 24 16" enable-background="new 0 0 24 16" xml:space="preserve">
<g>
	<g>
		<path d="M18.215,4.487l-1.506,2.407c0.164-0.077,0.338-0.156,0.511-0.235l1.608-2.601c0,0-2.734,0.598-5.225,0.85
			c0.059,0.093,0.117,0.186,0.176,0.28C15.488,5.008,17.271,4.677,18.215,4.487z"/>
		<path d="M18.456,10.847c-0.208-0.865-0.241-1.022-0.702-1.255l-0.075-0.098c0.847-1.517,1.459-3.327,1.459-3.543
			c0-0.053-0.023-0.068-0.056-0.052c-1.347,0.683-2.826,1.292-3.154,1.521l-0.087,0.121c-0.726-0.646-1.347-1.1-1.587-1.269
			c-1.506-2.956-3.816-5.033-5.305-5.777c0,0.309,1.473,2.577,1.699,4.483c-2.665-0.182-6.045-0.92-6.045-0.92l2.911,4.709
			C5.122,8.914,3.025,8.964,3.025,8.964c0,0.166,2.669,1.442,6.61,2.334c0.863,0.195,1.504,0.164,1.924,0.164
			c-0.079-0.086-0.157-0.17-0.235-0.252c0.571,0.348,1.093,0.695,1.562,1.008c-0.118,0.001-0.247,0.002-0.388,0.002
			c-0.948,0-1.664-0.05-2.117-0.084l-0.412-0.652c-0.096-0.017-0.201-0.038-0.31-0.061c-0.04-0.009-0.08-0.018-0.12-0.026
			c-0.18-0.04-0.352-0.082-0.47-0.11l0.596,0.963c-0.558,0.4-1.986,1.613-3.021,3.304l0.09,0.167c0,0,1-0.062,1.845-0.086
			c0,0,0.379-1.081,1.735-2.333l1.399,2.264l1.698-2.747c0.109-0.012,0.221-0.024,0.334-0.038c0.117,0.073,0.231,0.143,0.34,0.205
			c-0.059,0.034-0.107,0.079-0.146,0.146c0,0,0.098,0.067,0.104,0.199c0,0,0.084,0.014,0.172-0.012c0,0,0.06-0.091,0.111-0.2
			c0.111,0.058,0.216,0.106,0.314,0.146c-0.001,0.095,0.016,0.165,0.016,0.165s0.107,0.033,0.238-0.083
			c0.752,0.172,1.202,0.026,1.202,0.026c0.764,0.226,1.152-0.027,1.152-0.027c0.299,0.131,0.549,0.205,1.368,0.205
			c0.445,0,0.592-0.054,0.592-0.129C19.212,13.063,18.834,11.6,18.456,10.847z"/>
		<path d="M18.676,10.581l0.028,0.1c0,0,0.244,0.167,0.422,0.217l0.141-0.103c0,0-0.081-0.104-0.055-0.257
			C19.026,10.419,18.676,10.581,18.676,10.581z"/>
		<path d="M20.392,6.409l-0.192,0.342l0.042,0.261c-0.86,1.692-1.817,3.223-1.817,3.223l0.118,0.287l0.14-0.097l0.096,0.008
			c0,0,0.917-0.877,2.085-3.141c0,0,0.339,0.011,0.365-0.262c0.028-0.277,0.047-0.47,0.047-0.581
			C20.854,6.296,20.392,6.409,20.392,6.409z"/>
	</g>
	<g>
		<path fill="#FFFFFF" d="M14.116,12.077c-0.307,0.099-0.438,0.029-0.438,0.029c0.06-0.061,0.099-0.178,0.099-0.178
			c-0.271,0.075-0.356,0-0.356,0c0.044-0.026,0.088-0.13,0.088-0.13c-0.353,0-0.546,0.058-0.546,0.058
			c0.293,0.037,0.484,0.166,0.647,0.332c0.229-0.017,0.37-0.037,0.469-0.054L14.116,12.077z"/>
		<path fill="#FFFFFF" d="M15.253,13.105c0.208-0.123,0.359-0.24,0.359-0.24c-0.684,0.03-0.941-0.053-0.941-0.053
			c0.122-0.122,0.274-0.228,0.371-0.324c-0.073,0.012-0.149,0.02-0.223,0.025c-0.001,0.033-0.038,0.071-0.142,0.135
			c-0.205,0.032-0.406,0.062-0.604,0.089c0.056,0.06,0.116,0.118,0.183,0.174c0.046-0.016,0.096-0.03,0.148-0.048
			c0,0.041-0.011,0.09-0.027,0.138c0.081,0.056,0.173,0.106,0.276,0.148c0.011-0.067,0.031-0.138,0.071-0.2
			c0.035,0.01,0.054,0.11,0.073,0.139c0.051,0.074,0.117,0.086,0.13,0.147c0.287,0.066,0.65,0.084,1.131,0.023l0.133-0.107
			C15.489,13.164,15.253,13.105,15.253,13.105z"/>
		<path fill="#FFFFFF" d="M13.521,11.898c0,0,0.149,0.01,0.321-0.052c0,0,0.01,0.115-0.069,0.219c0,0,0.146-0.001,0.445-0.07
			c0,0-0.025,0.061-0.062,0.127c0.054-0.01,0.095-0.016,0.138-0.016c0.097,0,0.108,0.021,0.192,0.021
			c0.159,0,0.179,0.033,0.202,0.219c0.033,0.047,0.069,0.079,0.096,0.107c0.118-0.01,0.254-0.022,0.391-0.042
			c0,0-0.152,0.211-0.382,0.367c0,0,0.637,0.06,0.967,0.019c0,0-0.142,0.173-0.339,0.273c0,0,0.44,0.028,0.913,0.02
			c0,0-0.093,0.103-0.186,0.178c0,0,0.584,0.131,1,0.032c-1.501-0.597-2.326-1.5-3.581-1.5
			C13.549,11.854,13.521,11.898,13.521,11.898z"/>
		<path fill="#FFFFFF" d="M7.47,14.6l-0.336,0.432c0,0,0.992-0.154,1.587-0.064l0.165-0.283C8.561,14.516,7.47,14.6,7.47,14.6z"/>
		<path fill="#FFFFFF" d="M7.624,14.406L7.52,14.537c0,0,1.025-0.078,1.397,0.095l0.243-0.365
			C8.829,14.212,7.624,14.406,7.624,14.406z"/>
		<path fill="#FFFFFF" d="M7.801,14.189l-0.118,0.145c0,0,1.227-0.191,1.517-0.121l0.021-0.029
			C8.917,14.084,7.801,14.189,7.801,14.189z"/>
		<path fill="#FFFFFF" d="M8.214,13.714l-0.356,0.408c0,0,0.993-0.104,1.402,0.012l0.412-0.477
			C9.254,13.588,8.214,13.714,8.214,13.714z"/>
		<path fill="#FFFFFF" d="M8.748,13.178l-0.472,0.468c0,0,0.87-0.118,1.444-0.043l0.225-0.249
			C9.73,13.171,8.748,13.178,8.748,13.178z"/>
		<path fill="#FFFFFF" d="M8.838,13.096l-0.025,0.022c0,0,0.849-0.014,1.174,0.19l0.049-0.052
			C9.773,13.107,8.838,13.096,8.838,13.096z"/>
		<path fill="#FFFFFF" d="M9.307,12.69l-0.405,0.349c0,0,0.944,0.017,1.176,0.173l0.348-0.343C10.12,12.694,9.307,12.69,9.307,12.69
			z"/>
		<polygon fill="#FFFFFF" points="8.765,15.005 8.777,15.091 8.914,14.854 8.899,14.771 		"/>
		<polygon fill="#FFFFFF" points="8.946,14.696 8.959,14.778 9.187,14.445 9.171,14.352 		"/>
		<polygon fill="#FFFFFF" points="9.219,14.284 9.234,14.383 9.257,14.354 9.237,14.258 		"/>
		<polygon fill="#FFFFFF" points="9.284,14.196 9.305,14.296 9.691,13.86 9.675,13.741 		"/>
		<polygon fill="#FFFFFF" points="9.726,13.685 9.742,13.805 9.977,13.555 9.947,13.44 		"/>
		<polygon fill="#FFFFFF" points="9.993,13.39 10.023,13.505 10.069,13.458 10.053,13.325 		"/>
		<polygon fill="#FFFFFF" points="10.104,13.271 10.12,13.405 10.428,13.104 10.424,12.947 		"/>
		<path d="M13.056,15.234c0-0.183-0.147-0.33-0.329-0.33c-0.184,0-0.331,0.147-0.331,0.33s0.147,0.33,0.331,0.33
			C12.908,15.564,13.056,15.417,13.056,15.234z M12.466,15.234c0-0.144,0.116-0.26,0.261-0.26c0.143,0,0.259,0.116,0.259,0.26
			s-0.116,0.26-0.259,0.26C12.582,15.494,12.466,15.378,12.466,15.234z"/>
		<path d="M12.861,15.423l-0.074-0.159c0.044-0.016,0.074-0.058,0.074-0.105c0-0.062-0.05-0.112-0.111-0.112h-0.16
			v0.377h0.071V15.27h0.051l0.071,0.153H12.861z M12.75,15.199h-0.089v-0.083h0.089c0.022,0,0.041,0.02,0.041,0.042
			S12.772,15.199,12.75,15.199z"/>
	</g>
	<g>
		<path fill="#EA7200" d="M14.104,13.262c0.116-0.156,0.194-0.256,0.214-0.318c-0.103,0.044-0.234,0.068-0.305,0.177
			C14.013,13.12,14.064,13.171,14.104,13.262z"/>
		<path fill="#EA7200" d="M14.7,13.369c0,0,0.077-0.01,0.146-0.077c0,0-0.073-0.111-0.115-0.215
			C14.68,13.207,14.7,13.369,14.7,13.369z"/>
		<path fill="#EA7200" d="M14.343,10.63c0.062,0.492,0.18,0.701,0.18,0.701s0.186,0.146,0.539,0.29
			C14.705,10.961,14.343,10.63,14.343,10.63z"/>
		<path fill="#EA7200" d="M10.474,12.828l0.142-0.08c0,0,0.585,0.095,4.086-0.267c-0.084-0.061-0.125-0.049-0.125-0.188
			c0-0.045,0.007-0.053-0.068-0.053c-0.077,0-0.109-0.021-0.199-0.021c-0.113,0-0.279,0.113-1.995,0.113
			c-1.365,0-2.321-0.114-2.385-0.114c-0.062,0-0.186,0.116-0.551,0.41C9.379,12.63,10.098,12.621,10.474,12.828z"/>
		<path fill="#EA7200" d="M8.691,15.021c-0.527-0.101-1.613,0.081-1.613,0.081l-0.292,0.42l1.7-0.08L8.691,15.021z"/>
		<path fill="#EA7200" d="M20.388,6.952c-0.568,1.021-1.188,2.375-1.863,3.211l0.195-0.122l0.042-0.042l-0.035,0.115l0.082-0.04
			l-0.124,0.22L18.8,10.2c0,0,0.579-0.65,2.043-3.294C20.518,6.857,20.388,6.952,20.388,6.952z"/>
		<path fill="#EA7200" d="M20.447,6.555l-0.118,0.188c0,0,0.286-0.054,0.668-0.022l0.138-0.194
			C20.715,6.447,20.447,6.555,20.447,6.555z"/>
		<path fill="#EA7200" d="M18.642,10.183c0,0-0.054,0.044-0.138,0.067l0.071,0.151l0.044-0.034l-0.018-0.055l0.074-0.14
			L18.642,10.183z"/>
		<path fill="#EA7200" d="M19.15,10.575c-0.12-0.062-0.352,0.029-0.352,0.029s0.235,0.056,0.368,0.116
			C19.167,10.721,19.144,10.666,19.15,10.575z"/>
		<path fill="#EA7200" d="M12.862,12.873c-0.101,0.009-0.198,0.018-0.294,0.025c-0.751,0.061-1.343,0.078-1.654,0.084
			c-0.154,0.003-0.24,0.003-0.24,0.003c-0.009,0.007-0.015,0.014-0.024,0.021c-0.023,0.02-0.044,0.039-0.067,0.059l1.132,1.807
			l1.257-2.008C12.935,12.866,12.899,12.87,12.862,12.873"/>
		<path fill="#EA7200" d="M16.561,6.963c0.049-0.022,0.098-0.045,0.148-0.069l1.506-2.407c-0.943,0.189-2.727,0.521-4.436,0.701
			c0.017,0.028,0.033,0.056,0.05,0.084c0.039,0.063,0.076,0.127,0.114,0.192c1.322-0.146,2.677-0.376,3.667-0.562l-1.408,2.233
			C16.309,7.083,16.43,7.024,16.561,6.963"/>
		<path fill="#EA7200" d="M9.969,11.483c-0.096-0.017-0.201-0.038-0.31-0.061c-0.04-0.009-0.08-0.018-0.12-0.026l0.446,0.712
			c0.031,0.002,0.066,0.004,0.106,0.007c0.08,0.005,0.177,0.013,0.289,0.021L9.969,11.483z"/>
	</g>
	<g>
		<path fill="#006D75" d="M12.568,12.898c-0.751,0.061-1.343,0.078-1.654,0.084c-0.154,0.003-0.24,0.003-0.24,0.003
			c-0.009,0.007-0.015,0.014-0.024,0.021l1.065,1.702l1.147-1.835C12.762,12.882,12.664,12.891,12.568,12.898z"/>
		<path fill="#006D75" d="M10.092,12.115c0.08,0.005,0.177,0.013,0.289,0.021l-0.412-0.652c-0.096-0.017-0.201-0.038-0.31-0.061
			L10.092,12.115z"/>
		<path fill="#006D75" d="M17.61,4.902l-1.408,2.233c0.106-0.053,0.228-0.111,0.358-0.173l1.469-2.347
			c-0.929,0.182-2.591,0.484-4.2,0.657c0.039,0.063,0.076,0.127,0.114,0.192C15.266,5.319,16.62,5.089,17.61,4.902z"/>
		<path fill="#006D75" d="M10.678,5.444c0-0.104-0.004-0.209-0.015-0.316C9.748,5.225,9.201,5.441,8.993,5.54
			C9.313,5.45,9.884,5.423,10.678,5.444z"/>
		<path fill="#006D75" d="M17.637,9.667c0,0-1.114-1.564-3.256-3.141c0.182,0.376,0.352,0.765,0.504,1.167
			c0.021,0.056,0.018,0.105-0.029,0.105c-0.47,0-2.126-0.911-3.753-0.748c0.845,0.805,1.686,1.934,0.871,1.521
			c0,0,0.85,0.525,1.849,1.579c0.744,0,0.893,0.125,0.937,0.229c0.084,0.2,0.207,0.558,0.695,1.132c0.224,0,0.265-0.015,0.347-0.215
			c0,0,0.061,0.256-0.052,0.444c1.016,0.803,2.988,1.61,3.289,1.61c0.122,0-0.128-1.104-0.699-2.431
			C18.152,10.082,18.05,9.846,17.637,9.667z"/>
		<path fill="#006D75" d="M8.38,8.711c0,0,0.291,0.172,0.768,0.531C9.031,9.039,8.722,8.818,8.383,8.613L7.642,8.668l0.055,0.088
			C7.922,8.742,8.151,8.727,8.38,8.711z"/>
		<path fill="#006D75" d="M12.751,10.012c-0.117,0.635,0.006,1.145,0.006,1.145c-0.02-0.212,0.146-0.924,0.146-0.924L12.751,10.012z
			"/>
		<path fill="#006D75" d="M12.379,9.648c-0.117,0.729,0.048,1.311,0.048,1.311c-0.035-0.268,0.104-1.057,0.104-1.057L12.379,9.648z"
			/>
		<path fill="#006D75" d="M12.01,9.318c-0.12,0.779,0.067,1.401,0.067,1.401c-0.036-0.354,0.085-1.18,0.085-1.18L12.01,9.318z"/>
		<path fill="#006D75" d="M11.17,8.034c0,0-1.432-1.186-3.211-1.484c-0.064,0-0.192,0.27-0.192,0.27S7.955,6.65,8.012,6.65
			C9.534,6.944,11.17,8.034,11.17,8.034z"/>
	</g>
	<path fill="#FFFFFF" d="M11.715,14.251l0.854-1.353c-0.751,0.061-1.343,0.078-1.654,0.084L11.715,14.251z"/>
</g>
</svg>
