<?xml version="1.0" encoding="utf-8"?>
<!-- Generator: Adobe Illustrator 16.0.4, SVG Export Plug-In . SVG Version: 6.00 Build 0)  -->
<!DOCTYPE svg PUBLIC "-//W3C//DTD SVG 1.1//EN" "http://www.w3.org/Graphics/SVG/1.1/DTD/svg11.dtd">
<svg version="1.1" id="Layer_1" xmlns="http://www.w3.org/2000/svg" xmlns:xlink="http://www.w3.org/1999/xlink" x="0px" y="0px" viewBox="0 0 24 16" enable-background="new 0 0 24 16" xml:space="preserve">
<g>
	<path fill="#002868" d="M20.076,7.28c0-1.638-1.019-3.253-2.825-4.245l-0.692,0.55c1.234,0.777,1.962,1.938,1.962,3.257
		c0,3.076-3.802,5.862-8.032,5.862c-0.435,0-0.86-0.031-1.271-0.093l-1.428,1.057c0.901,0.306,1.907,0.467,2.958,0.467
		C15.77,14.135,20.076,10.744,20.076,7.28"/>
	<path fill="#002868" d="M13.688,8.425L11.105,8.93l5.731-4.71l-2.668,0.358l5.186-4.113l-6.037,1.589
		c-0.079-0.002-0.159-0.003-0.24-0.003c-4.947,0-9.152,3.362-9.152,6.91c0,1.74,0.938,3.125,2.391,4.022l-2.231,2.552L13.688,8.425z
		 M4.614,8.437c0-3.182,3.98-5.863,8.033-5.863c0.027,0,0.055,0.001,0.083,0.001L8.812,6.956L11.065,6.6l-4.438,4.293l1.8-0.325
		L7.17,12.005C5.642,11.281,4.614,10.034,4.614,8.437"/>
	<polygon fill="#002868" points="17.7,12.076 17.8,12.076 17.8,12.376 17.836,12.376 17.836,12.076 17.94,12.076 17.94,12.04 
		17.7,12.04 	"/>
	<polygon fill="#002868" points="18.133,12.313 18.047,12.04 17.989,12.04 17.989,12.376 18.025,12.376 18.025,12.09 18.115,12.376 
		18.151,12.376 18.241,12.09 18.241,12.376 18.277,12.376 18.277,12.04 18.219,12.04 	"/>
</g>
</svg>
