<?xml version="1.0" encoding="utf-8"?>
<!-- Generator: Adobe Illustrator 16.0.4, SVG Export Plug-In . SVG Version: 6.00 Build 0)  -->
<!DOCTYPE svg PUBLIC "-//W3C//DTD SVG 1.1//EN" "http://www.w3.org/Graphics/SVG/1.1/DTD/svg11.dtd">
<svg version="1.1" id="Layer_1" xmlns="http://www.w3.org/2000/svg" xmlns:xlink="http://www.w3.org/1999/xlink" x="0px" y="0px" viewBox="0 0 24 16" enable-background="new 0 0 24 16" xml:space="preserve">
<g>
	<g>
		<path fill="#002868" d="M16.714,11.311l2.165-1.144l-0.316-0.393c-0.123-0.151-0.184-0.431-0.134-0.62l0.965-3.713l-3.061-0.46
			l-1.842,1.11l0.921-3.954h-0.626c-0.194,0-0.478-0.103-0.628-0.228L12,0.105L9.841,1.909c-0.15,0.125-0.433,0.228-0.628,0.228
			H8.587l0.921,3.954L7.667,4.98l-3.06,0.46l0.965,3.713c0.049,0.189-0.011,0.469-0.134,0.62l-0.316,0.393l2.164,1.144
			c0.307,0.162,0.439,0.553,0.293,0.868l-0.535,1.156h4.103v2.56h1.706v-2.56h4.104l-0.534-1.156
			C16.275,11.863,16.407,11.473,16.714,11.311z"/>
		<path fill="#002868" d="M13.536,13.648c-0.204,0-0.37,0.166-0.37,0.371c0,0.204,0.166,0.369,0.37,0.369
			c0.205,0,0.37-0.165,0.37-0.369C13.906,13.814,13.741,13.648,13.536,13.648z M13.536,14.31c-0.16,0-0.29-0.13-0.29-0.29
			c0-0.161,0.13-0.291,0.29-0.291c0.161,0,0.291,0.13,0.291,0.291C13.827,14.18,13.697,14.31,13.536,14.31z"/>
		<path fill="#002868" d="M13.688,13.934c0-0.069-0.057-0.126-0.125-0.126h-0.179v0.423h0.079v-0.172h0.057l0.08,0.172h0.088
			l-0.083-0.18C13.653,14.034,13.688,13.987,13.688,13.934z M13.563,13.979h-0.1v-0.093h0.1c0.025,0,0.046,0.021,0.046,0.047
			S13.589,13.979,13.563,13.979z"/>
	</g>
	<g>
		<polygon fill="#FFFFFF" points="9.968,9.654 10.052,10.323 10.417,10.323 10.24,8.915 9.875,8.915 9.665,9.513 9.455,8.915 
			9.09,8.915 8.913,10.323 9.278,10.323 9.362,9.654 9.665,10.323 		"/>
		<path fill="#FFFFFF" d="M11.022,8.915l-0.45,1.408h0.364l0.071-0.222h0.534l0.071,0.222h0.365l-0.45-1.408H11.022z"/>
		<polygon fill="#FFFFFF" points="14.616,9.782 14.917,9.782 14.917,9.455 14.616,9.455 14.616,9.242 15.058,9.242 14.984,8.915 
			14.251,8.915 14.251,10.323 15.014,10.323 15.087,9.996 14.616,9.996 		"/>
		<polygon fill="#FFFFFF" points="13.261,8.915 13.261,10.323 14.022,10.323 14.097,9.996 13.625,9.996 13.625,8.915 		"/>
		<path fill="#FFFFFF" d="M12.133,8.915v1.408h0.365V9.884h0.124c0.268,0,0.484-0.159,0.484-0.484s-0.217-0.484-0.484-0.484H12.133z
			"/>
		<polygon fill="#FFFFFF" points="13.113,7.847 13.588,8.553 13.972,8.553 13.972,7.145 13.607,7.145 13.607,7.85 13.133,7.145 
			12.748,7.145 12.748,8.553 13.113,8.553 		"/>
		<polygon fill="#FFFFFF" points="14.376,8.553 14.74,8.553 14.74,7.511 15.026,7.511 15.026,7.145 14.171,7.145 14.09,7.511 
			14.376,7.511 		"/>
		<polygon fill="#FFFFFF" points="7.44,7.511 7.727,7.511 7.727,8.553 8.091,8.553 8.091,7.511 8.377,7.511 8.377,7.145 
			7.521,7.145 		"/>
		<path fill="#FFFFFF" d="M10.401,7.962h0.023l0.254,0.591h0.365l-0.268-0.622c0,0,0.233-0.067,0.233-0.302
			c0-0.326-0.217-0.484-0.484-0.484h-0.488v1.408h0.365V7.962z"/>
		<path fill="#FFFFFF" d="M15.825,7.109c-0.404,0-0.733,0.331-0.733,0.739c0,0.407,0.329,0.738,0.733,0.738
			c0.405,0,0.734-0.331,0.734-0.738C16.56,7.44,16.23,7.109,15.825,7.109z"/>
		<path fill="#FFFFFF" d="M11.889,8.587c0.405,0,0.733-0.331,0.733-0.738c0-0.408-0.328-0.739-0.733-0.739
			c-0.405,0-0.734,0.331-0.734,0.739C11.155,8.256,11.484,8.587,11.889,8.587z"/>
		<path fill="#FFFFFF" d="M9.91,7.849c0-0.408-0.328-0.739-0.733-0.739c-0.405,0-0.733,0.331-0.733,0.739
			c0,0.407,0.329,0.738,0.733,0.738C9.582,8.587,9.91,8.256,9.91,7.849z"/>
		<path fill="#FFFFFF" d="M11.705,10.686l-0.45,1.409h0.365l0.071-0.222h0.535l0.071,0.222h0.364l-0.45-1.409H11.705z"/>
		<polygon fill="#FFFFFF" points="10.679,11.554 10.98,11.554 10.98,11.227 10.679,11.227 10.679,11.013 11.121,11.013 
			11.047,10.686 10.314,10.686 10.314,12.095 11.076,12.095 11.15,11.767 10.679,11.767 		"/>
		<polygon fill="#FFFFFF" points="13.571,11.013 13.498,10.686 12.766,10.686 12.766,12.095 13.13,12.095 13.13,11.554 
			13.431,11.554 13.431,11.227 13.13,11.227 13.13,11.013 		"/>
		<polygon fill="#FFFFFF" points="9.739,10.686 9.374,10.686 9.374,12.095 10.136,12.095 10.209,11.767 9.739,11.767 		"/>
		<path fill="#FFFFFF" d="M14.041,11.112c0-0.083,0.146-0.115,0.22-0.115c0.125,0,0.219,0.019,0.283,0.036v-0.359
			c-0.064-0.012-0.158-0.022-0.283-0.022c-0.269,0-0.584,0.1-0.584,0.461c0,0.439,0.584,0.373,0.584,0.556
			c0,0.083-0.146,0.115-0.22,0.115c-0.192,0-0.312-0.046-0.364-0.061v0.364c0.052,0.016,0.172,0.042,0.364,0.042
			c0.269,0,0.585-0.1,0.585-0.461C14.626,11.229,14.041,11.295,14.041,11.112z"/>
	</g>
	<g>
		<ellipse fill="#002868" cx="9.176" cy="7.849" rx="0.369" ry="0.374"/>
		<path fill="#002868" d="M10.644,7.629c0-0.087-0.07-0.157-0.157-0.157h-0.085v0.314h0.085C10.573,7.786,10.644,7.716,10.644,7.629
			z"/>
		<path fill="#002868" d="M12.498,9.242v0.314h0.085c0.087,0,0.157-0.07,0.157-0.157s-0.07-0.157-0.157-0.157H12.498z"/>
		<polygon fill="#002868" points="11.795,11.545 12.121,11.545 11.958,11.036 		"/>
		<ellipse fill="#002868" cx="15.825" cy="7.848" rx="0.368" ry="0.374"/>
		<circle fill="#002868" cx="11.889" cy="7.848" r="0.374"/>
		<polygon fill="#002868" points="11.112,9.774 11.438,9.774 11.275,9.265 		"/>
	</g>
</g>
</svg>
