<?xml version="1.0" encoding="utf-8"?>
<!-- Generator: Adobe Illustrator 16.0.4, SVG Export Plug-In . SVG Version: 6.00 Build 0)  -->
<!DOCTYPE svg PUBLIC "-//W3C//DTD SVG 1.1//EN" "http://www.w3.org/Graphics/SVG/1.1/DTD/svg11.dtd">
<svg version="1.1" id="Layer_1" xmlns="http://www.w3.org/2000/svg" xmlns:xlink="http://www.w3.org/1999/xlink" x="0px" y="0px" viewBox="0 0 24 16" enable-background="new 0 0 24 16" xml:space="preserve">
<g>
	<path fill="#99999A" d="M11.856,11.363l2.625-1.311c1.799,0.506,2.331,1.188,2.331,1.188l1.028-1.163
		c0.058-0.059,0.227-0.271,0.227-0.653c0-0.412-0.431-0.731-0.735-0.947c-0.51-1.345-3.345-1.735-3.555-2.202
		c-0.068-0.163-0.483-1.561-0.483-1.561C13.047,3.99,12.319,3.99,12.045,3.99c-0.276,0-0.867,0.093-0.867,0.093
		c0,1.008-0.138,2.237-0.281,2.464c0,0-0.511,0.267-1.112,0.483L8.352,6.063l0.377,1.304c-2.419,1.327-3.007,3.644-3.007,3.644
		s0.621,4.879,6.74,4.879c3.235,0,5.101-1.562,5.101-1.562l-1.043-2.33c0,0-1.592,0.827-3.625,0.827
		c-1.875,0-2.606-0.874-2.876-1.383C11.606,11.488,11.856,11.363,11.856,11.363z"/>
	<g>
		<path fill="#001F5B" d="M11.76,11.106l2.693-1.349c1.825,0.517,2.352,1.074,2.352,1.074l0.834-0.939c0,0,0.154-0.146,0.154-0.469
			c0-0.3-0.451-0.606-0.692-0.777c-0.497-1.351-3.255-1.598-3.56-2.233c-0.123-0.256-0.278-0.866-0.508-1.61
			c-0.185-0.538-0.721-0.538-0.988-0.538c-0.26,0-0.595,0.053-0.595,0.053c0,0.55-0.103,2.147-0.359,2.423
			c-0.062,0.082-0.533,0.271-1.043,0.468l0.152,0.103l-0.156,0.155L9.751,7.764L9.427,8.771L9.006,8.555l0.151,0.373L8.406,9.053
			l0.425,0.148l-1.223,0.939l0.33,0.026l-0.436,0.786c0.63-0.286,0.819-0.339,0.819-0.339l-0.18-0.186l1.268-0.513
			c0,0-0.095,0.256-0.095,0.747c0,0.07,0.01,0.173,0.035,0.296c0.155,0.767,0.904,2.348,3.545,2.348c1.91,0,3.386-0.669,3.386-0.669
			l0.686,1.531c0,0-1.793,1.242-4.504,1.242c-5.545,0-6.248-4.36-6.248-4.36c0.764-2.044,2.05-2.939,2.868-3.318L8.827,7.706
			L8.804,7.629C6.641,8.822,6.001,11.03,6.001,11.03s0.656,4.587,6.46,4.587c2.968,0,4.762-1.376,4.762-1.376l-0.839-1.877
			c0,0-1.568,0.736-3.49,0.736c-2.862,0-3.285-1.953-3.285-1.953S11.24,11.245,11.76,11.106z M17.548,9.666
			c0.016-0.055,0.019-0.108,0.012-0.16C17.566,9.558,17.563,9.611,17.548,9.666c0.024-0.045,0.045-0.108,0.045-0.188
			C17.593,9.558,17.572,9.621,17.548,9.666z"/>
		<polygon fill="#001F5B" points="8.302,3.654 7.789,1.946 8.95,3.459 9.32,3.347 8.473,0.527 8.063,0.651 8.564,2.323 7.414,0.846 
			7.046,0.958 7.892,3.777 		"/>
		<path fill="#001F5B" d="M9.659,3c0.024,0.172,0.127,0.255,0.295,0.232l0.91-0.124c0.171-0.023,0.253-0.132,0.229-0.304
			l-0.095-0.721l-0.439,0.059l0.086,0.615L10.08,2.834L9.782,0.666l0.565-0.077l0.08,0.577l0.434-0.061l-0.093-0.683
			c-0.024-0.172-0.133-0.254-0.304-0.231l-0.91,0.125C9.388,0.338,9.309,0.446,9.333,0.619L9.659,3z"/>
		<path fill="#001F5B" d="M11.766,3.054l0.955,0.016c0.17,0.004,0.266-0.09,0.27-0.263l0.043-2.404
			c0.005-0.175-0.092-0.272-0.262-0.275L11.817,0.11c-0.168-0.004-0.263,0.092-0.264,0.264l-0.046,2.404
			C11.506,2.953,11.595,3.049,11.766,3.054z M11.988,0.49l0.607,0.01l-0.04,2.19l-0.606-0.012L11.988,0.49z"/>
		<path fill="#001F5B" d="M13.654,3.162l0.92,0.165c0.172,0.031,0.285-0.047,0.316-0.218l0.469-2.632l-0.433-0.077l-0.451,2.526
			l-0.584-0.103l0.45-2.527L13.91,0.218L13.441,2.85C13.408,3.021,13.484,3.131,13.654,3.162z"/>
		<polygon fill="#001F5B" points="17.146,3.786 17.541,2.95 18.14,3.234 18.303,2.891 17.703,2.606 18.072,1.83 18.77,2.16 
			18.936,1.809 17.842,1.29 16.58,3.948 17.685,4.472 17.85,4.121 		"/>
		<path fill="#001F5B" d="M20.551,2.799l-0.976-0.644l-1.622,2.457l0.365,0.243l0.727-1.1l0.119,0.077L18.826,5.19l0.385,0.252
			L19.22,5.43l0.318-1.367l0.129,0.083c0.142,0.089,0.269,0.063,0.364-0.081l0.592-0.896C20.718,3.026,20.694,2.895,20.551,2.799z
			 M19.685,3.796l-0.464-0.306l0.514-0.776l0.463,0.304L19.685,3.796z"/>
		<polygon fill="#001F5B" points="17.353,1.091 17.356,1.083 16.939,0.947 15.969,2.831 16.289,0.737 15.867,0.601 15.866,0.607 
			15.493,3.573 15.913,3.709 		"/>
		<path fill="#001F5B" d="M6.384,3.854l0.496-0.24L7.2,4.076l0.393-0.188l0-0.002L5.807,1.478L5.391,1.679l0.76,2.897L6.152,4.58
			l0.393-0.19L6.384,3.854z M5.891,2.196l0.771,1.104l-0.39,0.187L5.891,2.196z"/>
		<polygon fill="#001F5B" points="4.635,2.063 4.266,2.301 5.112,4.243 3.692,2.67 3.32,2.911 3.325,2.917 5.39,5.08 5.76,4.841 
			4.639,2.069 		"/>
	</g>
	<g>
		<path fill="#071C2C" d="M16.931,8.776c-0.461-1.321-2.989-1.414-3.56-2.245c-0.157-0.23-0.419-1.71-0.682-1.913
			c-0.289-0.223-1.031-0.121-1.031-0.121c0,0.205-0.05,2.02-0.428,2.394c-0.251,0.215-0.678,0.308-1.187,0.575L9.751,7.764
			L9.427,8.771L9.006,8.555l0.151,0.373L8.406,9.053l0.425,0.148l-1.223,0.939l0.33,0.026l-0.436,0.786
			c0.63-0.286,0.819-0.339,0.819-0.339l-0.18-0.186l1.268-0.513c0,0-0.095,0.256-0.095,0.747c0,0.07,0.01,0.173,0.035,0.296
			c0.052-0.053,1.146-1.142,2.294-1.377L9.87,10.953c0,0,1.459,0.062,1.819-0.041c1.127-0.524,2.034-1.017,2.743-1.371
			c1.646,0.437,2.35,1.007,2.35,1.007l0.175-0.195c-0.083-0.062-0.688-0.479-1.878-0.872c0.354-0.14,0.783-0.304,0.897-0.304
			c0.263,0,0.802,0.343,1.384,0.72L17.49,9.75c0,0,0.031-0.027,0.058-0.084c0.016-0.055,0.019-0.108,0.012-0.16
			c0.007,0.052,0.004,0.105-0.012,0.16c0.024-0.045,0.045-0.108,0.045-0.188C17.593,9.203,17.235,9.022,16.931,8.776z"/>
		<path fill="#071C2C" d="M17.994,13.76c-0.155,0-0.283,0.127-0.283,0.282c0,0.157,0.128,0.285,0.283,0.285
			c0.158,0,0.286-0.128,0.286-0.285C18.28,13.887,18.152,13.76,17.994,13.76z M17.994,14.267c-0.122,0-0.222-0.102-0.222-0.225
			s0.1-0.221,0.222-0.221c0.124,0,0.226,0.098,0.226,0.221S18.118,14.267,17.994,14.267z"/>
		<path fill="#071C2C" d="M18.112,13.978c0-0.052-0.042-0.096-0.096-0.096H17.88v0.323h0.062v-0.133h0.042l0.062,0.133h0.067
			l-0.063-0.137C18.086,14.055,18.112,14.02,18.112,13.978z M18.017,14.013h-0.075v-0.07h0.075c0.019,0,0.035,0.016,0.035,0.035
			C18.052,13.995,18.035,14.013,18.017,14.013z"/>
	</g>
	<g>
		<path fill="#99999A" d="M10.553,8.579L9.869,8.961l1.364,0.185L10.553,8.579z"/>
		<path fill="#99999A" d="M9.669,9.654l0.117-0.85L8.202,9.874L9.669,9.654z"/>
		<path fill="#99999A" d="M11.005,7.306L9.859,7.944l0.298,0.715L11.005,7.306z"/>
	</g>
	<g>
		<polygon fill="#001F5B" points="8.587,9.726 9.561,9.572 9.662,8.996 		"/>
		<polygon fill="#001F5B" points="10.993,9.033 10.47,8.728 10.1,8.925 		"/>
		<polygon fill="#001F5B" points="10.131,8.426 10.757,7.575 10.031,7.985 		"/>
		<path fill="#001F5B" d="M12.895,13.53c-3.039,0-3.804-2.084-3.804-2.867c0-0.176,0.013-0.32,0.026-0.44l-0.699,0.23l0.09,0.198
			L7.963,10.85l-0.47,0.309l0.955,0.176L8.25,12.017l0.409-0.119l0.394,0.999l0.471-0.06l0.156,0.7c0,0,0.887,0.614,2.385,0.749
			c1.983,0.176,3.756-0.499,3.756-0.499s-2.116,0.828-4.038,0.624c-1.468-0.155-2.427-0.753-2.427-0.753l-0.012-0.634l-0.58,0.009
			l-0.272-0.971l-0.515,0.241l0.227-0.868l-0.989-0.122l0.201-0.604l0.236-0.475l-0.317,0.009L8.66,9.258L8.084,9.031l0.94-0.184
			L8.696,8.187l0.58,0.332l0.229-0.72c-0.695,0.242-2.194,1.012-3.06,3.273c0.104,0.519,1.01,4.115,6.016,4.115
			c2.158,0,3.735-0.818,4.222-1.104l-0.521-1.157C15.688,13.11,14.436,13.53,12.895,13.53z"/>
		<polygon fill="#001F5B" points="8.578,6.408 8.978,7.584 9.687,7.758 9.972,7.371 		"/>
	</g>
	<g>
		<path fill="#FFFFFF" d="M12.5,6.491c-0.104-0.13-0.228-1.447-0.228-1.447s-0.021,1.342-0.101,1.462
			c-0.077,0.12-0.462,0.342-0.462,0.342s0.43-0.14,0.639-0.153c0.154-0.007,0.643,0.093,0.643,0.093S12.603,6.624,12.5,6.491z"/>
		<path fill="#FFFFFF" d="M12.538,8.891c-2.139,0.126-3.136,1.965-3.189,2.068c0.052-0.053,1.146-1.142,2.294-1.377L12.538,8.891z"
			/>
		<path fill="#FFFFFF" d="M16.931,8.776c-1.2-0.134-1.526-0.422-1.526-0.606c0-0.072,0.062-0.092,0.119-0.092
			c0.272,0,0.631,0.196,0.836,0.415C16.238,8.18,15.521,7.81,15.052,7.81c-0.088,0-0.217,0.026-0.217,0.169
			c0,0.294,0.446,0.668,1.587,0.762c0.613,0.144,1.249,0.486,1.126,0.926c0.024-0.045,0.045-0.108,0.045-0.188
			C17.593,9.203,17.235,9.022,16.931,8.776z"/>
		<path fill="#FFFFFF" d="M15.344,9.475l0.446,0.158c0.081-0.035,0.17-0.078,0.179-0.091c0.006-0.012,0.006-0.021-0.015-0.038
			c-0.013-0.011-0.211-0.086-0.335-0.132L15.344,9.475z"/>
		<path fill="#FFFFFF" d="M15.719,9.335c0.118,0.047,0.283,0.113,0.297,0.114c0.019,0.004,0.049,0.005,0.067,0
			c0.015-0.002,0.111-0.053,0.185-0.09c-0.071-0.033-0.21-0.097-0.302-0.097C15.877,9.263,15.719,9.335,15.719,9.335z"/>
		<path fill="#FFFFFF" d="M16.159,9.488c-0.003,0.008,0,0.016,0.016,0.027c0.017,0.011,0.247,0.132,0.264,0.134
			c0.02,0.001,0.035,0.001,0.055-0.002c0.011-0.004,0.093-0.055,0.146-0.092l-0.308-0.167C16.252,9.43,16.166,9.477,16.159,9.488z"
			/>
		<path fill="#FFFFFF" d="M16.377,9.731c0.008-0.01,0.011-0.02,0.005-0.03c-0.013-0.016-0.243-0.135-0.268-0.139
			c-0.026-0.005-0.041-0.005-0.062,0.009c-0.021,0.01-0.138,0.072-0.18,0.097l0.359,0.163C16.299,9.788,16.372,9.741,16.377,9.731z"
			/>
		<path fill="#FFFFFF" d="M16.817,9.858c0.007,0.001,0.031-0.004,0.056-0.014c0.012-0.005,0.066-0.046,0.103-0.077l-0.276-0.177
			c-0.066,0.043-0.138,0.09-0.144,0.1c0,0.004,0.002,0.008,0.016,0.03L16.817,9.858z"/>
		<path fill="#FFFFFF" d="M16.931,9.886c-0.007,0.016-0.01,0.023-0.005,0.026c0.007,0.01,0.152,0.106,0.251,0.169l0.109-0.109
			l-0.253-0.167C16.986,9.839,16.935,9.879,16.931,9.886z"/>
		<path fill="#FFFFFF" d="M16.773,9.933c0.004-0.008,0.002-0.021-0.008-0.031C16.751,9.89,16.53,9.77,16.514,9.767
			c-0.018-0.004-0.051,0.001-0.07,0.006c-0.009,0.001-0.073,0.047-0.135,0.092l0.339,0.155C16.705,9.983,16.767,9.941,16.773,9.933z
			"/>
		<path fill="#FFFFFF" d="M16.832,9.978c-0.009,0.004-0.071,0.051-0.12,0.088l0.306,0.19l0.113-0.126
			c-0.092-0.064-0.229-0.156-0.237-0.158C16.883,9.967,16.848,9.972,16.832,9.978z"/>
		<path fill="#FFFFFF" d="M14.432,9.541c1.646,0.437,2.35,1.007,2.35,1.007l0.175-0.195c-0.083-0.062-0.688-0.479-1.878-0.872
			c0.354-0.14,0.783-0.304,0.897-0.304c0.263,0,0.802,0.343,1.384,0.72L17.49,9.75c-0.508-0.351-1.101-0.765-1.53-0.765
			C15.611,8.985,15.111,9.201,14.432,9.541z"/>
	</g>
</g>
</svg>
