<?xml version="1.0" encoding="utf-8"?>
<!-- Generator: Adobe Illustrator 16.0.4, SVG Export Plug-In . SVG Version: 6.00 Build 0)  -->
<!DOCTYPE svg PUBLIC "-//W3C//DTD SVG 1.1//EN" "http://www.w3.org/Graphics/SVG/1.1/DTD/svg11.dtd">
<svg version="1.1" id="Layer_1" xmlns="http://www.w3.org/2000/svg" xmlns:xlink="http://www.w3.org/1999/xlink" x="0px" y="0px" viewBox="0 0 24 16" enable-background="new 0 0 24 16" xml:space="preserve">
<g>
	<g>
		<polygon fill="#CF0A2C" points="6.77,5.588 7.25,5.239 7.729,5.588 7.546,5.024 8.026,4.676 7.434,4.676 7.25,4.111 7.066,4.676 
			6.474,4.676 6.954,5.024 		"/>
		<polygon fill="#CF0A2C" points="9.879,5.588 10.358,5.239 10.839,5.588 10.655,5.024 11.135,4.676 10.542,4.676 10.358,4.111 
			10.176,4.676 9.582,4.676 10.062,5.024 		"/>
		<polygon fill="#CF0A2C" points="12.988,5.588 13.468,5.239 13.947,5.588 13.765,5.024 14.244,4.676 13.651,4.676 13.468,4.111 
			13.284,4.676 12.691,4.676 13.171,5.024 		"/>
		<polygon fill="#CF0A2C" points="5.589,6.334 5.591,6.334 5.555,6.894 5.748,6.894 6.287,6.192 6.13,6.192 5.721,6.74 5.719,6.74 
			5.757,6.192 5.559,6.192 5.149,6.74 5.146,6.74 5.188,6.192 5.019,6.192 4.979,6.894 5.169,6.894 		"/>
		<path fill="#CF0A2C" d="M5.99,6.894h0.169l0.139-0.157h0.404l0.016,0.157h0.187L6.836,6.192H6.638L5.99,6.894z M6.693,6.621H6.402
			l0.272-0.305L6.693,6.621z"/>
		<path fill="#CF0A2C" d="M7.857,6.401C7.911,6.26,7.836,6.174,7.631,6.174c-0.163,0-0.341,0.064-0.409,0.227
			C7.105,6.683,7.668,6.544,7.603,6.701C7.582,6.752,7.511,6.808,7.381,6.808c-0.125,0-0.165-0.051-0.139-0.134H7.084
			c-0.062,0.15,0.028,0.238,0.232,0.238c0.238,0,0.398-0.086,0.458-0.23c0.128-0.309-0.453-0.127-0.377-0.309
			C7.423,6.31,7.508,6.277,7.573,6.277c0.109,0,0.158,0.033,0.126,0.124H7.857z"/>
		<polygon fill="#CF0A2C" points="8.006,6.894 8.131,6.593 8.513,6.593 8.388,6.894 8.545,6.894 8.836,6.192 8.679,6.192 
			8.56,6.478 8.178,6.478 8.296,6.192 8.139,6.192 7.849,6.894 		"/>
		<polygon fill="#CF0A2C" points="8.916,6.894 9.207,6.192 9.05,6.192 8.759,6.894 		"/>
		<polygon fill="#CF0A2C" points="9.273,6.894 9.501,6.346 9.503,6.346 9.684,6.894 9.895,6.894 10.186,6.192 10.043,6.192 
			9.82,6.73 9.818,6.73 9.645,6.192 9.423,6.192 9.132,6.894 		"/>
		<path fill="#CF0A2C" d="M11.062,6.418c0.068-0.164-0.057-0.244-0.269-0.244c-0.276,0-0.49,0.157-0.577,0.367
			c-0.105,0.254,0.024,0.371,0.286,0.371c0.102,0,0.264-0.02,0.381-0.062l0.136-0.327h-0.378l-0.045,0.108h0.224l-0.055,0.134
			c-0.088,0.024-0.145,0.032-0.206,0.032c-0.216,0-0.233-0.127-0.179-0.257c0.075-0.183,0.243-0.258,0.392-0.258
			c0.077,0,0.163,0.038,0.127,0.136H11.062z"/>
		<polygon fill="#CF0A2C" points="11.255,6.894 11.413,6.894 11.655,6.307 11.923,6.307 11.971,6.192 11.278,6.192 11.231,6.307 
			11.498,6.307 		"/>
		<path fill="#CF0A2C" d="M12.172,6.912c0.259,0,0.46-0.123,0.562-0.37c0.103-0.245,0.003-0.368-0.256-0.368
			s-0.46,0.123-0.562,0.368C11.813,6.789,11.913,6.912,12.172,6.912z M12.079,6.542c0.068-0.165,0.199-0.254,0.352-0.254
			c0.151,0,0.208,0.089,0.14,0.254c-0.068,0.166-0.198,0.255-0.352,0.255C12.067,6.797,12.011,6.708,12.079,6.542z"/>
		<polygon fill="#CF0A2C" points="13.449,6.73 13.275,6.192 13.054,6.192 12.764,6.894 12.905,6.894 13.133,6.346 13.134,6.346 
			13.314,6.894 13.526,6.894 13.816,6.192 13.675,6.192 13.451,6.73 		"/>
		<path fill="#041E41" d="M22.264,10.192c0,0.121,0.099,0.22,0.22,0.22s0.22-0.099,0.22-0.22c0-0.122-0.099-0.22-0.22-0.22
			S22.264,10.07,22.264,10.192z M22.655,10.192c0,0.096-0.077,0.172-0.172,0.172c-0.096,0-0.173-0.076-0.173-0.172
			s0.077-0.173,0.173-0.173C22.578,10.02,22.655,10.097,22.655,10.192z"/>
		<path fill="#041E41" d="M22.394,10.317h0.047v-0.102h0.033l0.048,0.102h0.052l-0.049-0.106c0.028-0.01,0.049-0.037,0.049-0.069
			c0-0.041-0.033-0.074-0.074-0.074h-0.105V10.317z M22.44,10.114h0.059c0.016,0,0.027,0.012,0.027,0.027
			c0,0.015-0.012,0.027-0.027,0.027H22.44V10.114z"/>
	</g>
	<polygon fill="#CF0A2C" points="17.687,12.277 16.015,12.277 15.466,12.951 17.138,12.951 	"/>
	<g>
		<path fill="#041E41" d="M3.736,8.191h0.877l0.222-0.537H3.932c-1.065,0-2.194,0.642-2.521,1.432
			C1.212,9.564,1.503,9.973,2.07,9.973h1.176c0.511,0,1.133-0.49,1.133-0.49L3.83,9.25c0,0-0.25,0.188-0.52,0.188H2.184
			c-0.141,0-0.2-0.137-0.125-0.316C2.271,8.607,3.022,8.191,3.736,8.191z"/>
		<path fill="#041E41" d="M7.192,9.973l0.542-1.309c0.231-0.558-0.121-1.01-0.786-1.01H5.227L5.004,8.191h1.865
			c0.398,0,0.277,0.293,0.277,0.293H5.803c-0.534,0-0.928,0.245-1.053,0.549c-0.215,0.52,0.1,0.939,0.703,0.939h0.681
			c0.245,0,0.454-0.141,0.454-0.141L6.529,9.973H7.192z"/>
		<path fill="#041E41" d="M14.874,7.654l-0.223,0.537h2.089c0.398,0,0.276,0.293,0.276,0.293h-1.343
			c-0.534,0-0.928,0.245-1.054,0.549c-0.215,0.52,0.1,0.939,0.703,0.939h0.681c0.245,0,0.455-0.141,0.455-0.141L16.4,9.973h0.662
			l0.543-1.309c0.23-0.558-0.121-1.01-0.785-1.01H14.874z"/>
		<polygon fill="#041E41" points="18.03,9.973 20.163,4.825 19.5,4.825 17.368,9.973 		"/>
		<polygon fill="#041E41" points="12.996,7.654 12.334,7.654 12.111,8.191 12.773,8.191 		"/>
		<polygon fill="#041E41" points="12.035,9.973 12.652,8.484 11.99,8.484 11.373,9.973 		"/>
		<path fill="#041E41" d="M19.243,8.188c-0.205,0.494,0.061,0.895,0.594,0.895h1.345c0.099,0,0.145,0.08,0.104,0.178
			c-0.041,0.098-0.153,0.178-0.251,0.178h-2.46l-0.223,0.535h2.469c0.459,0,0.875-0.104,1.053-0.533
			c0.204-0.493-0.062-0.894-0.594-0.894h-1.346c-0.098,0-0.145-0.08-0.104-0.178c0.04-0.098,0.153-0.177,0.251-0.177h2.179
			l0.223-0.537h-2.188C19.837,7.654,19.382,7.852,19.243,8.188z"/>
		<path fill="#041E41" d="M11.273,9.371l0.711-1.717h-1.567c-1.229,0-2.166,0.766-2.557,1.711l-0.815,1.969h0.663l0.77-1.857
			c0.294-0.71,0.941-1.285,1.966-1.285H11.1l-0.416,1.004c-0.055,0.133-0.208,0.242-0.341,0.242H8.812L8.589,9.973h1.833
			C10.753,9.973,11.087,9.822,11.273,9.371z"/>
		<path fill="#041E41" d="M12.761,10.721c-0.219,0.531-0.211,1.264,0.019,1.633l1.309,2.096l0.861-1.25l-1.593-1.324
			c-0.168-0.139-0.216-0.471-0.105-0.734l4.085-9.865h-0.663l-2.642,6.379h-0.785l-0.223,0.537h0.786L12.761,10.721z"/>
	</g>
	<g>
		<path fill="#FFFFFF" d="M15.496,9.021c-0.115,0-0.246,0.092-0.294,0.207s0.007,0.209,0.122,0.209h1.011
			c0.146,0,0.331-0.105,0.385-0.234l0.108-0.263c0,0-0.189,0.081-0.401,0.081H15.496z"/>
		<path fill="#FFFFFF" d="M5.625,9.021c-0.115,0-0.247,0.092-0.294,0.207s0.007,0.209,0.122,0.209h1.011
			c0.146,0,0.331-0.105,0.385-0.234L6.958,8.94c0,0-0.19,0.081-0.402,0.081H5.625z"/>
	</g>
</g>
</svg>
